# Blender 4.2.0
# www.blender.org
mtllib gremlin.mtl
o Cube
v -0.962284 6.201938 1.068000
v -0.286923 4.053822 1.285365
v -0.890000 5.745058 0.106738
v -0.259552 4.623185 0.513987
v 0.137967 3.798701 1.321902
v 0.419186 5.980549 0.445399
v 0.322587 4.663110 0.591500
v 0.113108 6.004354 1.524635
v -1.009163 5.413027 1.312565
v -0.309536 4.846673 0.353557
v 0.387838 4.909228 0.439279
v 0.010776 5.119877 1.755704
v -2.225788 6.530116 0.656386
v -2.258635 6.635622 0.416528
v -2.264393 6.491832 0.644008
v -2.559452 6.792582 0.307824
v 0.186611 4.747822 0.171027
v -0.087333 4.665364 0.195518
v 0.006282 3.961545 0.313900
v 0.149925 4.103845 0.129672
v -0.044704 4.528946 -0.702749
v -0.851296 4.450411 -0.360234
v -0.562317 3.688635 -0.113027
v 0.092600 3.591361 -0.267868
v -0.527129 4.289294 0.755322
v -0.343226 3.868709 0.660238
v -0.965360 4.093466 0.578355
v -0.541606 3.772728 0.646578
v -1.334297 2.956678 -0.195014
v -0.865072 2.886897 0.508183
v -1.823718 3.032672 0.489304
v -1.446070 3.058194 0.717384
v -0.329759 4.011214 -1.706785
v -1.333050 3.819630 -1.400495
v -0.112401 3.144467 -1.529577
v -1.996527 1.564366 0.575008
v -2.201909 1.677769 0.963555
v -2.368643 1.040634 1.120842
v -2.323911 1.131124 1.195604
v -0.546658 3.717931 -2.401427
v -1.399033 3.320556 -1.571270
v -0.698433 3.140939 -1.265494
v -0.377138 2.876241 -2.268326
v -1.088225 1.860160 -1.317780
v -1.385967 2.254446 -1.076220
v -0.980036 2.316857 -0.774475
v -0.686808 1.932484 -0.782944
v -1.495708 0.148270 0.075525
v -1.471550 0.140246 0.092116
v -1.448509 0.078744 0.037188
v -1.431627 0.078238 0.062731
v -1.614818 1.101072 1.218939
v -1.743002 1.251932 1.543927
v -1.656855 1.090472 1.246808
v -1.753087 1.243059 1.506770
v -2.226033 1.279643 0.978608
v -2.359396 1.418641 0.705576
v -2.246762 1.383359 0.709357
v -2.373229 1.601463 0.842816
v -2.282240 1.424732 0.997878
v -2.303160 1.583850 0.933578
v -2.464256 1.114485 1.163365
v -2.397991 1.182546 1.228792
v -2.198008 0.953783 1.614051
v -2.269492 0.975533 1.639265
v -2.350949 0.920005 1.580789
v -2.267588 0.884933 1.553815
v -2.270144 1.004317 0.738589
v -2.277905 1.047287 0.829572
v -2.371314 1.030590 0.722622
v -2.241475 0.834795 0.886450
v -0.657717 0.141234 0.815047
v -1.154837 0.115848 0.917884
v -1.194656 0.289606 0.897703
v -0.658738 0.261425 1.000539
v -0.794571 -0.048993 1.139677
v -0.960517 -0.051081 1.173479
v -0.928985 0.078269 1.285163
v -0.750294 0.052797 1.319973
v -0.682757 0.151220 -0.292255
v -0.728032 0.131004 -0.099462
v -1.077855 0.120614 -0.015086
v -1.121166 0.172300 -0.198844
v -1.067633 0.284475 0.392137
v -1.170530 0.506439 0.207620
v -0.610095 0.465315 0.244876
v -0.542688 0.630428 0.025469
v -0.196693 4.071285 0.765621
v 0.189823 4.017042 0.609959
v -0.255302 4.570148 0.531892
v 0.260591 4.608735 0.456339
v -1.397503 6.190937 0.177288
v -1.424111 6.181514 0.984574
v -1.737236 5.740330 0.255243
v -1.638286 5.820142 1.004223
v -0.902607 6.267964 1.134558
v -0.853826 5.215273 1.412370
v -2.230949 6.644446 0.629953
v -2.527163 6.774509 0.448682
v -1.382262 6.262428 0.981804
v -1.702426 5.756675 0.995460
v -1.365372 6.150901 0.815601
v -1.579510 5.788170 0.835550
v -2.167028 6.498751 0.487578
v -2.205601 6.459219 0.475474
v -0.374582 6.180305 1.319854
v -0.490884 6.204683 1.283494
v -0.309867 6.196089 1.096123
v -0.341666 6.523088 1.259671
v -0.402342 5.414765 1.419646
v -0.536762 5.420127 1.364960
v -0.361055 5.716520 1.326455
v -0.496475 5.721950 1.271409
v 0.010776 5.119877 1.755704
v -0.853826 5.215272 1.412370
v -0.374582 6.180305 1.319854
v -0.490884 6.204683 1.283494
v -0.710302 3.224386 -1.352012
v -0.516663 3.203998 -1.370161
v -0.602563 3.464287 -0.342716
v -1.044187 3.514735 -1.365931
v 1.303366 6.220147 1.688874
v 0.529119 4.037030 1.508493
v 1.698900 5.681723 0.833974
v 0.996946 4.513171 0.635195
v 1.140389 5.330973 1.922110
v 1.068204 4.785300 0.704895
v 2.683140 6.755422 1.962188
v 2.845805 6.856124 1.777261
v 2.718875 6.711466 1.971513
v 3.169815 6.987237 1.846332
v 0.423507 4.680034 0.002766
v 0.360523 3.973016 0.134526
v 0.812820 4.731967 -1.259754
v 0.926372 4.182856 -1.165591
v 1.330339 4.805001 -0.417528
v 1.161259 4.291827 -0.484623
v 1.635623 4.686980 -0.977270
v 1.363724 4.263093 -0.685786
v 1.722512 3.696702 -1.847945
v 1.701666 3.502675 -0.938245
v 2.432156 3.633805 -1.472532
v 2.219124 3.674459 -1.088605
v 0.615391 4.028919 -2.465063
v 2.096775 2.274828 -1.135117
v 2.203484 2.208871 -0.671606
v 2.699706 1.742816 -0.936531
v 2.640516 1.737736 -0.825855
v 0.719171 3.550933 -2.349213
v 0.294698 3.347888 -1.654459
v 0.711841 2.763769 -2.025298
v 1.078912 2.731893 -1.721577
v 0.683406 2.545250 -1.429667
v 0.585147 2.150947 -1.907117
v 1.894295 1.736601 -3.352811
v 1.872910 1.718727 -3.366288
v 1.872844 1.768865 -3.442496
v 1.856732 1.747007 -3.446272
v 1.867759 1.443972 -0.800124
v 1.995749 1.418105 -0.434238
v 1.913681 1.433011 -0.776217
v 2.003918 1.433794 -0.469826
v 2.344081 1.903626 -1.046332
v 2.423441 2.214269 -1.027429
v 2.235966 2.102208 -1.082945
v 2.390794 2.272012 -0.808570
v 2.427559 2.022658 -0.803332
v 2.355611 2.174064 -0.748283
v 2.761112 1.814477 -0.849941
v 2.690666 1.789308 -0.762146
v 2.713402 1.321016 -0.617454
v 2.772170 1.356321 -0.578479
v 2.852075 1.393291 -0.651872
v 2.788361 1.344355 -0.701396
v 2.534658 1.882403 -1.264280
v 2.539947 1.826246 -1.172179
v 2.620622 1.918204 -1.186083
v 2.687131 1.545992 -1.315822
v 0.870754 1.057032 -3.381049
v 1.322577 0.886138 -3.253716
v 1.343490 0.956595 -3.081570
v 0.804436 0.935539 -3.196800
v 0.951125 0.683939 -3.419008
v 1.104233 0.625082 -3.376827
v 1.030491 0.567584 -3.230352
v 0.854265 0.555595 -3.281260
v 1.128140 2.171009 -3.647454
v 1.159277 1.960857 -3.644225
v 1.509174 1.887902 -3.539032
v 1.538757 2.036963 -3.498510
v 1.420173 1.757872 -3.081345
v 1.459196 1.889709 -2.975186
v 0.903562 1.648634 -3.283930
v 0.832813 1.772780 -3.230069
v 0.597508 3.901275 0.662465
v 0.851099 4.434292 0.442362
v 2.166729 6.282829 1.140604
v 1.762580 6.281221 1.842129
v 2.370028 5.765858 1.382359
v 1.895486 5.855911 1.971048
v 1.220423 6.280672 1.717273
v 0.945161 5.143699 1.922698
v 2.710847 6.871677 1.944411
v 3.067042 6.974751 1.948763
v 1.735817 6.369902 1.818791
v 1.947806 5.779308 1.997184
v 1.798188 6.246460 1.667657
v 1.931094 5.821151 1.796577
v 2.718748 6.720662 1.787717
v 2.754482 6.676706 1.797042
v 0.648410 6.142685 1.609918
v 0.770312 6.168351 1.638968
v 0.712654 6.159792 1.385777
v 0.680350 6.494862 1.547473
v 0.560323 5.375013 1.693505
v 0.704451 5.369071 1.717954
v 0.597031 5.676886 1.599049
v 0.741160 5.670946 1.623499
v 0.945161 5.143699 1.922698
v 0.648410 6.142685 1.609918
v 0.770312 6.168351 1.638968
v 0.288388 3.463111 -1.686522
v 0.040194 3.541313 -1.767763
v 0.757901 4.020158 -1.197544
v 0.274370 3.966053 -2.320288
vn 0.2003 -0.9779 0.0591
vn 0.4383 0.8944 -0.0891
vn -0.0000 1.0000 -0.0000
vn 0.0861 0.9178 -0.3877
vn 0.2150 -0.0592 -0.9748
vn 0.1489 -0.5514 -0.8209
vn -0.3433 -0.2972 0.8910
vn -0.8647 -0.3927 -0.3132
vn 0.4537 0.8896 -0.0536
vn -0.0269 0.1620 -0.9864
vn -0.7880 -0.6129 0.0588
vn 0.0106 -0.9833 0.1818
vn -0.4477 0.8574 0.2539
vn -0.8818 -0.2319 -0.4108
vn -0.1007 0.9359 0.3375
vn -0.8371 -0.3115 0.4497
vn 0.2760 -0.7918 0.5448
vn -0.1973 0.9678 -0.1563
vn -0.1974 -0.1966 0.9604
vn 0.6916 0.1852 0.6982
vn 0.7623 -0.3622 0.5364
vn 0.3809 -0.9185 0.1060
vn -0.7641 0.4640 0.4482
vn 0.4863 -0.4275 -0.7620
vn -0.8617 0.4452 -0.2434
vn -0.2558 0.2444 0.9353
vn 0.1772 -0.9004 0.3973
vn 0.0786 -0.9328 0.3518
vn -0.2717 0.8790 -0.3919
vn -0.6852 0.0297 -0.7277
vn 0.0603 -0.8376 -0.5429
vn -0.6447 0.2244 0.7308
vn 0.7468 -0.6468 -0.1547
vn 0.8875 0.1782 0.4249
vn -0.5183 0.7084 -0.4792
vn -0.6098 -0.6427 0.4638
vn -0.6574 -0.2625 -0.7063
vn -0.0346 -0.6697 -0.7418
vn -0.3863 0.4692 0.7941
vn 0.8726 -0.1279 -0.4715
vn 0.9773 -0.2084 -0.0369
vn -0.9874 0.0740 -0.1400
vn -0.1446 0.9803 0.1343
vn 0.2183 -0.8295 0.5141
vn 0.6878 0.7239 0.0535
vn 0.1203 0.1106 0.9866
vn -0.7519 0.4152 0.5121
vn 0.0737 -0.0634 -0.9953
vn -0.7682 0.1505 0.6223
vn -0.4677 0.6137 0.6361
vn -0.5535 -0.7027 0.4470
vn -0.9304 -0.1689 -0.3253
vn 0.6472 -0.6362 -0.4201
vn 0.7214 0.3135 0.6175
vn -0.0066 -0.6862 0.7274
vn 0.8753 -0.3232 -0.3597
vn 0.5089 0.8299 0.2286
vn -0.5631 -0.8044 -0.1893
vn -0.0537 -0.6615 -0.7480
vn -0.8613 -0.0195 0.5077
vn 0.9923 -0.1115 -0.0545
vn -0.7559 0.0452 0.6531
vn 0.9854 0.1700 0.0038
vn -0.0353 0.8553 0.5169
vn -0.9147 0.1598 0.3711
vn 0.3046 0.4715 0.8276
vn -0.5671 -0.4474 -0.6915
vn -0.0545 -0.7760 0.6284
vn -0.0714 -0.8526 -0.5177
vn 0.9276 -0.3578 0.1074
vn -0.8466 -0.1749 0.5027
vn -0.0556 -0.9807 -0.1876
vn -0.5045 0.5820 -0.6377
vn 0.0070 0.7223 0.6916
vn 0.9264 -0.3660 0.0887
vn 0.0429 -0.9991 0.0031
vn 0.0819 -0.8829 0.4623
vn 0.0720 -0.9627 -0.2608
vn -0.6270 0.2869 0.7243
vn -0.0524 0.7491 -0.6604
vn -0.9677 -0.1872 -0.1689
vn -0.3754 -0.9014 -0.2159
vn -0.4072 -0.9130 0.0259
vn -0.5376 -0.8427 0.0281
vn -0.1654 -0.2586 -0.9517
vn 0.4103 0.8673 -0.2819
vn -0.5002 0.2358 0.8332
vn -0.4550 0.1800 0.8721
vn -0.2291 -0.2501 0.9407
vn -0.5289 0.0015 0.8487
vn -0.2983 0.1958 0.9342
vn -0.3181 0.2111 0.9243
vn -0.3008 0.2071 0.9309
vn -0.5059 0.3004 0.8086
vn 0.5341 0.8450 0.0259
vn 0.6977 0.7083 0.1076
vn 0.6088 -0.7132 0.3474
vn 0.9605 -0.0440 0.2747
vn -0.6860 0.2710 -0.6752
vn -0.2562 0.1910 0.9476
vn -0.0673 0.9222 -0.3809
vn 0.3346 0.9381 0.0894
vn -0.2995 0.2305 0.9258
vn -0.2870 0.2731 0.9182
vn -0.3459 0.3197 0.8821
vn 0.2793 -0.0000 -0.9602
vn 0.4472 -0.0000 0.8944
vn -0.2585 0.5563 0.7897
vn -0.3422 -0.0083 0.9396
vn 0.2594 0.0847 0.9621
vn -0.6613 0.1205 0.7403
vn -0.3396 -0.1288 0.9317
vn -0.4988 -0.8492 0.1734
vn 0.1100 0.1734 0.9787
vn -0.3664 -0.9293 -0.0455
vn -0.3855 0.8491 -0.3611
vn 0.0796 0.8911 -0.4468
vn 0.3088 -0.0386 -0.9503
vn 0.1793 -0.2006 -0.9631
vn -0.1890 -0.3037 0.9338
vn 0.8897 -0.3949 0.2292
vn -0.2883 0.9202 -0.2647
vn 0.5424 0.0666 -0.8375
vn 0.6476 -0.5959 0.4748
vn 0.0608 -0.9765 0.2070
vn -0.0505 0.9972 -0.0554
vn 0.7127 -0.3538 -0.6057
vn 0.3235 0.9100 0.2592
vn 0.8648 -0.4641 -0.1920
vn 0.5929 -0.7432 0.3101
vn -0.1806 0.9794 -0.0899
vn 0.7873 -0.2339 0.5705
vn 0.5297 -0.0559 0.8463
vn -0.2067 -0.3898 0.8974
vn 0.3110 -0.9494 0.0446
vn 0.5726 0.4281 0.6992
vn -0.6979 -0.6049 -0.3833
vn 0.3414 0.6373 -0.6908
vn 0.6763 0.3166 0.6652
vn 0.4772 -0.6659 0.5735
vn 0.7060 -0.7080 0.0163
vn -0.3816 0.8418 -0.3818
vn 0.3699 -0.3015 -0.8788
vn -0.1089 -0.3569 -0.9278
vn 0.5949 0.0363 0.8030
vn -0.9519 -0.3065 0.0015
vn -0.6475 -0.3046 0.6986
vn -0.2044 0.6066 -0.7683
vn 0.7512 -0.5512 -0.3633
vn 0.1531 -0.3773 -0.9134
vn 0.1991 -0.1611 -0.9666
vn 0.5050 0.5726 0.6458
vn -0.9285 0.2356 -0.2870
vn -0.8936 0.1205 -0.4324
vn 0.9871 -0.1292 0.0945
vn -0.2972 0.0891 0.9507
vn 0.0738 -0.9954 -0.0611
vn -0.8931 0.3432 0.2907
vn 0.2929 0.2604 0.9200
vn 0.9244 0.1441 0.3532
vn 0.0699 0.5949 -0.8008
vn 0.7551 0.1249 0.6436
vn 0.2984 0.2733 0.9145
vn 0.7484 -0.6566 -0.0935
vn 0.7902 0.5340 -0.3006
vn 0.1381 -0.3318 -0.9332
vn -0.6373 -0.5212 0.5676
vn 0.4857 -0.8615 0.1478
vn -0.7077 -0.4407 -0.5522
vn -0.7429 0.1644 0.6489
vn 0.7886 -0.1432 -0.5980
vn 0.5406 0.3614 -0.7597
vn 0.4508 -0.1900 0.8722
vn -0.6534 -0.5524 -0.5176
vn 0.4161 -0.2321 0.8792
vn -0.9059 -0.3828 -0.1814
vn -0.2114 -0.2168 0.9531
vn 0.8790 -0.2271 0.4192
vn 0.2230 -0.8890 0.3999
vn 0.3413 0.9048 -0.2548
vn 0.0307 -0.8449 -0.5340
vn 0.3241 0.1661 -0.9314
vn -0.8670 -0.0697 -0.4934
vn 0.7343 -0.6624 0.1487
vn 0.3394 0.0986 -0.9355
vn 0.5489 0.7867 0.2824
vn -0.2199 -0.5365 0.8147
vn -0.7491 -0.1299 -0.6495
vn 0.1757 -0.3125 -0.9335
vn -0.2783 -0.9105 -0.3058
vn 0.3025 0.1625 -0.9392
vn 0.3475 -0.6669 0.6591
vn 0.2277 0.8433 -0.4869
vn 0.8373 -0.5444 0.0500
vn 0.1631 -0.9858 -0.0397
vn 0.4155 -0.8721 0.2585
vn 0.4765 -0.8231 0.3088
vn 0.6313 -0.2494 -0.7343
vn -0.3267 0.7804 -0.5331
vn 0.0060 0.2103 0.9776
vn -0.0590 0.1636 0.9848
vn -0.2200 -0.1942 0.9560
vn -0.0346 0.0561 0.9978
vn -0.2231 0.1927 0.9556
vn -0.2041 0.2075 0.9567
vn -0.2200 0.2021 0.9543
vn 0.0034 0.2655 0.9641
vn -0.5380 0.7989 -0.2690
vn -0.6928 0.6669 -0.2743
vn -0.7723 -0.6345 -0.0312
vn -0.9613 0.0389 -0.2726
vn 0.9538 0.2000 -0.2240
vn -0.2655 0.1916 0.9449
vn 0.2953 0.9173 -0.2670
vn -0.2677 0.9601 -0.0810
vn -0.2212 0.2250 0.9489
vn -0.2192 0.2703 0.9375
vn -0.1464 0.3116 0.9389
vn -0.0000 -1.0000 -0.0000
vn -0.1544 0.5538 0.8182
vn -0.1964 -0.0104 0.9805
vn -0.7009 0.1271 0.7019
vn 0.1801 0.0860 0.9799
vn 0.5913 0.5079 0.6264
vn 0.6683 -0.6991 -0.2541
vn 0.0436 0.7830 0.6204
vt 0.482178 0.219184
vt 0.474188 0.190249
vt 0.498444 0.190005
vt 0.511198 0.218918
vt 0.517808 0.737415
vt 0.567738 0.760819
vt 0.523671 0.812795
vt 0.511198 0.805012
vt 0.291458 0.179973
vt 0.291143 0.166886
vt 0.291233 0.167678
vt 0.291817 0.179276
vt 0.517030 0.703059
vt 0.515810 0.672886
vt 0.531740 0.664958
vt 0.593391 0.722198
vt 0.636349 0.272327
vt 0.573828 0.310367
vt 0.562098 0.219293
vt 0.634817 0.224545
vt 0.657335 0.270792
vt 0.671846 0.226334
vt 0.457023 0.219726
vt 0.368940 0.218701
vt 0.366001 0.154986
vt 0.445170 0.192534
vt 0.439392 0.107851
vt 0.457893 0.118553
vt 0.272041 0.981144
vt 0.294006 0.993726
vt 0.280709 1.000000
vt 0.262487 0.983892
vt 0.545144 0.345607
vt 0.576079 0.367866
vt 0.511198 0.429377
vt 0.517451 0.406377
vt 0.254947 0.892978
vt 0.305466 0.890190
vt 0.296779 0.126614
vt 0.293054 0.091307
vt 0.305453 0.091767
vt 0.768914 0.615018
vt 0.858909 0.674127
vt 0.800543 0.731655
vt 0.766348 0.719178
vt 0.679078 0.321841
vt 0.677666 0.272662
vt 0.719299 0.259155
vt 0.697631 0.338855
vt 0.685095 0.226813
vt 0.718321 0.228799
vt 0.113823 0.155197
vt 0.178528 0.102062
vt 0.250505 0.151482
vt 0.233757 0.172644
vt 0.141725 0.172354
vt 0.048105 0.245349
vt 0.042311 0.219930
vt 0.107292 0.242488
vt 0.762993 0.582293
vt 0.856728 0.584211
vt 0.197760 0.943453
vt 0.173534 0.968307
vt 0.149185 0.939974
vt 0.186403 0.931422
vt 0.701527 0.658922
vt 0.732603 0.721416
vt 0.046628 0.153202
vt 0.017427 0.094963
vt 0.054211 0.097372
vt 0.041433 0.165943
vt 0.754611 0.343329
vt 0.748933 0.337875
vt 0.778750 0.325269
vt 0.784565 0.330504
vt 0.095808 0.073000
vt 0.070615 0.973690
vt 0.070615 0.875211
vt 0.122289 0.852553
vt 0.150299 0.859767
vt 0.357115 0.777714
vt 0.325718 0.777714
vt 0.309175 0.741934
vt 0.308296 0.732492
vt 0.360292 0.716325
vt 0.214647 0.209412
vt 0.211660 0.240091
vt 0.947790 0.584957
vt 0.951394 0.657969
vt 0.089568 0.763500
vt 0.102618 0.745336
vt 0.111122 0.746548
vt 0.361199 0.818498
vt 0.353315 0.835582
vt 0.332005 0.839612
vt 0.332005 0.778304
vt 0.335516 0.777714
vt 0.736619 0.384979
vt 0.734548 0.373382
vt 0.742145 0.364036
vt 0.795120 0.378046
vt 0.797128 0.379936
vt 0.013022 0.005918
vt 0.038301 0.002796
vt 0.282091 0.673129
vt 0.307469 0.645282
vt 0.862926 0.985928
vt 0.789935 0.990902
vt 0.789474 0.936362
vt 0.862610 0.947284
vt 0.617695 0.520866
vt 0.623453 0.521794
vt 0.623859 0.523877
vt 0.617406 0.522770
vt 0.846018 0.863116
vt 0.877322 0.879358
vt 0.119717 0.745336
vt 0.070615 0.716347
vt 0.096650 0.631733
vt 0.134589 0.654007
vt 0.681110 0.747948
vt 0.627640 0.760562
vt 0.629395 0.691084
vt 0.664865 0.685125
vt 0.134879 0.541542
vt 0.178530 0.531059
vt 0.168231 0.520785
vt 0.132161 0.529509
vt 0.087891 0.505106
vt 0.102822 0.499391
vt 0.646141 0.489021
vt 0.608346 0.496236
vt 0.673255 0.462690
vt 0.678234 0.473879
vt 0.327257 0.538394
vt 0.296340 0.525533
vt 0.291939 0.490321
vt 0.329159 0.487881
vt 0.208045 0.809619
vt 0.233434 0.815367
vt 0.230909 0.816474
vt 0.209671 0.812787
vt 0.202873 0.748531
vt 0.233434 0.754648
vt 0.000000 0.003506
vt 0.005606 -0.000000
vt 0.127095 0.749239
vt 0.506504 0.602965
vt 0.498764 0.599889
vt 0.500872 0.573828
vt 0.507845 0.575796
vt 0.726584 0.371385
vt 0.473162 0.506181
vt 0.483861 0.505945
vt 0.507845 0.547751
vt 0.489205 0.558576
vt 0.729447 0.272286
vt 0.743293 0.264993
vt 0.766658 0.295123
vt 0.759111 0.299534
vt 0.823903 0.264993
vt 0.818368 0.286927
vt 0.803651 0.299184
vt 0.797871 0.292851
vt 0.483208 0.484198
vt 0.488896 0.487465
vt 0.789341 0.328020
vt 0.784304 0.322005
vt 0.503305 0.458549
vt 0.507845 0.461442
vt 0.498764 0.558576
vt 0.843901 0.283434
vt 0.836465 0.290167
vt 0.376808 0.828211
vt 0.379448 0.834782
vt 0.844735 0.302884
vt 0.391732 0.825498
vt 0.313687 0.462685
vt 0.326154 0.461264
vt 0.599295 0.545810
vt 0.635199 0.559891
vt 0.288799 0.544605
vt 0.330923 0.550174
vt 0.832188 0.733287
vt 0.863386 0.731655
vt 0.701527 0.432236
vt 0.695493 0.443238
vt 0.683968 0.440429
vt 0.687360 0.429377
vt 0.463320 0.681899
vt 0.497360 0.675324
vt 0.488320 0.700222
vt 0.476982 0.702482
vt 0.070615 0.484638
vt 0.084415 0.480343
vt 0.493723 0.606601
vt 0.469500 0.609096
vt 0.466692 0.598468
vt 0.497360 0.592515
vt 0.444726 0.618054
vt 0.443589 0.616499
vt 0.254947 0.527882
vt 0.256490 0.526426
vt 0.664087 0.348211
vt 0.298100 0.030875
vt 0.302769 0.033719
vt 0.254947 0.777714
vt 0.332005 0.820714
vt 0.354340 0.139167
vt 0.291249 0.133828
vt 0.304178 0.028166
vt 0.291643 0.026803
vt 0.288390 0.000000
vt 0.287241 0.093195
vt 0.342698 0.081594
vt 0.347921 0.078837
vt 0.331965 0.085502
vt 0.301696 0.033602
vt 0.202055 0.721624
vt 0.195431 0.736117
vt 0.178530 0.717625
vt 0.178530 0.741683
vt 0.254947 0.175156
vt 0.589557 0.628579
vt 0.515831 0.664052
vt 0.513004 0.626106
vt 0.369398 0.218633
vt 0.303138 0.220231
vt 0.347252 0.182814
vt 0.325254 0.181637
vt 0.325542 0.172305
vt 0.347368 0.173086
vt 0.368914 0.218867
vt 0.365858 0.154494
vt 0.683492 0.757127
vt 0.658047 0.795695
vt 0.629215 0.799175
vt 0.701527 0.792178
vt 0.499876 0.248163
vt 0.475785 0.249006
vt 0.520665 0.512099
vt 0.511198 0.437353
vt 0.523549 0.429377
vt 0.570134 0.487676
vt 0.292741 0.261237
vt 0.293057 0.261948
vt 0.291959 0.274034
vt 0.291757 0.274867
vt 0.520512 0.548470
vt 0.599295 0.535542
vt 0.534289 0.588366
vt 0.518386 0.580515
vt 0.642834 0.174870
vt 0.583961 0.130285
vt 0.663414 0.178245
vt 0.445954 0.247104
vt 0.369730 0.283381
vt 0.461248 0.319782
vt 0.442891 0.330250
vt 0.940664 0.954256
vt 0.950226 0.956974
vt 0.932055 0.973139
vt 0.918738 0.966907
vt 0.547388 0.089318
vt 0.515784 0.023384
vt 0.511198 0.000000
vt 0.584043 0.072048
vt 0.955584 0.852542
vt 0.904840 0.848314
vt 0.292393 0.317853
vt 0.295456 0.355467
vt 0.282701 0.354316
vt 0.771691 0.548520
vt 0.763496 0.440394
vt 0.804903 0.429377
vt 0.871184 0.489395
vt 0.689783 0.131983
vt 0.709134 0.120018
vt 0.726584 0.197823
vt 0.684133 0.179761
vt 0.124563 0.333880
vt 0.150899 0.315085
vt 0.249322 0.303136
vt 0.254947 0.329060
vt 0.197514 0.385849
vt 0.043436 0.270926
vt 0.834500 0.180710
vt 0.848679 0.170341
vt 0.885277 0.186832
vt 0.852600 0.215450
vt 0.701527 0.505408
vt 0.724861 0.439683
vt 0.056532 0.389149
vt 0.025349 0.392022
vt 0.058773 0.339210
vt 0.051057 0.325933
vt 0.208528 0.576221
vt 0.186016 0.559578
vt 0.189808 0.554603
vt 0.214623 0.571673
vt 0.101811 0.411216
vt 0.918823 0.101641
vt 0.960730 0.134156
vt 0.960730 0.239121
vt 0.890042 0.104727
vt 0.413405 0.727974
vt 0.413237 0.737229
vt 0.388415 0.776584
vt 0.226084 0.266836
vt 0.957524 0.512580
vt 0.934937 0.000000
vt 0.950019 0.003393
vt 0.954525 0.018607
vt 0.018945 0.802495
vt 0.062100 0.822137
vt 0.061307 0.825609
vt -0.000000 0.825609
vt 0.005940 0.811167
vt 0.239545 0.629739
vt 0.200493 0.651374
vt 0.199471 0.650203
vt 0.223904 0.608017
vt 0.237445 0.618322
vt 0.038159 0.479193
vt 0.013158 0.475496
vt 0.406963 0.641097
vt 0.434590 0.666715
vt 0.717188 0.984426
vt 0.716699 0.947046
vt 0.037473 0.480343
vt 0.038336 0.482065
vt 0.032540 0.485111
vt 0.032283 0.483004
vt 0.701527 0.879322
vt 0.732872 0.863161
vt 0.785397 0.264993
vt 0.770525 0.173664
vt 0.808464 0.151390
vt 0.834499 0.236004
vt 0.000988 0.707635
vt 0.010442 0.643509
vt 0.046333 0.645840
vt 0.056538 0.714488
vt 0.726584 0.050716
vt 0.770235 0.061199
vt 0.736883 0.040442
vt 0.802292 0.019047
vt 0.817223 0.024763
vt 0.772953 0.049165
vt 0.473162 0.494996
vt 0.470648 0.547381
vt 0.458992 0.551137
vt 0.443589 0.479714
vt 0.379099 0.535339
vt 0.371805 0.485319
vt 0.409102 0.484841
vt 0.417226 0.536653
vt 0.178530 0.664442
vt 0.179232 0.660319
vt 0.249600 0.664442
vt 0.005060 0.480343
vt 0.000000 0.476141
vt 0.919004 0.000459
vt 0.178530 0.717625
vt 0.179616 0.690810
vt 0.187893 0.690127
vt 0.193745 0.717625
vt 0.245168 0.615390
vt 0.196054 0.611226
vt 0.221243 0.482845
vt 0.200675 0.521289
vt 0.191386 0.519479
vt 0.204489 0.480343
vt 0.202873 0.722912
vt 0.224975 0.691844
vt 0.233447 0.693169
vt 0.224691 0.718993
vt 0.202501 0.580679
vt 0.181642 0.561241
vt 0.182967 0.553254
vt 0.241804 0.664442
vt 0.249600 0.665324
vt 0.187592 0.664442
vt 0.229986 0.734962
vt 0.223308 0.740309
vt 0.012111 0.783738
vt 0.019321 0.785675
vt 0.249600 0.748531
vt 0.027758 0.763368
vt 0.372720 0.458549
vt 0.385260 0.458990
vt 0.037276 0.525784
vt 0.062678 0.498383
vt 0.377737 0.547600
vt 0.424412 0.546400
vt 0.715843 0.731655
vt 0.747037 0.733368
vt 0.455171 0.592516
vt 0.443589 0.583871
vt 0.449558 0.573970
vt 0.459340 0.580680
vt 0.463320 0.723066
vt 0.476982 0.702482
vt 0.488320 0.704743
vt 0.497360 0.729640
vt 0.820699 -0.000000
vt 0.834499 0.004294
vt 0.493723 0.798364
vt 0.497360 0.812449
vt 0.466692 0.806497
vt 0.469500 0.795869
vt 0.459276 0.458549
vt 0.465070 0.459220
vt 0.443589 0.788466
vt 0.444726 0.786911
vt 0.441673 0.509309
vt 0.443589 0.510220
vt 0.677721 0.103559
vt 0.285628 0.423536
vt 0.280286 0.425927
vt 0.955584 0.731655
vt 0.877321 0.771925
vt 0.287394 0.310571
vt 0.358467 0.299939
vt 0.286557 0.428957
vt 0.271437 0.458549
vt 0.273459 0.430844
vt 0.276130 0.352962
vt 0.337419 0.365018
vt 0.343675 0.367286
vt 0.326572 0.359732
vt 0.284297 0.423374
vt 0.492456 0.558576
vt 0.497109 0.582642
vt 0.478135 0.565618
vt 0.473162 0.582642
vt 0.254947 0.267817
vt 0.518330 0.588292
vt 0.349187 0.255674
vt 0.349817 0.265487
vt 0.327746 0.267349
vt 0.327018 0.257934
vt 0.369014 0.218474
vt 0.369507 0.283971
vt -0.000000 0.716838
vt 0.070615 0.749120
vt 0.045052 0.756782
vt -0.000000 0.763368
s 0
usemtl Material
f 89/1/1 88/2/1 19/3/1 20/4/1
f 100/5/2 92/6/2 14/7/2 98/8/2
f 106/9/3 107/10/3 117/11/3 116/12/3
f 96/13/4 107/14/4 108/15/4 3/16/4
f 10/17/5 3/18/5 6/19/5 11/20/5
f 4/21/6 10/17/6 11/20/6 7/22/6
f 5/23/7 12/24/7 97/25/7 2/26/7
f 2/26/8 97/25/8 10/27/8 4/28/8
f 99/29/9 98/30/9 14/31/9 16/32/9
f 92/33/10 94/34/10 16/35/10 14/36/10
f 94/37/11 101/38/11 99/29/11 16/32/11
f 1/39/12 93/40/12 102/41/12
f 18/42/13 22/43/13 27/44/13 25/45/13
f 88/46/14 90/47/14 18/48/14 19/49/14
f 90/47/15 91/50/15 17/51/15 18/48/15
f 23/52/16 22/53/16 34/54/16 121/55/16 120/56/16
f 20/57/17 19/58/17 23/52/17 24/59/17
f 18/42/18 17/60/18 21/61/18 22/43/18
f 26/62/19 25/63/19 27/64/19 28/65/19
f 19/66/20 18/42/20 25/45/20 26/67/20
f 23/52/21 28/68/21 32/69/21 30/70/21
f 23/52/22 19/58/22 26/71/22 28/68/22
f 63/72/23 62/73/23 66/74/23 65/75/23
f 22/53/24 23/52/24 30/70/24 29/76/24
f 27/64/25 22/77/25 29/78/25 31/79/25
f 28/65/26 27/64/26 31/79/26 32/80/26
f 35/81/27 119/82/27 118/83/27 42/84/27 43/85/27
f 24/59/28 23/52/28 120/56/28 119/86/28 35/87/28
f 22/43/29 21/61/29 33/88/29 34/89/29
f 31/79/30 29/78/30 36/90/30 58/91/30 57/92/30
f 56/93/31 58/94/31 36/95/31 52/96/31 54/97/31
f 37/98/32 61/99/32 60/100/32 55/101/32 53/102/32
f 29/76/33 30/70/33 37/103/33 36/104/33
f 43/85/34 42/84/34 46/105/34 47/106/34
f 34/107/35 33/108/35 40/109/35 41/110/35
f 51/111/36 49/112/36 48/113/36 50/114/36
f 41/110/37 40/109/37 44/115/37 45/116/37
f 40/117/38 43/118/38 47/119/38 44/120/38
f 42/121/39 41/122/39 45/123/39 46/124/39
f 44/120/40 47/119/40 87/125/40 80/126/40
f 81/127/41 86/128/41 75/129/41 72/130/41
f 84/131/42 82/132/42 73/133/42 74/134/42
f 86/135/43 84/136/43 74/137/43 75/138/43
f 52/139/44 53/140/44 55/141/44 54/142/44
f 36/143/45 37/144/45 53/140/45 52/139/45
f 30/70/46 32/69/46 59/145/46 61/146/46 37/103/46
f 32/80/47 31/79/47 57/92/47 59/147/47
f 57/148/48 58/149/48 68/150/48 70/151/48
f 59/152/49 60/100/49 61/99/49
f 60/100/50 59/152/50 62/73/50 63/72/50
f 60/153/51 56/154/51 54/155/51 55/156/51
f 59/157/52 57/158/52 38/159/52 62/160/52
f 57/161/53 56/162/53 39/163/53 38/164/53
f 56/154/54 60/153/54 63/165/54 39/166/54
f 64/167/55 65/75/55 66/74/55 67/168/55
f 38/164/56 39/163/56 64/167/56 67/168/56
f 39/166/57 63/165/57 65/169/57 64/170/57
f 62/160/58 38/159/58 67/168/58 66/74/58
f 70/151/59 68/150/59 71/171/59
f 56/162/60 57/161/60 70/172/60 69/173/60
f 58/94/61 56/93/61 69/174/61 68/175/61
f 69/173/62 70/172/62 71/176/62
f 68/175/63 69/174/63 71/177/63
f 75/138/64 74/137/64 78/178/64 79/179/64
f 46/124/65 45/123/65 83/180/65 85/181/65
f 47/106/66 46/105/66 85/182/66 87/183/66
f 45/116/67 44/115/67 80/184/67 83/185/67
f 79/186/68 78/187/68 77/188/68 76/189/68
f 73/190/69 72/191/69 76/192/69 77/193/69
f 72/130/70 75/129/70 79/194/70 76/195/70
f 74/134/71 73/133/71 77/188/71 78/187/71
f 81/196/72 82/197/72 83/198/72 80/199/72
f 85/181/73 83/180/73 50/114/73 48/113/73
f 84/136/74 86/135/74 87/183/74 85/182/74
f 86/128/75 81/127/75 80/126/75 87/125/75
f 82/197/76 81/196/76 72/191/76 73/190/76
f 82/132/77 84/131/77 49/112/77 51/111/77
f 83/198/78 82/197/78 51/200/78 50/201/78
f 84/136/79 85/182/79 48/202/79 49/203/79
f 4/21/80 7/22/80 91/50/80 90/47/80
f 2/204/81 4/21/81 90/47/81 88/46/81
f 5/23/82 2/26/82 88/2/82 89/1/82
f 93/40/83 13/205/83 104/206/83 102/41/83
f 10/207/84 97/208/84 101/38/84 94/37/84
f 3/18/85 10/17/85 94/34/85 92/33/85
f 96/13/86 3/16/86 92/6/86 100/5/86
f 1/39/87 9/209/87 97/25/87 96/210/87
f 15/211/88 13/205/88 98/212/88 99/213/88
f 93/40/89 1/39/89 96/210/89 100/214/89
f 95/215/90 15/211/90 99/213/90 101/216/90
f 13/205/91 93/40/91 100/214/91 98/212/91
f 9/209/92 95/215/92 101/216/92 97/25/92
f 103/217/93 102/41/93 104/206/93 105/218/93
f 9/209/94 1/39/94 102/41/94 103/217/94
f 95/215/95 9/209/95 103/217/95
f 15/211/96 95/215/96 103/217/96 105/218/96
f 13/205/97 15/211/97 105/218/97 104/206/97
f 106/219/98 108/220/98 109/221/98
f 108/220/99 107/222/99 109/221/99
f 107/10/100 106/9/100 109/223/100
f 3/16/101 108/15/101 6/224/101
f 6/224/102 108/15/102 106/225/102 8/226/102
f 97/25/103 107/10/103 96/210/103
f 106/9/104 12/227/104 8/228/104
f 110/229/105 112/230/105 113/231/105 111/232/105
f 12/227/3 106/9/3 116/12/3 114/233/3
f 97/25/106 12/24/106 114/233/106 115/234/106
f 107/10/107 97/25/107 115/234/107 117/11/107
f 110/229/108 111/232/108 115/234/108 114/233/108
f 113/231/109 112/230/109 116/12/109 117/11/109
f 111/232/110 113/231/110 117/11/110 115/234/110
f 112/230/111 110/229/111 114/233/111 116/12/111
f 118/235/112 121/236/112 34/237/112 41/122/112 42/121/112
f 119/86/113 120/56/113 121/55/113
f 121/236/114 118/235/114 119/238/114
f 89/1/115 20/4/115 133/239/115 195/240/115
f 205/241/116 203/242/116 129/243/116 197/244/116
f 211/245/3 220/246/3 221/247/3 212/248/3
f 201/249/117 124/250/117 213/251/117 212/252/117
f 127/253/118 11/20/118 6/19/118 124/254/118
f 125/255/119 7/22/119 11/20/119 127/253/119
f 5/23/120 123/256/120 202/257/120 12/24/120
f 123/256/121 125/258/121 127/259/121 202/257/121
f 204/260/122 131/261/122 129/262/122 203/263/122
f 197/264/123 129/265/123 131/266/123 199/267/123
f 199/268/124 131/261/124 204/260/124 206/269/124
f 122/270/125 207/271/125 198/272/125
f 132/273/126 136/274/126 138/275/126 134/276/126
f 195/277/127 133/278/127 132/279/127 196/280/127
f 196/280/128 132/279/128 17/51/128 91/50/128
f 135/281/129 224/282/129 225/283/129 144/284/129 134/285/129
f 20/57/130 24/59/130 135/281/130 133/286/130
f 132/273/131 134/276/131 21/61/131 17/60/131
f 137/287/132 139/288/132 138/289/132 136/290/132
f 133/291/133 137/292/133 136/274/133 132/273/133
f 135/281/134 141/293/134 143/294/134 139/295/134
f 135/281/135 139/295/135 137/296/135 133/286/135
f 170/297/136 172/298/136 173/299/136 169/300/136
f 134/285/137 140/301/137 141/293/137 135/281/137
f 138/289/138 142/302/138 140/303/138 134/304/138
f 139/288/139 143/305/139 142/302/139 138/289/139
f 35/81/140 43/85/140 150/306/140 222/307/140 223/308/140
f 24/59/141 35/87/141 223/309/141 224/282/141 135/281/141
f 134/276/142 144/310/142 33/88/142 21/61/142
f 142/302/143 164/311/143 165/312/143 145/313/143 140/303/143
f 163/314/144 161/315/144 159/316/144 145/317/144 165/318/144
f 146/319/145 160/320/145 162/321/145 167/322/145 168/323/145
f 140/301/146 145/324/146 146/325/146 141/293/146
f 43/85/147 154/326/147 153/327/147 150/306/147
f 144/328/148 149/329/148 40/109/148 33/108/148
f 158/330/149 157/331/149 155/332/149 156/333/149
f 149/329/150 152/334/150 151/335/150 40/109/150
f 40/336/151 151/337/151 154/338/151 43/339/151
f 150/340/152 153/341/152 152/342/152 149/343/152
f 151/337/153 187/344/153 194/345/153 154/338/153
f 188/346/154 179/347/154 182/348/154 193/349/154
f 191/350/155 181/351/155 180/352/155 189/353/155
f 193/354/156 182/355/156 181/356/156 191/357/156
f 159/358/157 161/359/157 162/321/157 160/320/157
f 145/360/158 159/358/158 160/320/158 146/319/158
f 141/293/159 146/325/159 168/361/159 166/362/159 143/294/159
f 143/305/160 166/363/160 164/311/160 142/302/160
f 164/364/161 177/365/161 175/366/161 165/367/161
f 166/368/162 168/323/162 167/322/162
f 167/322/163 170/297/163 169/300/163 166/368/163
f 167/322/164 162/321/164 161/359/164 163/369/164
f 166/370/165 169/371/165 147/372/165 164/373/165
f 164/374/166 147/375/166 148/376/166 163/377/166
f 163/369/167 148/378/167 170/297/167 167/322/167
f 171/379/168 174/380/168 173/299/168 172/298/168
f 147/375/169 174/381/169 171/382/169 148/376/169
f 148/378/170 171/379/170 172/298/170 170/297/170
f 169/371/171 173/299/171 174/380/171 147/372/171
f 177/365/172 178/383/172 175/366/172
f 163/377/173 176/384/173 177/385/173 164/374/173
f 165/318/174 175/386/174 176/387/174 163/314/174
f 176/384/175 178/388/175 177/385/175
f 175/386/176 178/389/176 176/387/176
f 182/355/177 186/390/177 185/391/177 181/356/177
f 153/341/178 192/392/178 190/393/178 152/342/178
f 154/326/179 194/394/179 192/395/179 153/327/179
f 152/334/180 190/396/180 187/397/180 151/335/180
f 186/398/181 183/399/181 184/400/181 185/401/181
f 180/402/182 184/403/182 183/404/182 179/405/182
f 179/347/183 183/406/183 186/407/183 182/348/183
f 181/351/184 185/401/184 184/400/184 180/352/184
f 188/408/185 187/409/185 190/410/185 189/411/185
f 192/392/186 155/332/186 157/331/186 190/393/186
f 191/357/187 192/395/187 194/394/187 193/354/187
f 193/349/188 194/345/188 187/344/188 188/346/188
f 189/411/189 180/402/189 179/405/189 188/408/189
f 189/353/190 158/412/190 156/413/190 191/350/190
f 190/410/191 157/414/191 158/415/191 189/411/191
f 191/357/192 156/416/192 155/417/192 192/395/192
f 125/255/193 196/280/193 91/50/193 7/22/193
f 123/418/194 195/277/194 196/280/194 125/255/194
f 5/23/195 89/1/195 195/240/195 123/256/195
f 198/272/196 207/271/196 209/419/196 128/420/196
f 127/421/197 199/268/197 206/269/197 202/422/197
f 124/254/198 197/264/198 199/267/198 127/253/198
f 201/249/199 205/241/199 197/244/199 124/250/199
f 122/270/200 201/423/200 202/257/200 126/424/200
f 130/425/201 204/426/201 203/427/201 128/420/201
f 198/272/202 205/428/202 201/423/202 122/270/202
f 200/429/203 206/430/203 204/426/203 130/425/203
f 128/420/204 203/427/204 205/428/204 198/272/204
f 126/424/205 202/257/205 206/430/205 200/429/205
f 208/431/206 210/432/206 209/419/206 207/271/206
f 126/424/207 208/431/207 207/271/207 122/270/207
f 200/429/208 208/431/208 126/424/208
f 130/425/209 210/432/209 208/431/209 200/429/209
f 128/420/210 209/419/210 210/432/210 130/425/210
f 211/433/211 214/434/211 213/435/211
f 213/435/212 214/434/212 212/436/212
f 212/248/213 214/437/213 211/245/213
f 124/250/214 6/224/214 213/251/214
f 6/224/215 8/226/215 211/438/215 213/251/215
f 202/257/216 201/423/216 212/248/216
f 211/245/217 8/228/217 12/227/217
f 215/439/218 216/440/218 218/441/218 217/442/218
f 12/227/3 114/443/3 220/246/3 211/245/3
f 202/257/219 219/444/219 114/443/219 12/24/219
f 212/248/3 221/247/3 219/444/3 202/257/3
f 215/439/220 114/443/220 219/444/220 216/440/220
f 218/441/221 221/247/221 220/246/221 217/442/221
f 216/440/222 219/444/222 221/247/222 218/441/222
f 217/442/223 220/246/223 114/443/223 215/439/223
f 222/445/224 150/340/224 149/343/224 144/446/224 225/447/224
f 223/309/225 225/283/225 224/282/225
f 225/447/226 223/448/226 222/445/226
