# Blender 4.2.0
# www.blender.org
mtllib earthmask.mtl
o Cube.003
v 0.741836 0.028653 0.696363
v 0.607881 -0.008450 1.135810
v 0.788749 0.309089 1.052279
v 0.747855 0.431718 0.646006
v 0.627013 -0.188332 1.127568
v 0.735817 -0.277811 0.746721
v 0.551523 -0.357007 1.166626
v 0.353940 -0.093054 1.431530
v -0.000000 -0.177657 1.727251
v -0.000000 0.137682 1.729235
v 0.394374 0.223386 1.390757
v 0.275762 -0.444815 1.328072
v 0.313507 -0.282374 1.380531
v -0.000000 -0.411763 1.633494
v -0.000000 -0.532623 1.489517
v -0.639247 -0.187755 1.127568
v -0.557640 -0.356718 1.166626
v -0.748051 -0.277234 0.746721
v -0.360057 -0.092766 1.431530
v -0.400491 0.223674 1.390757
v -0.278820 -0.444671 1.328072
v -0.319624 -0.282085 1.380531
v 0.834371 0.044983 0.913401
v 0.874805 0.376067 0.752964
v 0.892755 0.346686 1.260282
v 0.720115 0.003611 1.165711
v 0.685133 -0.197922 1.133875
v 0.603526 -0.412428 1.264311
v 0.748051 -0.286101 1.073837
v 0.405943 -0.070616 1.556795
v 0.446377 0.260694 1.589487
v -0.000000 0.174701 1.918693
v -0.000000 -0.152449 1.890539
v -0.834371 0.044983 0.913400
v -0.720115 0.003611 1.165711
v -0.892755 0.346686 1.260282
v -0.874805 0.376067 0.752964
v -0.685134 -0.197922 1.133875
v -0.748051 -0.286100 1.073837
v -0.603526 -0.412428 1.264311
v -0.405944 -0.070616 1.556795
v -0.446378 0.260694 1.589487
v 0.238017 -0.761800 1.163853
v 0.476033 -0.669687 1.093925
v 0.476033 -0.674120 1.257483
v 0.238017 -0.766233 1.327411
v 0.816323 0.028873 0.277832
v 0.698364 0.566839 -0.078513
v 0.773310 0.497220 0.062101
v 0.856854 0.037877 0.561090
v 0.420376 0.333812 1.490122
v -0.000000 0.247964 1.823964
v -0.238017 -0.761800 1.163853
v -0.000000 -0.853913 1.233781
v -0.000000 -0.858347 1.397339
v -0.238017 -0.766233 1.327411
v -0.423434 0.333956 1.490122
v -0.846869 0.419948 1.156280
v 0.663385 -0.497618 0.903450
v 0.804851 -0.325549 0.712976
v 0.765082 -0.329694 0.876534
v 0.666444 -0.501907 1.067008
v 0.811330 0.447363 0.699485
v 0.840752 0.419660 1.156280
v -0.666444 -0.497473 0.903450
v -0.476033 -0.669687 1.093925
v -0.476033 -0.674120 1.257483
v -0.666444 -0.501907 1.067008
v -0.817447 0.447652 0.699485
v -0.658595 0.567128 -0.078513
v -0.727424 0.497220 0.062101
v -0.822440 0.029162 0.277833
v -0.856854 0.037877 0.561090
v -0.754070 0.029229 0.696363
v -0.765082 -0.320827 0.549418
v -0.788025 0.020446 0.194575
v -0.760089 0.432295 0.646006
v -0.589765 0.550094 -0.043812
v -0.800983 0.309666 1.052279
v -0.620115 -0.007874 1.135810
v -0.810968 -0.325261 0.712976
v -0.765082 -0.329694 0.876534
v -0.666444 -0.493040 0.739892
v -0.476033 -0.665253 0.930366
v 0.623418 0.549517 -0.043812
v 0.476033 -0.665253 0.930366
v 0.660327 -0.493329 0.739892
v 0.752849 -0.321404 0.549418
v -0.238017 -0.757367 1.000295
v -0.000000 -0.849480 1.070223
v 0.775792 0.019870 0.194575
v 0.238017 -0.757367 1.000295
v -0.301763 -0.503384 1.425757
v -0.000000 -0.567048 1.710514
v 0.301763 -0.503384 1.425757
v 0.550598 -0.257795 1.079258
v 0.274837 -0.263227 1.240704
v -0.558565 -0.257507 1.079258
v -0.748976 -0.125224 0.659353
v -0.000925 -0.331421 1.402150
v -0.279745 -0.263083 1.240704
v -0.667369 -0.341030 0.652524
v -0.476958 -0.473313 0.842999
v -0.000925 -0.417348 0.982855
v -0.766007 -0.168817 0.462050
v 0.475108 -0.473313 0.842999
v 0.659402 -0.341318 0.652524
v 0.751924 -0.169393 0.462050
v -0.238942 -0.483050 0.912927
v 0.734892 -0.125800 0.659353
v 0.237092 -0.483050 0.912927
v 0.492487 -0.755457 1.185171
v 0.506911 -0.595734 1.094805
v 0.448354 -0.738647 1.243941
v 0.449752 -0.565225 1.167088
v 0.375507 -0.752358 1.240036
v 0.355312 -0.565225 1.155098
v 0.346794 -0.782880 1.177362
v 0.318031 -0.595734 1.070824
v 0.390926 -0.799690 1.118592
v 0.375189 -0.626243 0.998541
v 0.463773 -0.785979 1.122497
v 0.469629 -0.626243 1.010532
v 0.528082 -0.960137 1.234235
v 0.495600 -0.954827 1.283196
v 0.442627 -0.981016 1.286677
v 0.422136 -1.012514 1.241198
v 0.454617 -1.017824 1.192237
v 0.507591 -0.991635 1.188755
v 0.531882 -1.111474 1.283482
v 0.514097 -1.100000 1.311644
v 0.484389 -1.118193 1.321800
v 0.472466 -1.147860 1.303794
v 0.490251 -1.159334 1.275632
v 0.519959 -1.141141 1.265476
v 0.611863 -1.248489 1.398530
v 0.610532 -1.250303 1.409564
v 0.603095 -1.254857 1.412106
v 0.612931 -1.281534 1.423963
v 0.604562 -1.265156 1.400548
v 0.611999 -1.260602 1.398006
v 0.159831 -0.765978 1.307062
v 0.164467 -0.643284 1.355622
v 0.102784 -0.765092 1.206576
v 0.089927 -0.635602 1.226347
v 0.158951 -0.741269 1.103068
v 0.160336 -0.591812 1.093441
v 0.272164 -0.718331 1.100046
v 0.305285 -0.555703 1.089810
v 0.329212 -0.719217 1.200532
v 0.379825 -0.563385 1.219085
v 0.273045 -0.743041 1.304040
v 0.309416 -0.607175 1.351991
v 0.204556 -0.915298 1.362030
v 0.159874 -0.921097 1.285912
v 0.202914 -0.915548 1.209470
v 0.290636 -0.904200 1.209145
v 0.335318 -0.898400 1.285263
v 0.292278 -0.903949 1.361705
v 0.234848 -1.022355 1.362144
v 0.203421 -1.021414 1.318467
v 0.219581 -1.023911 1.271527
v 0.267168 -1.027350 1.268265
v 0.298594 -1.028291 1.311942
v 0.282434 -1.025793 1.358882
v 0.130118 -1.181992 1.436056
v 0.118382 -1.187394 1.428191
v 0.122427 -1.188020 1.416440
v 0.118445 -1.212043 1.428237
v 0.142207 -1.189116 1.426558
v 0.138162 -1.188491 1.438309
v -0.116987 -0.798525 1.168631
v -0.085286 -0.692241 1.135293
v -0.164554 -0.797142 1.273361
v -0.146058 -0.684777 1.270889
v -0.279732 -0.772363 1.288010
v -0.293440 -0.641471 1.290945
v -0.347342 -0.748967 1.197930
v -0.380049 -0.605630 1.175404
v -0.299775 -0.750350 1.093200
v -0.319277 -0.613094 1.039808
v -0.184597 -0.775129 1.078550
v -0.171895 -0.656400 1.019752
v -0.093422 -0.928982 1.101953
v -0.128391 -0.933632 1.182541
v -0.213915 -0.925815 1.192223
v -0.264470 -0.913348 1.121316
v -0.229501 -0.908697 1.040728
v -0.143977 -0.916514 1.031046
v -0.106796 -1.021681 1.078491
v -0.123720 -1.020786 1.129372
v -0.170187 -1.021445 1.143688
v -0.199731 -1.022999 1.107122
v -0.182807 -1.023894 1.056242
v -0.136339 -1.023235 1.041926
v 0.017223 -1.165911 1.121804
v 0.017829 -1.170796 1.135941
v 0.006196 -1.170961 1.139524
v 0.018696 -1.192340 1.136119
v 0.003037 -1.171574 1.117633
v 0.014670 -1.171409 1.114049
v -0.491025 -0.735473 1.078905
v -0.511171 -0.607002 1.154959
v -0.441945 -0.717993 1.026611
v -0.447827 -0.577271 1.090414
v -0.370019 -0.729159 1.038400
v -0.354960 -0.577271 1.111348
v -0.347172 -0.757804 1.102482
v -0.325435 -0.607002 1.196828
v -0.396252 -0.775284 1.154776
v -0.388778 -0.636733 1.261373
v -0.468179 -0.764118 1.142987
v -0.481646 -0.636733 1.240438
v -0.524659 -0.904036 1.039426
v -0.488133 -0.896765 0.995884
v -0.435483 -0.918092 0.999300
v -0.419358 -0.946690 1.046258
v -0.455883 -0.953961 1.089800
v -0.508534 -0.932634 1.086384
v -0.526034 -1.027824 1.000180
v -0.505819 -1.016615 0.974602
v -0.475634 -1.031065 0.968903
v -0.465666 -1.056724 0.988783
v -0.485882 -1.067932 1.014361
v -0.516066 -1.053482 1.020060
v -0.597373 -1.136650 0.889938
v -0.595131 -1.137566 0.879679
v -0.587574 -1.141184 0.878252
v -0.596659 -1.162896 0.867389
v -0.590140 -1.150413 0.889632
v -0.597696 -1.146795 0.891059
v -0.713759 -0.559118 1.168591
v -0.616628 -0.426988 1.147228
v -0.788981 -0.564364 1.073851
v -0.710113 -0.426897 1.021784
v -0.756250 -0.624288 0.974855
v -0.660948 -0.490439 0.887543
v -0.648299 -0.678966 0.970599
v -0.518299 -0.554072 0.878745
v -0.573077 -0.673720 1.065339
v -0.424814 -0.554164 1.004188
v -0.605807 -0.613796 1.164335
v -0.473978 -0.490621 1.138430
v -0.757870 -0.703540 1.300262
v -0.820263 -0.712561 1.231778
v -0.802604 -0.769042 1.165173
v -0.722552 -0.816504 1.167053
v -0.660159 -0.807484 1.235538
v -0.677818 -0.751002 1.302143
v -0.802098 -0.823005 1.359711
v -0.839935 -0.820394 1.317621
v -0.841440 -0.853793 1.278885
v -0.805108 -0.889802 1.282239
v -0.767271 -0.892412 1.324329
v -0.765766 -0.859014 1.363065
v -0.971542 -0.870183 1.499700
v -0.987009 -0.870883 1.494498
v -0.987386 -0.879244 1.484801
v -1.002921 -0.893821 1.507560
v -0.968819 -0.888912 1.496178
v -0.968442 -0.880551 1.505875
v 0.064576 -0.818881 1.283485
v 0.164180 -0.682278 1.303963
v -0.046917 -0.782005 1.305560
v 0.023188 -0.626640 1.333947
v -0.127425 -0.730691 1.213139
v -0.075120 -0.544293 1.217857
v -0.096439 -0.716254 1.098643
v -0.032437 -0.517583 1.071782
v 0.015054 -0.753130 1.076567
v 0.108555 -0.573220 1.041798
v 0.095562 -0.804444 1.168988
v 0.206863 -0.655568 1.157888
v 0.067214 -1.023891 1.248169
v -0.020224 -1.003728 1.265968
v -0.084302 -0.980850 1.195360
v -0.060940 -0.978137 1.106954
v 0.026498 -0.998300 1.089155
v 0.090575 -1.021178 1.159762
v 0.029812 -1.159536 1.210623
v -0.019857 -1.141966 1.226982
v -0.063861 -1.133855 1.193668
v -0.058194 -1.143314 1.143995
v -0.008525 -1.160883 1.127636
v 0.035479 -1.168994 1.160950
v 0.014572 -1.363276 1.333071
v 0.002018 -1.366181 1.341828
v -0.008998 -1.364151 1.333488
v -0.008072 -1.396524 1.340203
v 0.004855 -1.370917 1.316957
v 0.015870 -1.372948 1.325297
v 0.648603 -0.657565 0.858558
v 0.545722 -0.471749 0.853747
v 0.751536 -0.635023 0.918342
v 0.675268 -0.432340 0.931970
v 0.756420 -0.651077 1.037912
v 0.675268 -0.432340 1.088417
v 0.658370 -0.689674 1.097697
v 0.545722 -0.471749 1.166640
v 0.555437 -0.712217 1.037912
v 0.416175 -0.511157 1.088417
v 0.550553 -0.696162 0.918342
v 0.416175 -0.511157 0.931970
v 0.667405 -0.898648 0.790371
v 0.750217 -0.890208 0.833192
v 0.759545 -0.920873 0.918833
v 0.686062 -0.959978 0.961654
v 0.603251 -0.968418 0.918833
v 0.593922 -0.937753 0.833192
v 0.705617 -1.076263 0.773983
v 0.755115 -1.061422 0.797148
v 0.772095 -1.082449 0.843479
v 0.739578 -1.118318 0.866643
v 0.690081 -1.133159 0.843479
v 0.673100 -1.112132 0.797148
v 0.833500 -1.234622 0.619776
v 0.850264 -1.236322 0.619663
v 0.854515 -1.241586 0.631262
v 0.864341 -1.272814 0.612771
v 0.833983 -1.254281 0.631262
v 0.829732 -1.249017 0.619663
vn -0.9689 0.2399 -0.0613
vn -0.8880 0.3212 -0.3291
vn -0.6458 -0.0055 -0.7635
vn 0.6134 -0.5036 0.6084
vn 0.8771 0.3469 -0.3321
vn 0.6396 -0.0063 -0.7687
vn -0.6073 -0.5097 0.6094
vn 0.9519 -0.2917 0.0935
vn 0.7584 0.1029 0.6437
vn 0.6236 -0.1098 0.7740
vn -0.9519 -0.2917 0.0935
vn -0.7584 0.1029 0.6437
vn -0.6236 -0.1098 0.7740
vn 0.3543 -0.9348 -0.0253
vn 0.9630 -0.0347 -0.2673
vn 0.2699 0.7858 0.5565
vn -0.3543 -0.9348 -0.0253
vn -0.2305 0.8248 0.5163
vn 0.8583 -0.5064 0.0833
vn 0.7815 0.6239 -0.0015
vn -0.6594 -0.7516 -0.0204
vn -0.7864 0.6145 -0.0633
vn -0.9703 0.0943 -0.2227
vn 0.9974 -0.0009 -0.0727
vn 0.9803 -0.1722 0.0964
vn 0.9689 0.2399 -0.0613
vn 0.9586 -0.0501 -0.2805
vn -0.4665 -0.3044 -0.8305
vn -0.8873 -0.3645 -0.2824
vn -0.9931 -0.1144 0.0266
vn -0.8174 0.5760 -0.0061
vn 0.8504 0.5023 0.1568
vn -0.8645 -0.4909 0.1080
vn -0.7422 -0.6589 -0.1220
vn 0.7039 0.7101 0.0136
vn -0.8205 0.5481 0.1623
vn 0.6635 -0.7477 -0.0261
vn 0.6597 -0.7511 -0.0261
vn 0.6588 -0.7519 -0.0262
vn 0.6645 -0.7468 -0.0261
vn 0.7387 -0.6590 -0.1413
vn -0.2714 0.7833 0.5592
vn 0.5883 0.5678 -0.5757
vn 0.5572 0.6502 -0.5165
vn 0.2255 0.8302 0.5099
vn -0.5556 0.6606 -0.5048
vn -0.5907 0.5710 -0.5701
vn 0.9899 -0.1417 -0.0001
vn 0.8607 -0.4001 -0.3148
vn 0.4299 -0.3539 -0.8306
vn -0.4648 -0.3339 0.8201
vn -0.5668 -0.5322 0.6289
vn -0.6837 -0.3381 0.6467
vn -0.8032 -0.4028 0.4388
vn -0.8443 -0.3326 0.4201
vn -0.9220 -0.3536 0.1577
vn -0.9930 0.0139 -0.1174
vn -0.9780 -0.1895 0.0878
vn -0.8624 -0.0756 0.5005
vn 0.5668 -0.5322 0.6289
vn 0.4648 -0.3339 0.8201
vn 0.6837 -0.3381 0.6467
vn 0.9220 -0.3536 0.1577
vn 0.8443 -0.3326 0.4201
vn 0.8032 -0.4028 0.4388
vn 0.8624 -0.0756 0.5005
vn 0.9780 -0.1895 0.0878
vn 0.9970 -0.0095 -0.0766
vn 0.2624 -0.2310 -0.9369
vn 0.8366 0.3170 0.4469
vn -0.6017 -0.2528 0.7577
vn -0.6548 -0.2997 0.6939
vn -0.7038 -0.1520 0.6939
vn 0.7029 0.1075 -0.7031
vn -0.0952 -0.4965 -0.8628
vn -0.9962 0.0385 0.0775
vn -0.9659 -0.1334 -0.2219
vn -0.3746 0.4881 0.7883
vn -0.1669 0.9172 0.3618
vn 0.0031 1.0000 0.0086
vn 0.0732 -0.4966 -0.8649
vn -0.6464 -0.3832 -0.6598
vn 0.9694 -0.1178 -0.2152
vn 0.6068 -0.2382 0.7583
vn -0.1959 -0.3448 -0.9180
vn -0.8335 0.3114 0.4565
vn -0.7097 0.1114 -0.6956
vn 0.7113 -0.1512 0.6864
vn 0.6614 -0.2984 0.6881
vn 0.1964 -0.3434 -0.9184
vn 0.3827 0.3852 0.8398
vn 0.0674 0.9860 0.1525
vn 0.2518 0.7927 0.5552
vn 0.9960 0.0492 0.0751
vn -0.9888 -0.1358 0.0627
vn -0.9974 -0.0009 -0.0727
vn -0.9586 -0.0501 -0.2805
vn -0.0127 0.8648 0.5020
vn 0.0332 0.9587 0.2826
vn -0.0332 0.9587 0.2825
vn 0.0118 0.8657 0.5004
vn 0.4544 0.5147 0.7270
vn 0.2391 -0.0916 0.9667
vn -0.2447 -0.9694 -0.0200
vn -0.2959 -0.9490 0.1087
vn 0.2941 -0.9501 0.1039
vn 0.2338 -0.9718 -0.0314
vn -0.2057 -0.0938 0.9741
vn -0.4160 0.5050 0.7562
vn -0.2521 0.9480 0.1940
vn 0.2725 0.9383 0.2128
vn 0.1684 0.9154 -0.3656
vn -0.0671 0.9857 0.1545
vn -0.2502 0.7916 0.5575
vn 0.2702 0.7894 -0.5512
vn 0.9220 0.3536 -0.1577
vn 0.8907 0.3461 -0.2948
vn 0.7303 0.6109 -0.3058
vn -0.2723 0.7874 -0.5531
vn 0.1686 0.9174 0.3604
vn -0.0046 1.0000 0.0033
vn -0.1693 0.9151 -0.3660
vn -0.7428 0.5956 -0.3059
vn -0.8995 0.3243 -0.2928
vn -0.9311 0.3310 -0.1535
vn -0.2623 -0.2323 -0.9366
vn -0.3803 0.3825 0.8420
vn 0.6317 -0.3834 -0.6738
vn 0.3768 0.4912 0.7854
vn 0.4701 -0.3977 -0.7879
vn -0.4784 -0.3998 -0.7818
vn 0.8083 0.2330 0.5406
vn -0.1192 0.4013 0.9082
vn -0.9209 0.0752 0.3824
vn -0.7908 -0.3926 -0.4695
vn 0.0454 0.9327 -0.3578
vn 0.1238 -0.5646 -0.8160
vn 0.9175 -0.2527 -0.3071
vn -0.0587 0.1747 0.9829
vn 0.1052 -0.4660 -0.8785
vn 0.0952 -0.2902 -0.9522
vn 0.8102 0.2688 0.5210
vn -0.8636 -0.1526 0.4805
vn 0.8978 0.0508 -0.4376
vn -0.7861 -0.3911 -0.4787
vn 0.8282 0.0148 -0.5602
vn -0.8453 -0.0973 0.5253
vn 0.8405 0.1956 0.5053
vn 0.9231 -0.1053 -0.3699
vn -0.7859 -0.4612 -0.4119
vn 0.0385 0.2273 0.9731
vn 0.9853 -0.0444 0.1647
vn -0.5756 -0.7975 -0.1809
vn -0.0347 0.5298 0.8474
vn 0.1654 -0.6727 -0.7212
vn -0.6644 -0.0567 0.7452
vn 0.7535 0.6215 0.2143
vn -0.8592 -0.1597 0.4861
vn -0.8792 -0.0188 -0.4761
vn -0.0115 -0.0622 -0.9980
vn 0.8451 -0.2094 -0.4918
vn -0.2328 0.9536 0.1909
vn 0.8657 -0.3416 0.3658
vn 0.1068 -0.3625 0.9258
vn -0.7258 -0.4923 -0.4805
vn 0.8957 -0.1253 0.4267
vn 0.8239 0.2700 0.4983
vn -0.8637 -0.0683 0.4994
vn 0.0715 -0.5030 -0.8613
vn -0.0412 0.3335 0.9419
vn 0.8514 -0.2001 -0.4849
vn 0.0837 0.3746 0.9234
vn 0.0036 -0.4638 -0.8859
vn -0.8216 -0.2090 0.5304
vn 0.0270 -0.0094 0.9996
vn 0.7953 -0.3556 -0.4909
vn -0.8153 -0.4173 -0.4015
vn -0.4340 -0.4053 0.8046
vn 0.5578 -0.7592 -0.3355
vn -0.9112 0.2506 -0.3270
vn 0.7818 -0.5476 0.2983
vn -0.1972 -0.5627 -0.8028
vn -0.6232 0.6269 0.4676
vn 0.9008 -0.1395 0.4112
vn 0.1299 -0.0044 0.9915
vn -0.8094 -0.0956 0.5795
vn -0.8817 -0.2689 -0.3876
vn 0.2908 0.9536 0.0778
vn -0.2206 -0.3964 -0.8912
vn 0.6798 -0.3888 -0.6219
vn 0.0149 -0.5374 0.8432
vn -0.1850 -0.1606 -0.9695
vn -0.0680 0.2929 -0.9537
vn 0.9132 -0.0353 0.4061
vn -0.7231 -0.5587 0.4063
vn 0.7818 0.3892 -0.4871
vn -0.8806 -0.2592 -0.3968
vn 0.6975 0.4296 -0.5735
vn -0.7093 -0.5202 0.4758
vn 0.9141 -0.1956 0.3552
vn 0.8024 0.0146 -0.5966
vn -0.8406 -0.4186 -0.3438
vn 0.1355 -0.4541 0.8806
vn 0.8986 -0.4226 -0.1178
vn -0.5663 -0.7896 -0.2365
vn 0.2768 0.3012 0.9125
vn -0.2270 -0.6034 -0.7645
vn -0.5334 -0.6153 0.5804
vn 0.7057 0.6740 0.2185
vn -0.7462 0.2487 -0.6175
vn 0.2043 0.4092 -0.8893
vn 0.9490 0.0562 -0.3104
vn 0.7296 -0.4382 0.5250
vn -0.0793 0.9327 0.3518
vn -0.1947 -0.5998 0.7761
vn -0.9362 -0.2730 0.2213
vn 0.1555 0.1385 -0.9781
vn -0.1863 -0.4858 0.8540
vn -0.1871 -0.2762 0.9427
vn -0.7495 0.2923 -0.5940
vn 0.8815 -0.2151 -0.4203
vn -0.9227 0.0961 0.3734
vn 0.7242 -0.4359 0.5343
vn -0.8635 0.0610 0.5006
vn 0.8714 -0.1544 -0.4656
vn -0.7826 0.2071 -0.5871
vn -0.9507 -0.0930 0.2957
vn 0.7241 -0.5173 0.4561
vn 0.0603 0.2020 -0.9775
vn -0.9633 -0.0560 -0.2625
vn 0.5045 -0.8471 0.1671
vn 0.1133 0.5603 -0.8205
vn -0.2198 -0.7191 0.6592
vn 0.7108 -0.1187 -0.6933
vn -0.6871 0.6883 -0.2329
vn -0.6609 0.5657 0.4931
vn -0.8372 0.3038 -0.4548
vn -0.2372 -0.4049 -0.8830
vn 0.4955 -0.7900 -0.3611
vn 0.3766 0.8830 -0.2800
vn 0.6455 -0.5577 0.5219
vn 0.0971 0.0963 0.9906
vn -0.9648 -0.0508 -0.2579
vn 0.7758 -0.4163 0.4742
vn 0.9218 -0.1236 0.3674
vn -0.6225 0.6257 0.4701
vn -0.3807 -0.6863 -0.6197
vn 0.3248 0.5805 0.7467
vn 0.5060 -0.7847 -0.3580
vn 0.4491 0.5297 0.7196
vn -0.4203 -0.6271 -0.6559
vn -0.6421 0.5328 0.5512
vn 0.2147 0.3564 0.9093
vn 0.3935 -0.8667 -0.3064
vn -0.9741 0.0749 -0.2133
vn -0.3700 0.3170 0.8733
vn 0.0227 -0.9995 0.0215
vn -0.7155 0.5426 -0.4400
vn 0.4705 -0.6772 0.5656
vn -0.6377 -0.5438 -0.5455
vn -0.1230 0.9763 0.1781
vn 0.1154 -0.2289 0.9666
vn -0.6876 0.1781 0.7039
vn -0.9368 0.2702 -0.2222
vn -0.2243 -0.0650 -0.9724
vn 0.4031 0.8721 0.2773
vn 0.5292 -0.4316 -0.7305
vn 0.7953 -0.5918 0.1314
vn -0.7757 -0.1880 0.6024
vn 0.6243 -0.2747 -0.7312
vn 0.7494 0.0057 -0.6621
vn 0.1494 -0.1610 0.9756
vn -0.9532 -0.1414 -0.2673
vn 0.9661 -0.0324 0.2560
vn -0.2127 -0.0599 -0.9753
vn 0.9927 -0.0002 0.1204
vn -0.9752 -0.0933 -0.2005
vn 0.1570 -0.2854 0.9455
vn 0.9213 -0.3275 0.2097
vn -0.2859 -0.1883 -0.9396
vn -0.7072 -0.1471 0.6916
vn 0.5023 -0.5669 0.6530
vn -0.3581 -0.6258 -0.6929
vn -0.5246 0.3470 0.7774
vn 0.4123 -0.5953 -0.6896
vn -0.9813 -0.1895 0.0339
vn 0.4234 0.4443 0.7895
vn 0.4515 0.2278 -0.8627
vn 0.9370 0.3494 0.0037
vn 0.5193 -0.0033 0.8546
vn -0.3637 -0.4510 0.8151
vn -0.2910 0.9567 -0.0000
vn -0.8172 -0.5761 -0.0190
vn -0.4349 -0.2577 -0.8628
vn 0.9976 0.0278 -0.0628
vn -0.8974 -0.4413 0.0060
vn -0.9815 -0.1899 0.0247
vn 0.4278 0.2806 -0.8592
vn 0.5886 -0.3176 0.7434
vn -0.5644 0.1830 -0.8050
vn -0.3741 -0.4473 0.8124
vn -0.6758 0.1576 -0.7200
vn 0.6351 -0.2568 0.7285
vn 0.4123 0.1850 -0.8920
vn -0.5070 -0.0409 -0.8609
vn -0.2963 -0.5430 0.7857
vn 0.9824 0.1035 -0.1553
vn 0.0434 -0.0703 -0.9966
vn -0.0685 -0.8755 0.4783
vn 0.8452 0.5300 -0.0692
vn -0.6987 -0.7123 -0.0672
vn 0.8170 -0.2397 0.5245
vn 0.0897 0.7321 -0.6752
vt 0.355581 0.363762
vt 0.353033 0.250947
vt 0.434773 0.283889
vt 0.453013 0.384724
vt 0.309526 0.249824
vt 0.281756 0.344819
vt 0.266683 0.234292
vt 0.331076 0.168504
vt 0.305658 0.082838
vt 0.382772 0.088942
vt 0.408773 0.186415
vt 0.869986 0.938106
vt 0.864593 0.892773
vt 0.953451 0.906678
vt 0.931100 0.950548
vt 0.034713 0.716120
vt 0.000977 0.734877
vt 0.000977 0.613475
vt 0.739731 0.477354
vt 0.817179 0.450481
vt 0.819438 0.563750
vt 0.739731 0.579355
vt 0.547551 0.169029
vt 0.559545 0.261868
vt 0.520322 0.276789
vt 0.520322 0.156957
vt 0.106031 0.282944
vt 0.045319 0.352195
vt 0.000977 0.234964
vt 0.093714 0.216106
vt 0.143870 0.202895
vt 0.182202 0.149283
vt 0.168098 0.211441
vt 0.080970 0.104838
vt 0.000977 0.130186
vt 0.000977 0.025407
vt 0.078377 0.001399
vt 0.556934 0.706048
vt 0.612204 0.725791
vt 0.605908 0.808185
vt 0.489860 0.761931
vt 0.623922 0.678427
vt 0.622097 0.651166
vt 0.670937 0.646206
vt 0.626113 0.129926
vt 0.690264 0.235344
vt 0.619768 0.233635
vt 0.555293 0.117451
vt 0.054874 0.772940
vt 0.013216 0.803438
vt 0.001231 0.764310
vt 0.042889 0.733812
vt 0.173519 0.425110
vt 0.089813 0.550374
vt 0.089476 0.515600
vt 0.142067 0.363514
vt 0.525076 0.347521
vt 0.590185 0.234014
vt 0.555258 0.353995
vt 0.162695 0.741065
vt 0.096533 0.742441
vt 0.084547 0.703314
vt 0.150709 0.701937
vt 0.525076 0.123944
vt 0.459968 0.013874
vt 0.490818 0.001267
vt 0.235791 0.226374
vt 0.211347 0.292634
vt 0.197180 0.253098
vt 0.220393 0.188927
vt 0.020589 0.524385
vt 0.034928 0.635612
vt 0.020319 0.661919
vt 0.000977 0.539484
vt 0.299141 0.768490
vt 0.228857 0.739688
vt 0.216872 0.700560
vt 0.287155 0.729363
vt 0.468443 0.773486
vt 0.277539 0.721955
vt 0.318563 0.719657
vt 0.417272 0.636175
vt 0.480561 0.667052
vt 0.797680 0.688085
vt 0.868055 0.667825
vt 0.885771 0.712759
vt 0.818265 0.805567
vt 0.704503 0.711039
vt 0.693453 0.884430
vt 0.721200 0.609697
vt 0.786049 0.587920
vt 0.829557 0.584130
vt 0.134848 0.001030
vt 0.143637 0.001936
vt 0.157865 0.170711
vt 0.134848 0.173026
vt 0.510153 0.588110
vt 0.548731 0.603268
vt 0.398274 0.626262
vt 0.583486 0.620426
vt 0.573612 0.814566
vt 0.701349 0.696598
vt 0.693453 0.586356
vt 0.602177 0.588110
vt 0.638843 0.604268
vt 0.360624 0.842566
vt 0.311127 0.807618
vt 0.359031 0.800365
vt 0.240843 0.778816
vt 0.018582 0.332812
vt 0.001232 0.369850
vt 0.466235 0.262381
vt 0.460391 0.373988
vt 0.261589 0.157861
vt 0.246314 0.120250
vt 0.276863 0.195472
vt 0.251188 0.263821
vt 0.228221 0.327665
vt 0.885561 0.557580
vt 0.885561 0.429381
vt 0.918001 0.436312
vt 0.914347 0.567995
vt 0.885561 0.301182
vt 0.921656 0.304630
vt 0.174681 0.780192
vt 0.108518 0.781569
vt 0.459968 0.461027
vt 0.490749 0.474356
vt 0.439182 0.165203
vt 0.412128 0.068026
vt 0.185058 0.441219
vt 0.708644 0.512472
vt 0.708644 0.353816
vt 0.729484 0.356005
vt 0.723043 0.513799
vt 0.066860 0.812068
vt 0.025202 0.842566
vt 0.169850 0.659747
vt 0.105417 0.617464
vt 0.159846 0.609073
vt 0.245006 0.659747
vt 0.085282 0.621188
vt 0.178918 0.667760
vt 0.411069 0.618631
vt 0.324801 0.513712
vt 0.364388 0.504706
vt 0.485181 0.593009
vt 0.690378 0.590110
vt 0.267378 0.084100
vt 0.195771 0.089296
vt 0.190838 0.003802
vt 0.288442 0.047949
vt 0.598166 0.445124
vt 0.613234 0.382772
vt 0.679360 0.372457
vt 0.702904 0.430216
vt 0.940508 0.540401
vt 0.925294 0.650629
vt 0.891151 0.674962
vt 0.919073 0.563616
vt 0.262435 0.633086
vt 0.181367 0.587787
vt 0.216285 0.582234
vt 0.316279 0.629240
vt 0.928706 0.092513
vt 0.913488 0.023280
vt 0.989426 0.003427
vt 0.987326 0.082380
vt 0.933082 0.160391
vt 0.989426 0.165562
vt 0.744586 0.400519
vt 0.814920 0.337212
vt 0.238938 0.927151
vt 0.250501 0.879278
vt 0.287312 0.900198
vt 0.275749 0.948070
vt 0.712973 0.041245
vt 0.761483 0.101270
vt 0.713320 0.108546
vt 0.681792 0.046168
vt 0.586781 0.060310
vt 0.647433 0.034443
vt 0.615560 0.061946
vt 0.554909 0.087812
vt 0.808872 0.925665
vt 0.779197 0.887284
vt 0.655086 0.552359
vt 0.626626 0.498742
vt 0.692752 0.488426
vt 0.701057 0.544441
vt 0.238938 0.782261
vt 0.262902 0.803325
vt 0.764520 0.844180
vt 0.856083 0.841111
vt 0.952787 0.841111
vt 0.628303 0.320420
vt 0.674273 0.312502
vt 0.809992 0.161295
vt 0.782632 0.234150
vt 0.734469 0.241425
vt 0.757786 0.169130
vt 0.940508 0.698104
vt 0.906365 0.722437
vt 0.341871 0.487678
vt 0.459983 0.552272
vt 0.266683 0.392822
vt 0.518560 0.998947
vt 0.529097 0.945194
vt 0.611470 0.910856
vt 0.607950 0.931196
vt 0.460297 0.931209
vt 0.475777 0.910856
vt 0.780634 0.315297
vt 0.755273 0.307004
vt 0.807653 0.236123
vt 0.320159 0.642531
vt 0.351494 0.602791
vt 0.365247 0.628940
vt 0.311242 0.547350
vt 0.384721 0.626665
vt 0.212425 0.468034
vt 0.214621 0.424188
vt 0.130309 0.547350
vt 0.119091 0.513711
vt 0.073529 0.626665
vt 0.046154 0.618631
vt 0.687239 0.357722
vt 0.681792 0.331276
vt 0.718595 0.330942
vt 0.723557 0.344427
vt 0.029945 0.505964
vt 0.034928 0.334666
vt 0.664415 0.830412
vt 0.664415 0.654667
vt 0.677191 0.668598
vt 0.682759 0.823614
vt 0.817208 0.165471
vt 0.913018 0.156877
vt 0.936626 0.235229
vt 0.832116 0.217704
vt 0.808685 0.106777
vt 0.884098 0.083901
vt 0.053336 0.950244
vt 0.035678 0.998824
vt 0.001236 0.950244
vt 0.146049 0.997513
vt 0.781206 0.041177
vt 0.781206 0.321618
vt 0.803469 0.272891
vt 0.897000 0.282034
vt 0.852060 0.334215
vt 0.710748 0.113746
vt 0.676665 0.042887
vt 0.597226 0.113746
vt 0.662976 0.264427
vt 0.700230 0.230791
vt 0.736431 0.224035
vt 0.699176 0.257671
vt 0.724091 0.311927
vt 0.700230 0.587658
vt 0.736431 0.580902
vt 0.853057 0.468142
vt 0.856216 0.513979
vt 0.835846 0.509949
vt 0.837397 0.463219
vt 0.050357 0.475886
vt 0.039981 0.431903
vt 0.061638 0.425347
vt 0.067831 0.474226
vt 0.324669 0.899682
vt 0.326266 0.951030
vt 0.303558 0.951448
vt 0.306905 0.898145
vt 0.282686 0.955118
vt 0.290863 0.902854
vt 0.282938 0.228444
vt 0.282938 0.205596
vt 0.301603 0.192665
vt 0.320269 0.202582
vt 0.320269 0.225429
vt 0.301603 0.238360
vt 0.240851 0.336234
vt 0.245982 0.293780
vt 0.268737 0.300397
vt 0.259216 0.338067
vt 0.870337 0.466290
vt 0.878309 0.513908
vt 0.063497 0.529463
vt 0.049881 0.526653
vt 0.242755 0.392764
vt 0.257070 0.390227
vt 0.251646 0.426757
vt 0.243594 0.429012
vt 0.852694 0.413674
vt 0.864741 0.419467
vt 0.295023 0.842005
vt 0.308975 0.845254
vt 0.878309 0.416062
vt 0.282686 0.847720
vt 0.877413 0.375449
vt 0.870195 0.380841
vt 0.859939 0.342825
vt 0.861389 0.340192
vt 0.293776 0.806467
vt 0.301208 0.811891
vt 0.862352 0.379433
vt 0.285736 0.807775
vt 0.060795 0.563531
vt 0.052726 0.560273
vt 0.857618 0.341190
vt 0.857462 0.339488
vt 0.857799 0.332866
vt 0.861232 0.338490
vt 0.017745 0.887636
vt 0.026102 0.886906
vt 0.026102 0.932505
vt 0.023972 0.938614
vt 0.042002 0.608236
vt 0.039981 0.607421
vt 0.268737 0.461658
vt 0.266721 0.462222
vt 0.064221 0.566716
vt 0.041250 0.615552
vt 0.028832 0.516227
vt 0.037662 0.514281
vt 0.037662 0.557086
vt 0.035248 0.556117
vt 0.969065 0.705126
vt 0.985483 0.734352
vt 0.955146 0.737165
vt 0.945281 0.706083
vt 0.921669 0.755170
vt 0.918812 0.717602
vt 0.957159 0.443036
vt 0.957505 0.479485
vt 0.922443 0.488585
vt 0.929763 0.448856
vt 0.678831 0.906429
vt 0.675013 0.948204
vt 0.645339 0.945220
vt 0.655516 0.905304
vt 0.659928 0.179238
vt 0.659928 0.137940
vt 0.685486 0.117280
vt 0.711044 0.137919
vt 0.711044 0.179218
vt 0.685486 0.199878
vt 0.612633 0.925809
vt 0.629555 0.892626
vt 0.772188 0.974969
vt 0.778716 0.999021
vt 0.742534 0.987811
vt 0.743816 0.967338
vt 0.221914 0.951161
vt 0.250351 0.938874
vt 0.250351 0.978704
vt 0.228252 0.986763
vt 0.642675 0.858659
vt 0.622929 0.852154
vt 0.628767 0.822030
vt 0.640889 0.824054
vt 0.958255 0.667168
vt 0.976465 0.668115
vt 0.921997 0.404382
vt 0.943294 0.401426
vt 0.758545 0.928360
vt 0.780671 0.932604
vt 0.660584 0.857857
vt 0.780737 0.906180
vt 0.768540 0.905565
vt 0.745434 0.858899
vt 0.747629 0.857341
vt 0.925866 0.374730
vt 0.937370 0.375497
vt 0.961803 0.643007
vt 0.971960 0.642731
vt 0.650827 0.824337
vt 0.938242 0.672741
vt 0.949553 0.644528
vt 0.001021 0.266920
vt 0.002130 0.261828
vt 0.007372 0.260987
vt 0.003780 0.264919
vt 0.007372 0.270205
vt 0.002130 0.271046
vt 0.615667 0.772358
vt 0.615655 0.765475
vt 0.982417 0.595071
vt 0.985483 0.594690
vt 0.612633 0.771851
vt 0.957505 0.330616
vt 0.956901 0.336397
vt 0.760383 0.910917
vt 0.742534 0.858527
vt 0.495979 0.533303
vt 0.514227 0.554281
vt 0.482426 0.567141
vt 0.470998 0.542259
vt 0.349097 0.778069
vt 0.324410 0.777833
vt 0.324410 0.740174
vt 0.350866 0.749004
vt 0.932536 0.798844
vt 0.932566 0.831285
vt 0.905791 0.835550
vt 0.911703 0.801022
vt 0.869729 0.834133
vt 0.883792 0.801053
vt 0.464835 0.980789
vt 0.436206 0.997264
vt 0.407576 0.977341
vt 0.407577 0.940945
vt 0.436206 0.924470
vt 0.464835 0.944392
vt 0.538801 0.883535
vt 0.572897 0.890493
vt 0.548841 0.920172
vt 0.522122 0.907611
vt 0.532023 0.940085
vt 0.510067 0.923586
vt 0.186253 0.944288
vt 0.216963 0.953872
vt 0.178067 0.965006
vt 0.156270 0.957981
vt 0.495165 0.883535
vt 0.485256 0.902443
vt 0.459517 0.894450
vt 0.463735 0.883959
vt 0.480360 0.504736
vt 0.500016 0.499049
vt 0.224561 0.984352
vt 0.182934 0.988495
vt 0.150554 0.866237
vt 0.179397 0.860041
vt 0.179397 0.891292
vt 0.157492 0.897205
vt 0.869729 0.763152
vt 0.891205 0.761752
vt 0.083555 0.030987
vt 0.091550 0.039895
vt 0.085805 0.083963
vt 0.083555 0.083390
vt 0.157121 0.981072
vt 0.154454 0.968881
vt 0.484418 0.480714
vt 0.496244 0.476139
vt 0.514227 0.493574
vt 0.502697 0.471470
vt 0.873189 0.736126
vt 0.886554 0.736397
vt 0.035388 0.642694
vt 0.053171 0.627046
vt 0.053471 0.647361
vt 0.042194 0.654027
vt 0.003715 0.605168
vt 0.001875 0.601193
vt 0.001329 0.599604
vt 0.006544 0.596947
vt 0.005998 0.603989
vt 0.006544 0.605579
vt 0.147326 0.991877
vt 0.098524 0.951320
vt 0.095232 0.944288
vt 0.038211 0.705755
vt 0.035388 0.707423
vt 0.410378 0.917582
vt 0.411434 0.914956
vt 0.100308 0.945563
vt 0.104239 0.038952
vt 0.088733 0.085384
vt 0.940995 0.287753
vt 0.944376 0.324415
vt 0.924197 0.324846
vt 0.925472 0.286599
vt 0.560436 0.572717
vt 0.527643 0.582279
vt 0.521122 0.560624
vt 0.558010 0.555279
vt 0.188380 0.580767
vt 0.145993 0.581922
vt 0.141980 0.561379
vt 0.186760 0.564714
vt 0.142798 0.540710
vt 0.185901 0.548798
vt 0.166836 0.798380
vt 0.184002 0.783418
vt 0.201169 0.792666
vt 0.201169 0.816875
vt 0.184002 0.831837
vt 0.166836 0.822589
vt 0.117115 0.611949
vt 0.111754 0.579483
vt 0.136860 0.572387
vt 0.136860 0.604809
vt 0.957247 0.289262
vt 0.965159 0.328279
vt 0.606272 0.558207
vt 0.604957 0.571756
vt 0.073030 0.686435
vt 0.056409 0.684284
vt 0.067399 0.665354
vt 0.077298 0.664349
vt 0.143111 0.822757
vt 0.122774 0.818339
vt 0.127116 0.784396
vt 0.143111 0.785460
vt 0.940450 0.242701
vt 0.952384 0.245356
vt 0.236905 0.552952
vt 0.236392 0.565571
vt 0.965159 0.244771
vt 0.234465 0.540710
vt 0.964263 0.210345
vt 0.957493 0.213518
vt 0.948368 0.175399
vt 0.949748 0.173283
vt 0.269068 0.551328
vt 0.265934 0.557978
vt 0.949770 0.213462
vt 0.269137 0.543449
vt 0.635300 0.560337
vt 0.633925 0.568093
vt 0.946120 0.174064
vt 0.945882 0.173256
vt 0.946284 0.167034
vt 0.949510 0.172475
vt 0.304443 0.556667
vt 0.309931 0.559882
vt 0.669355 0.580337
vt 0.669011 0.582279
vt 0.056409 0.626388
vt 0.058887 0.626137
vt 0.640226 0.555892
vt 0.675099 0.581166
vt 0.363700 0.891942
vt 0.366452 0.931601
vt 0.338379 0.932679
vt 0.342179 0.891158
vt 0.297945 0.149372
vt 0.313424 0.183806
vt 0.280790 0.198464
vt 0.271621 0.157922
vt 0.212253 0.491806
vt 0.219960 0.530272
vt 0.183422 0.543655
vt 0.183422 0.500827
vt 0.188973 0.906040
vt 0.224972 0.897610
vt 0.224972 0.943924
vt 0.189613 0.941474
vt 0.831249 0.935368
vt 0.849255 0.966539
vt 0.831253 0.997709
vt 0.795245 0.997709
vt 0.777239 0.966539
vt 0.795241 0.935368
vt 0.072532 0.928288
vt 0.030988 0.918366
vt 0.044887 0.881717
vt 0.080130 0.898967
vt 0.393004 0.897774
vt 0.403898 0.941207
vt 0.277881 0.100416
vt 0.298387 0.097459
vt 0.131707 0.919245
vt 0.133537 0.896680
vt 0.169320 0.904257
vt 0.169054 0.917551
vt 0.364374 0.842436
vt 0.380978 0.845061
vt 0.319890 0.066640
vt 0.310556 0.036466
vt 0.362059 0.029266
vt 0.367863 0.052566
vt 0.403898 0.847580
vt 0.061808 0.947961
vt 0.125406 0.934426
vt 0.402719 0.809056
vt 0.390359 0.810783
vt 0.369657 0.762788
vt 0.372005 0.760671
vt 0.394951 0.035017
vt 0.397286 0.046974
vt 0.379253 0.810699
vt 0.375631 0.010350
vt 0.403135 0.022832
vt 0.281842 0.065838
vt 0.293942 0.064733
vt 0.366131 0.761082
vt 0.366444 0.760629
vt 0.366473 0.753275
vt 0.372319 0.760218
vt 0.459901 0.059654
vt 0.464884 0.066640
vt 0.310394 0.020429
vt 0.313424 0.020152
vt 0.209661 0.881717
vt 0.209594 0.885045
vt 0.458437 0.065697
vt 0.015590 0.830918
vt 0.000977 0.834223
vt 0.000977 0.786414
vt 0.004965 0.787246
vt 0.585085 0.045323
vt 0.562339 0.076572
vt 0.546049 0.040787
vt 0.573596 0.016781
vt 0.506476 0.022569
vt 0.545195 0.001084
vt 0.561322 0.497769
vt 0.564941 0.545548
vt 0.528281 0.556165
vt 0.532518 0.504397
vt 0.461158 0.881602
vt 0.409279 0.878449
vt 0.415076 0.841531
vt 0.463980 0.852793
vt 0.345375 0.999023
vt 0.320566 0.969797
vt 0.335883 0.940570
vt 0.376009 0.940570
vt 0.400818 0.969796
vt 0.385501 0.999023
vt 0.427819 0.810041
vt 0.470515 0.828023
vt 0.124388 0.145304
vt 0.127230 0.185029
vt 0.092376 0.174854
vt 0.097012 0.138946
vt 0.581007 0.486870
vt 0.550680 0.438332
vt 0.565986 0.434117
vt 0.523022 0.835157
vt 0.523877 0.816577
vt 0.563178 0.821176
vt 0.564232 0.833134
vt 0.619961 0.015816
vt 0.626923 0.038588
vt 0.528281 0.441356
vt 0.109390 0.092097
vt 0.130679 0.095027
vt 0.522941 0.857219
vt 0.131742 0.058263
vt 0.119777 0.059502
vt 0.094726 0.009930
vt 0.096771 0.007859
vt 0.533979 0.400300
vt 0.546594 0.401595
vt 0.646063 0.011444
vt 0.650566 0.024344
vt 0.562604 0.845885
vt 0.553511 0.400812
vt 0.092376 0.008560
vt 0.093971 0.008641
vt 0.093066 0.001095
vt 0.098367 0.007940
vt 0.000977 0.279321
vt 0.015557 0.283647
vt 0.005389 0.339482
vt 0.000977 0.344218
vt 0.637358 0.001406
vt 0.711236 0.001084
vt 0.713416 0.003597
vt 0.611815 0.810041
vt 0.612079 0.813034
vt 0.575965 0.336932
vt 0.574993 0.344954
vt 0.712271 0.007333
vt 0.856682 0.039966
vt 0.909284 0.032789
vt 0.906602 0.068432
vt 0.852513 0.067432
vt 0.068500 0.871048
vt 0.023430 0.883813
vt 0.007257 0.848535
vt 0.059631 0.842774
vt 0.252864 0.710960
vt 0.244486 0.662961
vt 0.284098 0.657011
vt 0.284098 0.708118
vt 0.448033 0.185318
vt 0.452789 0.131687
vt 0.486216 0.113906
vt 0.474351 0.170162
vt 0.681001 0.917237
vt 0.708448 0.890233
vt 0.735895 0.904097
vt 0.735895 0.944967
vt 0.708448 0.971971
vt 0.681001 0.958107
vt 0.525685 0.133437
vt 0.505746 0.182585
vt 0.856483 0.015392
vt 0.911720 0.001346
vt 0.132877 0.843668
vt 0.135061 0.865486
vt 0.182532 0.044188
vt 0.161243 0.041024
vt 0.168946 0.000977
vt 0.180439 0.001969
vt 0.182532 0.111795
vt 0.155347 0.101772
vt 0.793337 0.041815
vt 0.798941 0.020735
vt 0.064989 0.820699
vt 0.139400 0.826587
vt 0.796425 0.001346
vt 0.488342 0.217816
vt 0.468106 0.231478
vt 0.001219 0.872812
vt 0.013760 0.871517
vt 0.013760 0.928884
vt 0.010724 0.931299
vt 0.183505 0.835338
vt 0.176855 0.845644
vt 0.753077 0.026532
vt 0.754142 0.013113
vt 0.748698 0.002972
vt 0.490411 0.261658
vt 0.479327 0.269309
vt 0.177374 0.857285
vt 0.005447 0.001218
vt 0.007804 0.005619
vt 0.007505 0.007772
vt 0.000977 0.015047
vt 0.000977 0.004853
vt 0.001275 0.002699
vt 0.522044 0.332527
vt 0.522372 0.343611
vt 0.218360 0.788924
vt 0.228933 0.783178
vt 0.228933 0.851788
vt 0.226286 0.853226
vt 0.504959 0.261642
vt 0.525685 0.332523
vt 0.241123 0.883813
vt 0.232429 0.882179
vt 0.205948 0.790661
vt 0.222686 0.851450
s 1
usemtl Material.002
f 1/1/1 2/2/1 3/3/1 4/4/1
f 5/5/2 6/6/2 7/7/2
f 8/8/3 9/9/3 10/10/3 11/11/3
f 12/12/4 13/13/4 14/14/4 15/15/4
f 16/16/5 17/17/5 18/18/5
f 19/19/6 20/20/6 10/21/6 9/22/6
f 21/23/7 15/24/7 14/25/7 22/26/7
f 23/27/8 24/28/8 25/29/8 26/30/8
f 27/31/9 28/32/9 29/33/9
f 30/34/10 31/35/10 32/36/10 33/37/10
f 34/38/11 35/39/11 36/40/11 37/41/11
f 38/42/12 39/43/12 40/44/12
f 41/45/13 33/46/13 32/47/13 42/48/13
f 43/49/14 44/50/14 45/51/14 46/52/14
f 47/53/15 48/54/15 49/55/15 50/56/15
f 51/57/16 52/58/16 32/47/16 31/59/16
f 53/60/17 54/61/17 55/62/17 56/63/17
f 57/64/18 58/65/18 36/66/18 42/48/18
f 59/67/19 60/68/19 61/69/19 62/70/19
f 63/71/20 64/72/20 25/73/20 24/74/20
f 65/75/21 66/76/21 67/77/21 68/78/21
f 69/79/22 70/80/22 71/81/22 37/41/22
f 72/82/23 73/83/23 71/81/23 70/80/23
f 74/84/24 18/85/24 75/86/24 76/87/24
f 77/88/25 74/84/25 76/87/25 78/89/25
f 79/90/26 80/91/26 74/84/26 77/88/26
f 80/91/27 16/92/27 18/85/27 74/84/27
f 76/93/28 72/94/28 70/95/28 78/96/28
f 75/97/29 81/98/29 72/82/29 76/99/29
f 81/98/30 82/100/30 73/83/30 72/82/30
f 58/101/31 69/79/31 37/41/31 36/40/31
f 79/90/32 77/88/32 69/102/32 58/103/32
f 81/98/33 65/104/33 68/105/33 82/100/33
f 75/106/34 83/107/34 65/75/34 81/108/34
f 83/107/21 84/109/21 66/76/21 65/75/21
f 48/110/35 63/71/35 24/74/35 49/111/35
f 4/4/36 3/3/36 64/112/36 63/113/36
f 44/114/37 59/67/38 62/70/39 45/115/39
f 86/116/40 87/117/40 59/67/38 44/114/37
f 87/117/41 88/118/41 60/68/41 59/67/41
f 52/58/42 57/64/42 42/48/42 32/47/42
f 10/119/43 20/120/43 57/121/43 52/122/43
f 20/120/44 79/123/44 58/124/44 57/121/44
f 66/76/17 53/60/17 56/63/17 67/77/17
f 84/109/17 89/125/17 53/60/17 66/76/17
f 89/125/17 90/126/17 54/61/17 53/60/17
f 64/127/45 51/57/45 31/59/45 25/128/45
f 3/3/46 11/11/46 51/129/46 64/112/46
f 11/11/47 10/10/47 52/130/47 51/129/47
f 60/68/48 47/53/48 50/56/48 61/69/48
f 88/118/49 91/131/49 47/53/49 60/68/49
f 91/132/50 85/133/50 48/134/50 47/135/50
f 54/61/14 43/49/14 46/52/14 55/62/14
f 90/126/14 92/136/14 43/49/14 54/61/14
f 92/136/14 86/137/14 44/50/14 43/49/14
f 67/138/51 56/139/51 93/140/51 40/141/51
f 56/63/52 55/62/52 94/142/52 93/143/52
f 35/144/53 41/145/53 42/146/53 36/147/53
f 40/44/54 68/105/54 67/148/54
f 40/44/55 39/43/55 68/105/55
f 39/43/56 82/100/56 68/105/56
f 73/83/57 34/38/57 37/41/57 71/81/57
f 82/100/58 39/43/58 34/38/58 73/83/58
f 39/43/59 38/42/59 35/39/59 34/38/59
f 46/149/60 95/150/60 94/151/60 55/152/60
f 45/115/61 28/32/61 95/150/61 46/149/61
f 26/30/62 25/29/62 31/35/62 30/34/62
f 29/33/63 62/70/63 61/69/63
f 29/33/64 28/32/64 62/70/64
f 28/32/65 45/115/65 62/70/65
f 29/33/66 23/27/66 26/30/66 27/31/66
f 61/69/67 50/56/67 23/27/67 29/33/67
f 50/56/68 49/55/68 24/28/68 23/27/68
f 90/153/69 89/154/69 109/155/69 104/156/69
f 7/157/70 6/158/70 110/159/70 96/160/70
f 17/161/71 21/162/71 22/163/71 16/164/71
f 22/165/72 14/166/72 9/167/72 19/168/72
f 16/169/73 22/165/73 19/168/73 80/170/73
f 80/171/74 79/172/74 20/20/74 19/19/74
f 75/173/75 18/174/76 99/175/76 105/176/77
f 17/177/78 21/178/78 101/179/79 98/180/80
f 88/181/81 87/182/82 107/183/82 108/184/83
f 7/185/84 5/186/84 13/13/84 12/12/84
f 86/187/85 92/188/85 111/189/85 106/190/85
f 18/174/86 17/191/86 98/192/86 99/175/86
f 2/2/87 8/8/87 11/11/87 3/3/87
f 5/186/88 2/193/88 8/194/88 13/13/88
f 13/13/89 8/194/89 9/195/89 14/14/89
f 89/154/90 84/196/90 103/197/90 109/155/90
f 15/198/91 12/199/91 97/200/92 100/201/93
f 6/158/94 88/202/81 108/203/83 110/159/94
f 91/204/95 1/1/95 4/4/95 85/205/95
f 88/206/96 6/6/96 1/1/96 91/204/96
f 6/6/97 5/5/97 2/2/97 1/1/97
f 40/141/98 93/140/98 21/162/98 17/161/98
f 94/207/99 15/208/99 21/209/99 93/210/99
f 95/211/100 12/212/100 15/208/100 94/207/100
f 28/213/101 7/214/101 12/199/101 95/215/101
f 40/141/102 17/161/102 16/164/102 38/216/102
f 80/217/103 35/218/103 38/216/103 16/164/103
f 19/219/104 41/145/104 35/144/104 80/220/104
f 9/221/105 33/222/105 41/145/105 19/219/105
f 8/223/106 30/224/106 33/222/106 9/221/106
f 2/225/107 26/226/107 30/224/107 8/223/107
f 26/227/108 2/228/108 5/229/108 27/230/108
f 7/214/109 28/213/109 27/230/109 5/229/109
f 4/231/110 63/71/110 48/110/110 85/232/110
f 70/233/111 69/234/111 77/235/111 78/236/111
f 109/237/112 101/238/113 100/239/114 104/240/112
f 103/241/115 98/242/80 101/238/79 109/237/115
f 99/243/116 102/244/116 105/245/116
f 99/243/117 98/246/117 102/244/117
f 98/242/118 103/241/118 102/247/118
f 106/248/119 111/249/119 97/250/120 96/251/121
f 111/249/122 104/240/122 100/239/93 97/250/92
f 96/252/123 107/183/123 106/253/123
f 96/252/124 110/254/124 107/183/124
f 110/254/125 108/184/125 107/183/125
f 92/188/126 90/153/126 104/156/126 111/189/126
f 21/178/127 15/198/127 100/201/114 101/179/113
f 83/255/128 75/256/75 105/257/77 102/258/128
f 12/199/129 7/214/129 96/259/121 97/200/120
f 84/196/130 83/255/130 102/258/130 103/197/130
f 87/260/131 86/187/131 106/190/131 107/261/131
s 0
f 112/262/132 113/263/132 115/264/132 114/265/132
f 114/266/133 115/267/133 117/268/133 116/269/133
f 116/270/134 117/271/134 119/272/134 118/273/134
f 118/273/135 119/272/135 121/274/135 120/275/135
f 115/276/136 113/277/136 123/278/136 121/279/136 119/280/136 117/281/136
f 120/282/137 121/283/137 123/284/137 122/285/137
f 122/286/138 123/287/138 113/263/138 112/262/138
f 114/266/139 116/269/139 126/288/139 125/289/139
f 128/290/140 129/291/140 135/292/140 134/293/140
f 120/282/141 122/285/141 129/291/141 128/290/141
f 112/262/142 114/265/142 125/294/142 124/295/142
f 116/270/143 118/273/143 127/296/143 126/297/143
f 122/286/144 112/262/144 124/295/144 129/298/144
f 118/273/145 120/275/145 128/299/145 127/296/145
f 135/300/146 130/301/146 136/302/146 141/303/146
f 126/297/147 127/296/147 133/304/147 132/305/147
f 124/295/148 125/294/148 131/306/148 130/301/148
f 129/298/149 124/295/149 130/301/149 135/300/149
f 127/296/150 128/299/150 134/307/150 133/304/150
f 125/289/151 126/288/151 132/308/151 131/309/151
f 136/302/152 137/310/152 138/311/152 139/312/152 140/313/152 141/303/152
f 133/314/153 134/315/153 140/316/153 139/317/153
f 131/309/154 132/308/154 138/318/154 137/319/154
f 134/293/155 135/292/155 141/320/155 140/321/155
f 132/308/156 133/322/156 139/323/156 138/318/156
f 130/324/157 131/325/157 137/326/157 136/327/157
f 142/328/158 143/329/158 145/330/158 144/331/158
f 144/331/159 145/330/159 147/332/159 146/333/159
f 146/334/160 147/335/160 149/336/160 148/337/160
f 148/338/161 149/339/161 151/340/161 150/341/161
f 145/342/162 143/343/162 153/344/162 151/345/162 149/346/162 147/347/162
f 150/341/163 151/340/163 153/348/163 152/349/163
f 152/350/164 153/351/164 143/352/164 142/353/164
f 144/354/165 146/355/165 156/356/165 155/357/165
f 158/358/166 159/359/166 165/360/166 164/361/166
f 150/341/167 152/349/167 159/359/167 158/358/167
f 142/328/168 144/331/168 155/362/168 154/363/168
f 146/334/169 148/337/169 157/364/169 156/365/169
f 152/350/170 142/353/170 154/366/170 159/367/170
f 148/338/171 150/341/171 158/358/171 157/368/171
f 165/369/172 160/370/172 166/371/172 171/372/172
f 156/365/173 157/364/173 163/373/173 162/374/173
f 154/363/174 155/362/174 161/375/174 160/376/174
f 159/367/175 154/366/175 160/370/175 165/369/175
f 157/368/176 158/358/176 164/361/176 163/377/176
f 155/362/177 156/378/177 162/379/177 161/375/177
f 166/380/178 167/381/178 168/382/178 169/383/178 170/384/178 171/385/178
f 163/377/179 164/361/179 170/386/179 169/387/179
f 161/375/180 162/379/180 168/388/180 167/389/180
f 164/361/181 165/360/181 171/390/181 170/386/181
f 162/374/182 163/373/182 169/391/182 168/392/182
f 160/370/183 161/393/183 167/394/183 166/371/183
f 172/395/184 173/396/184 175/397/184 174/398/184
f 174/399/185 175/400/185 177/401/185 176/402/185
f 176/403/186 177/404/186 179/405/186 178/406/186
f 178/406/187 179/405/187 181/407/187 180/408/187
f 175/409/188 173/410/188 183/411/188 181/412/188 179/413/188 177/414/188
f 180/415/189 181/416/189 183/417/189 182/418/189
f 182/418/190 183/417/190 173/419/190 172/420/190
f 174/421/191 176/422/191 186/423/191 185/424/191
f 188/425/192 189/426/192 195/427/192 194/428/192
f 180/415/193 182/418/193 189/426/193 188/425/193
f 172/395/194 174/398/194 185/429/194 184/430/194
f 176/422/195 178/431/195 187/432/195 186/423/195
f 182/433/196 172/434/196 184/435/196 189/436/196
f 178/406/197 180/408/197 188/437/197 187/438/197
f 195/439/198 190/440/198 196/441/198 201/442/198
f 186/423/199 187/432/199 193/443/199 192/444/199
f 184/430/200 185/429/200 191/445/200 190/446/200
f 189/447/201 184/430/201 190/446/201 195/448/201
f 187/438/202 188/437/202 194/449/202 193/450/202
f 185/451/203 186/452/203 192/453/203 191/454/203
f 196/455/204 197/456/204 198/457/204 199/458/204 200/459/204 201/460/204
f 193/443/205 194/461/205 200/462/205 199/463/205
f 191/454/206 192/453/206 198/464/206 197/465/206
f 194/428/207 195/427/207 201/466/207 200/467/207
f 192/444/208 193/443/208 199/463/208 198/468/208
f 190/440/209 191/469/209 197/470/209 196/441/209
f 202/471/210 203/472/210 205/473/210 204/474/210
f 204/475/211 205/476/211 207/477/211 206/478/211
f 206/479/212 207/480/212 209/481/212 208/482/212
f 208/482/213 209/481/213 211/483/213 210/484/213
f 205/485/214 203/486/214 213/487/214 211/488/214 209/489/214 207/490/214
f 210/491/215 211/492/215 213/493/215 212/494/215
f 212/495/216 213/496/216 203/472/216 202/471/216
f 204/475/217 206/478/217 216/497/217 215/498/217
f 218/499/218 219/500/218 225/501/218 224/502/218
f 210/503/219 212/504/219 219/505/219 218/506/219
f 202/471/220 204/474/220 215/507/220 214/508/220
f 206/479/221 208/482/221 217/509/221 216/510/221
f 212/495/222 202/471/222 214/508/222 219/511/222
f 208/482/223 210/484/223 218/512/223 217/509/223
f 225/513/224 220/514/224 226/515/224 231/516/224
f 216/510/225 217/509/225 223/517/225 222/518/225
f 214/508/226 215/507/226 221/519/226 220/514/226
f 219/511/227 214/508/227 220/514/227 225/513/227
f 217/509/228 218/512/228 224/520/228 223/517/228
f 215/498/229 216/497/229 222/521/229 221/522/229
f 226/515/230 227/523/230 228/524/230 229/525/230 230/526/230 231/516/230
f 223/517/231 224/520/231 230/527/231 229/528/231
f 221/522/232 222/521/232 228/529/232 227/530/232
f 224/502/233 225/501/233 231/531/233 230/532/233
f 222/521/234 223/533/234 229/534/234 228/529/234
f 220/514/235 221/519/235 227/523/235 226/515/235
f 232/535/236 233/536/236 235/537/236 234/538/236
f 234/539/237 235/540/237 237/541/237 236/542/237
f 236/543/238 237/544/238 239/545/238 238/546/238
f 238/547/239 239/548/239 241/549/239 240/550/239
f 235/551/240 233/552/240 243/553/240 241/554/240 239/555/240 237/556/240
f 240/557/241 241/558/241 243/559/241 242/560/241
f 242/561/242 243/562/242 233/536/242 232/535/242
f 234/539/243 236/542/243 246/563/243 245/564/243
f 248/565/244 249/566/244 255/567/244 254/568/244
f 240/557/245 242/560/245 249/566/245 248/565/245
f 232/535/246 234/538/246 245/569/246 244/570/246
f 236/571/247 238/572/247 247/573/247 246/574/247
f 242/561/248 232/535/248 244/570/248 249/575/248
f 238/576/249 240/557/249 248/565/249 247/577/249
f 255/578/250 250/579/250 256/580/250 261/581/250
f 246/574/251 247/573/251 253/582/251 252/583/251
f 244/570/252 245/569/252 251/584/252 250/579/252
f 249/575/253 244/570/253 250/579/253 255/578/253
f 247/573/254 248/585/254 254/586/254 253/582/254
f 245/564/255 246/563/255 252/587/255 251/588/255
f 256/580/256 257/589/256 258/590/256 259/591/256 260/592/256 261/581/256
f 253/582/257 254/586/257 260/593/257 259/594/257
f 251/588/258 252/587/258 258/595/258 257/596/258
f 254/568/259 255/567/259 261/597/259 260/598/259
f 252/583/260 253/582/260 259/594/260 258/599/260
f 250/600/261 251/601/261 257/602/261 256/603/261
f 262/604/262 263/605/262 265/606/262 264/607/262
f 264/607/263 265/606/263 267/608/263 266/609/263
f 266/610/264 267/611/264 269/612/264 268/613/264
f 268/614/265 269/615/265 271/616/265 270/617/265
f 265/618/266 263/619/266 273/620/266 271/621/266 269/622/266 267/623/266
f 270/617/267 271/616/267 273/624/267 272/625/267
f 272/626/268 273/627/268 263/628/268 262/629/268
f 264/630/269 266/610/269 276/631/269 275/632/269
f 278/633/270 279/634/270 285/635/270 284/636/270
f 270/617/271 272/625/271 279/634/271 278/633/271
f 262/604/272 264/607/272 275/637/272 274/638/272
f 266/610/273 268/613/273 277/639/273 276/631/273
f 272/626/274 262/629/274 274/640/274 279/641/274
f 268/614/275 270/617/275 278/633/275 277/642/275
f 285/643/276 280/644/276 286/645/276 291/646/276
f 276/631/277 277/639/277 283/647/277 282/648/277
f 274/638/278 275/637/278 281/649/278 280/650/278
f 279/641/279 274/640/279 280/644/279 285/643/279
f 277/642/280 278/633/280 284/636/280 283/651/280
f 275/632/281 276/631/281 282/648/281 281/652/281
f 286/645/282 287/653/282 288/654/282 289/655/282 290/656/282 291/646/282
f 283/657/283 284/658/283 290/659/283 289/660/283
f 281/649/284 282/661/284 288/662/284 287/663/284
f 284/636/285 285/635/285 291/664/285 290/665/285
f 282/648/286 283/647/286 289/666/286 288/667/286
f 280/650/287 281/649/287 287/663/287 286/668/287
f 292/669/288 293/670/288 295/671/288 294/672/288
f 294/673/289 295/674/289 297/675/289 296/676/289
f 296/677/290 297/678/290 299/679/290 298/680/290
f 298/681/291 299/682/291 301/683/291 300/684/291
f 295/685/292 293/686/292 303/687/292 301/688/292 299/689/292 297/690/292
f 300/684/293 301/683/293 303/691/293 302/692/293
f 302/693/294 303/694/294 293/670/294 292/669/294
f 294/673/295 296/676/295 306/695/295 305/696/295
f 308/697/296 309/698/296 315/699/296 314/700/296
f 300/701/297 302/702/297 309/698/297 308/697/297
f 292/669/298 294/672/298 305/703/298 304/704/298
f 296/676/299 298/705/299 307/706/299 306/695/299
f 302/693/300 292/669/300 304/704/300 309/707/300
f 298/681/301 300/684/301 308/708/301 307/709/301
f 315/710/302 310/711/302 316/712/302 321/713/302
f 306/695/303 307/706/303 313/714/303 312/715/303
f 304/704/304 305/703/304 311/716/304 310/717/304
f 309/707/305 304/704/305 310/717/305 315/718/305
f 307/709/306 308/708/306 314/719/306 313/720/306
f 305/696/307 306/695/307 312/715/307 311/721/307
f 316/722/308 317/723/308 318/724/308 319/725/308 320/726/308 321/727/308
f 313/720/309 314/719/309 320/728/309 319/729/309
f 311/730/310 312/731/310 318/732/310 317/733/310
f 314/719/311 315/734/311 321/735/311 320/728/311
f 312/715/312 313/714/312 319/736/312 318/737/312
f 310/738/313 311/730/313 317/733/313 316/739/313
