# Blender 4.2.0
# www.blender.org
mtllib firemask.mtl
o Cube.002
v 0.741836 0.028653 0.696363
v 0.707881 -0.008450 1.135809
v 0.788749 0.309089 1.052278
v 0.747855 0.431718 0.646006
v 0.627013 -0.188332 1.127568
v 0.735817 -0.277811 0.746721
v 0.551523 -0.449736 1.166625
v 0.353940 -0.093054 1.431529
v 0.000000 -0.177657 1.727250
v 0.000000 0.137682 1.729234
v 0.394374 0.223386 1.390756
v 0.275762 -0.537544 1.328071
v 0.313507 -0.282374 1.380531
v 0.000000 -0.411763 1.633494
v 0.000000 -0.625352 1.489516
v 0.834371 0.044983 0.913400
v 0.874805 0.376067 0.752963
v 0.892755 0.346686 1.260281
v 0.720115 0.003611 1.265710
v 0.685133 -0.197922 1.133874
v 0.603526 -0.412428 1.264310
v 0.748051 -0.286101 1.073836
v 0.405943 -0.078689 1.556794
v 0.446377 0.260694 1.589486
v 0.000000 0.174701 1.918692
v 0.000000 -0.230850 1.893764
v 0.238017 -0.761800 1.163852
v 0.476033 -0.669687 1.093924
v 0.476033 -0.674120 1.257482
v 0.238017 -0.766233 1.327410
v 0.816323 0.028873 0.477832
v 0.837581 0.515111 -0.582237
v 0.919665 0.386273 -0.325210
v 0.856854 0.037877 0.561090
v 0.420376 0.333812 1.490121
v 0.000000 0.443076 1.823963
v 0.000000 -0.853913 1.233780
v 0.000000 -0.858347 1.397338
v 0.663385 -0.497618 0.903450
v 0.804851 -0.325549 0.712976
v 0.765082 -0.329694 0.876533
v 0.666444 -0.501907 1.067007
v 0.911330 0.447363 0.699485
v 0.940752 0.624063 0.942707
v 0.523418 0.535068 -0.502522
v 0.476033 -0.665253 0.930366
v 0.660327 -0.493329 0.739892
v 0.752849 -0.321404 0.549418
v 0.000000 -0.849480 1.070223
v 0.775792 0.019870 0.394575
v 0.238017 -0.757367 1.000294
v 0.000000 -0.588332 1.633088
v 0.301763 -0.500380 1.425756
v 0.906414 0.912869 -0.386820
v 0.836327 1.328211 -0.610793
v 0.945843 1.140301 -0.674691
v 0.970553 0.900223 -0.433341
v 1.164389 1.463902 -0.319483
v 1.155085 1.975013 -0.523310
v 1.336400 1.954931 -0.647068
v 1.236012 1.467304 -0.355491
v 1.252902 1.650305 1.293907
v 1.180088 2.025218 1.090080
v 1.268216 2.036874 0.974342
v 1.319913 1.643818 1.257899
v 0.939225 0.970731 3.595972
v 1.005410 1.170488 3.192146
v 1.093539 1.182144 3.076408
v 1.006236 0.964243 3.559965
v 1.216495 1.837762 1.191993
v 1.224152 2.031046 1.032211
v 1.286408 1.647061 1.275903
v 1.294065 1.840346 1.116120
v 0.972317 1.070610 3.394059
v 1.049474 1.176316 3.134277
v 0.972730 0.967487 3.577969
v 1.049887 1.073193 3.318187
v 1.101909 1.617496 2.039967
v 1.190037 1.629153 1.924229
v 1.172235 1.323674 2.307786
v 1.105223 1.330161 2.343794
v 1.181136 1.476413 2.116008
v 1.103566 1.473829 2.191880
v 1.138729 1.326918 2.325790
v 1.011102 1.071902 3.356123
v 1.145973 1.623325 1.982098
v -0.741836 0.028653 0.696363
v -0.707881 -0.008450 1.135809
v -0.788749 0.309089 1.052278
v -0.747855 0.431718 0.646006
v -0.627013 -0.188332 1.127568
v -0.735817 -0.277811 0.746721
v -0.551523 -0.449736 1.166625
v -0.353940 -0.093054 1.431529
v -0.394374 0.223386 1.390756
v -0.275762 -0.537544 1.328071
v -0.313507 -0.282374 1.380531
v -0.834371 0.044983 0.913400
v -0.874805 0.376067 0.752963
v -0.892755 0.346686 1.260281
v -0.720115 0.003611 1.265710
v -0.685133 -0.197922 1.133874
v -0.603526 -0.412428 1.264310
v -0.748051 -0.286101 1.073836
v -0.405943 -0.078689 1.556794
v -0.446377 0.260694 1.589486
v -0.238017 -0.761800 1.163852
v -0.476033 -0.669687 1.093924
v -0.476033 -0.674120 1.257482
v -0.238017 -0.766233 1.327410
v -0.816323 0.028873 0.477832
v -0.837581 0.515111 -0.582237
v -0.919665 0.386273 -0.325210
v -0.856854 0.037877 0.561090
v -0.420376 0.333812 1.490121
v -0.663385 -0.497618 0.903450
v -0.804851 -0.325549 0.712976
v -0.765082 -0.329694 0.876533
v -0.666444 -0.501907 1.067007
v -0.911330 0.447363 0.699485
v -0.940752 0.624063 0.942707
v -0.523418 0.535068 -0.502522
v -0.476033 -0.665253 0.930366
v -0.660327 -0.493329 0.739892
v -0.752849 -0.321404 0.549418
v -0.775792 0.019870 0.394575
v -0.238017 -0.757367 1.000294
v -0.301763 -0.500380 1.425756
v -0.906414 0.912869 -0.386820
v -0.836327 1.328211 -0.610793
v -0.945843 1.140301 -0.674691
v -0.970553 0.900223 -0.433341
v -1.164389 1.463902 -0.319483
v -1.155085 1.975013 -0.523310
v -1.336400 1.954931 -0.647068
v -1.236012 1.467304 -0.355491
v -1.252902 1.650305 1.293907
v -1.180088 2.025218 1.090080
v -1.268216 2.036874 0.974342
v -1.319913 1.643818 1.257899
v -0.939225 0.970731 3.595972
v -1.005410 1.170488 3.192146
v -1.093539 1.182144 3.076408
v -1.006236 0.964243 3.559965
v -1.216495 1.837762 1.191993
v -1.224152 2.031046 1.032211
v -1.286408 1.647061 1.275903
v -1.294065 1.840346 1.116120
v -0.972317 1.070610 3.394059
v -1.049474 1.176316 3.134277
v -0.972730 0.967487 3.577969
v -1.049887 1.073193 3.318187
v -1.101909 1.617496 2.039967
v -1.190037 1.629153 1.924229
v -1.172235 1.323674 2.307786
v -1.105223 1.330161 2.343794
v -1.181136 1.476413 2.116008
v -1.103566 1.473829 2.191880
v -1.138729 1.326918 2.325790
v -1.011102 1.071902 3.356123
v -1.145973 1.623325 1.982098
vn -0.9988 0.0397 -0.0288
vn -0.9843 -0.1662 -0.0590
vn -0.8866 0.2786 -0.3693
vn -0.8290 0.5125 0.2237
vn -0.7389 0.1389 0.6593
vn -0.9631 0.1964 -0.1842
vn -0.6115 0.7751 0.1592
vn 0.1810 -0.9790 -0.0939
vn -0.0000 -0.9894 -0.1455
vn -0.0000 0.2313 -0.9729
vn -0.6654 0.1565 -0.7299
vn -0.1794 0.9823 0.0541
vn 0.6362 -0.2730 0.7216
vn -0.0000 -0.4195 0.9078
vn -0.0000 0.9978 0.0658
vn 0.9708 -0.2020 0.1294
vn 0.9912 -0.1301 0.0248
vn 0.8236 0.1804 0.5377
vn 0.6525 -0.5798 0.4879
vn 0.2297 0.1352 0.9638
vn 0.3408 0.3024 0.8902
vn 0.9178 -0.1921 0.3473
vn 0.5508 -0.7056 0.4457
vn 0.5950 0.2066 0.7767
vn -0.0000 0.1747 0.9846
vn -0.0000 -0.7253 0.6884
vn 0.3543 -0.9348 -0.0253
vn 0.5157 -0.8564 -0.0262
vn 0.5814 -0.6897 0.4316
vn 0.4839 -0.7759 0.4047
vn 0.6465 -0.6676 -0.3693
vn 0.4389 -0.5358 -0.7213
vn 0.8301 -0.4928 -0.2607
vn 0.9749 -0.2225 -0.0104
vn -0.2474 0.9689 -0.0070
vn -0.0000 0.9750 0.2221
vn -0.0000 -0.9996 -0.0271
vn -0.0000 -0.8898 0.4564
vn 0.7541 -0.6567 -0.0021
vn 0.9119 -0.3979 -0.1005
vn 0.9377 -0.3365 0.0865
vn 0.8168 -0.5435 0.1934
vn 0.6932 0.7065 0.1425
vn 0.4184 0.9078 -0.0285
vn -0.8587 -0.1789 -0.4803
vn -0.0725 -0.4529 -0.8886
vn -0.2904 -0.6445 -0.7073
vn -0.1165 -0.5497 -0.8272
vn -0.0000 -0.5208 -0.8537
vn -0.6106 -0.7120 -0.3468
vn -0.2196 -0.3400 -0.9144
vn -0.0000 0.3455 0.9384
vn 0.1103 0.6685 0.7355
vn -0.3330 0.6343 0.6977
vn -0.8694 0.3990 -0.2914
vn 0.3004 -0.1766 -0.9373
vn 0.9756 -0.1703 0.1385
vn -0.5288 -0.4351 0.7287
vn -0.6330 0.7110 -0.3062
vn 0.5282 0.4790 -0.7011
vn 0.8751 -0.4829 0.0305
vn -0.7031 -0.6881 -0.1793
vn -0.5496 0.7839 0.2887
vn 0.6903 0.7212 0.0583
vn 0.7960 -0.5972 0.0988
vn -0.2216 -0.5522 0.8037
vn -0.5272 0.7799 0.3373
vn 0.8435 0.4636 0.2712
vn 0.7043 -0.4021 0.5850
vn -0.9823 -0.1692 -0.0799
vn 0.2081 0.9608 0.1829
vn -0.1153 -0.9876 -0.1062
vn 0.9920 0.0848 0.0934
vn -0.6051 0.7317 0.3137
vn 0.4037 0.8215 0.4027
vn 0.5428 -0.4882 0.6834
vn 0.8262 0.4600 0.3253
vn -0.6711 0.7110 0.2100
vn 0.7615 0.5700 0.3086
vn 0.6263 -0.7640 -0.1550
vn -0.7361 -0.6186 -0.2747
vn 0.9881 0.0743 0.1345
vn -0.9754 -0.1511 -0.1603
vn -0.2534 -0.9176 -0.3062
vn 0.4080 0.7968 0.4456
vn 0.3825 0.8439 0.3763
vn 0.9988 0.0397 -0.0288
vn 0.9843 -0.1662 -0.0590
vn 0.8866 0.2786 -0.3693
vn 0.8290 0.5125 0.2237
vn 0.7389 0.1389 0.6593
vn 0.9631 0.1964 -0.1842
vn 0.6115 0.7751 0.1592
vn -0.1810 -0.9790 -0.0939
vn 0.6654 0.1565 -0.7299
vn 0.1794 0.9823 0.0541
vn -0.6362 -0.2730 0.7216
vn -0.9708 -0.2020 0.1294
vn -0.9912 -0.1301 0.0248
vn -0.8236 0.1804 0.5377
vn -0.6525 -0.5798 0.4879
vn -0.2297 0.1352 0.9638
vn -0.3408 0.3024 0.8902
vn -0.9178 -0.1921 0.3473
vn -0.5508 -0.7056 0.4457
vn -0.5950 0.2066 0.7767
vn -0.3543 -0.9348 -0.0253
vn -0.5157 -0.8564 -0.0262
vn -0.5814 -0.6897 0.4316
vn -0.4839 -0.7759 0.4047
vn -0.6465 -0.6676 -0.3693
vn -0.4389 -0.5358 -0.7213
vn -0.8301 -0.4928 -0.2607
vn -0.9749 -0.2225 -0.0104
vn 0.2474 0.9689 -0.0070
vn -0.7541 -0.6567 -0.0021
vn -0.9119 -0.3979 -0.1005
vn -0.9377 -0.3365 0.0865
vn -0.8168 -0.5435 0.1934
vn -0.6932 0.7065 0.1425
vn -0.4184 0.9078 -0.0285
vn 0.8587 -0.1789 -0.4803
vn 0.0725 -0.4529 -0.8886
vn 0.2904 -0.6445 -0.7073
vn 0.1165 -0.5497 -0.8272
vn 0.6106 -0.7120 -0.3468
vn 0.2196 -0.3400 -0.9144
vn -0.1103 0.6685 0.7355
vn 0.3330 0.6343 0.6977
vn 0.8694 0.3990 -0.2914
vn -0.3004 -0.1766 -0.9373
vn -0.9756 -0.1703 0.1385
vn 0.5288 -0.4351 0.7287
vn 0.6330 0.7110 -0.3062
vn -0.5282 0.4790 -0.7011
vn -0.8751 -0.4829 0.0305
vn 0.7031 -0.6881 -0.1793
vn 0.5496 0.7839 0.2887
vn -0.6903 0.7212 0.0583
vn -0.7960 -0.5972 0.0988
vn 0.2216 -0.5522 0.8037
vn 0.5272 0.7799 0.3373
vn -0.8435 0.4636 0.2712
vn -0.7043 -0.4021 0.5850
vn 0.9823 -0.1692 -0.0799
vn -0.2081 0.9608 0.1829
vn 0.1153 -0.9876 -0.1062
vn -0.9920 0.0848 0.0934
vn 0.6051 0.7317 0.3137
vn -0.4037 0.8215 0.4027
vn -0.5428 -0.4882 0.6834
vn -0.8262 0.4600 0.3253
vn 0.6711 0.7110 0.2100
vn -0.7615 0.5700 0.3086
vn -0.6263 -0.7640 -0.1550
vn 0.7361 -0.6186 -0.2747
vn -0.9881 0.0743 0.1345
vn 0.9754 -0.1511 -0.1603
vn 0.2534 -0.9176 -0.3062
vn -0.4080 0.7968 0.4456
vn -0.3825 0.8439 0.3763
vt 0.582113 0.679145
vt 0.519716 0.634816
vt 0.565427 0.602927
vt 0.633473 0.631326
vt 0.501498 0.658638
vt 0.541465 0.714145
vt 0.467895 0.688085
vt 0.750017 0.653000
vt 0.672102 0.653000
vt 0.680681 0.601058
vt 0.768033 0.602747
vt 0.536863 0.472305
vt 0.542815 0.526425
vt 0.485333 0.515071
vt 0.500065 0.463535
vt 0.121112 0.381514
vt 0.164503 0.333417
vt 0.193613 0.417950
vt 0.137204 0.441351
vt 0.095448 0.433270
vt 0.068788 0.468625
vt 0.077462 0.429515
vt 0.141437 0.493536
vt 0.199041 0.476306
vt 0.204468 0.534661
vt 0.136847 0.557653
vt 0.906413 0.961372
vt 0.951157 0.954162
vt 0.946306 0.981557
vt 0.901563 0.988766
vt 0.445559 0.195653
vt 0.496899 0.000977
vt 0.499032 0.051968
vt 0.449888 0.210729
vt 0.580916 0.296901
vt 0.534026 0.373609
vt 0.497753 0.373609
vt 0.558855 0.292156
vt 0.031235 0.415724
vt 0.047332 0.373557
vt 0.057327 0.400359
vt 0.041448 0.442626
vt 0.172743 0.320038
vt 0.217847 0.347886
vt 0.613768 0.575122
vt 0.626806 0.625256
vt 0.992671 0.922024
vt 0.988345 0.949516
vt 0.956007 0.926768
vt 0.996998 0.894532
vt 0.021022 0.388822
vt 0.036820 0.346562
vt 0.693815 0.201945
vt 0.619956 0.210703
vt 0.855385 0.604436
vt 0.766209 0.581823
vt 0.895076 0.558051
vt 0.680988 0.547858
vt 0.089380 0.311688
vt 0.096618 0.324718
vt 0.082143 0.298658
vt 0.441229 0.180577
vt 0.441229 0.001361
vt 0.861670 0.968581
vt 0.856819 0.995976
vt 0.866520 0.941187
vt 0.911264 0.933977
vt 0.013389 0.501719
vt 0.063537 0.500122
vt 0.061343 0.539085
vt 0.001725 0.518738
vt 0.025053 0.484699
vt 0.094608 0.157421
vt 0.573661 0.481075
vt 0.598019 0.530783
vt 0.184437 0.650955
vt 0.190658 0.700557
vt 0.136052 0.714369
vt 0.136052 0.650225
vt 0.196878 0.750159
vt 0.136052 0.778513
vt 0.827932 0.653000
vt 0.607743 0.567436
vt 0.544804 0.567436
vt 0.481864 0.567436
vt 0.519064 0.742604
vt 0.476061 0.742047
vt 0.562784 0.742065
vt 0.621080 0.714262
vt 0.799704 0.742604
vt 0.048212 0.568591
vt 0.063955 0.573853
vt 0.025837 0.633673
vt 0.001275 0.634153
vt 0.086234 0.503202
vt 0.102073 0.514032
vt 0.758272 0.894684
vt 0.767714 0.914563
vt 0.698495 0.976036
vt 0.698654 0.946581
vt 0.817890 0.842787
vt 0.820632 0.863521
vt 0.503652 0.618921
vt 0.499140 0.659903
vt 0.130547 0.484853
vt 0.132879 0.497258
vt 0.318693 0.177353
vt 0.265890 0.382049
vt 0.246238 0.163547
vt 0.263087 0.092225
vt 0.884048 0.714813
vt 0.812245 0.677817
vt 0.901793 0.665630
vt 0.988919 0.699103
vt 0.068231 0.955561
vt 0.051590 0.906793
vt 0.195327 0.910993
vt 0.173502 0.941696
vt 0.234363 0.388525
vt 0.234363 0.155926
vt 0.097982 0.106840
vt 0.928338 0.391370
vt 0.960813 0.408200
vt 0.993288 0.425029
vt 0.982455 0.804285
vt 0.989053 0.816001
vt 0.732800 0.850834
vt 0.729730 0.845431
vt 0.726660 0.840027
vt 0.171284 0.105659
vt 0.194118 0.050330
vt 0.330651 0.001315
vt 0.270195 0.081063
vt 0.313493 0.906793
vt 0.322998 0.942427
vt 0.176078 0.112250
vt 0.271637 0.086997
vt 0.468265 0.760568
vt 0.458402 0.767670
vt 0.245015 0.773270
vt 0.254879 0.766168
vt 0.451583 0.259496
vt 0.429207 0.295724
vt 0.406831 0.331951
vt 0.905053 0.750332
vt 0.885538 0.780647
vt 0.637150 0.763438
vt 0.647014 0.756336
vt 0.656878 0.749235
vt 0.212286 0.770588
vt 0.218658 0.764217
vt 0.264743 0.759066
vt 0.542822 0.828215
vt 0.545892 0.833619
vt 0.324006 0.815092
vt 0.320937 0.809689
vt 0.898426 0.238984
vt 0.873727 0.213504
vt 0.812245 0.001336
vt 0.829168 0.035467
vt 0.435973 0.482431
vt 0.448093 0.441062
vt 0.451583 0.658121
vt 0.449720 0.704631
vt 0.423854 0.523800
vt 0.447857 0.751141
vt 0.923125 0.264465
vt 0.846090 0.069598
vt 0.539752 0.822812
vt 0.317867 0.804285
vt 0.205915 0.776958
vt 0.166814 0.780647
vt 0.169694 0.775007
vt 0.172573 0.769368
vt 0.478129 0.753467
vt 0.267952 0.556601
vt 0.338780 0.534864
vt 0.329252 0.611603
vt 0.275225 0.636868
vt 0.243063 0.641313
vt 0.197703 0.656802
vt 0.214485 0.575302
vt 0.271135 0.693877
vt 0.326515 0.676469
vt 0.323779 0.741335
vt 0.267046 0.750887
vt 0.672849 0.390999
vt 0.682093 0.429393
vt 0.630920 0.441091
vt 0.619919 0.382036
vt 0.786379 0.383917
vt 0.771093 0.444269
vt 0.713618 0.419804
vt 0.743040 0.335630
vt 0.812962 0.436480
vt 0.830354 0.432383
vt 0.840038 0.472278
vt 0.769289 0.498207
vt 0.776979 0.564612
vt 0.709773 0.541577
vt 0.711696 0.480690
vt 0.825361 0.945254
vt 0.820511 0.972648
vt 0.784203 0.949320
vt 0.789053 0.921926
vt 0.435744 0.198025
vt 0.433056 0.213081
vt 0.379835 0.055393
vt 0.381419 0.003678
vt 0.580916 0.450317
vt 0.558855 0.455061
vt 0.877104 0.419203
vt 0.866818 0.446005
vt 0.850355 0.403226
vt 0.860070 0.376266
vt 0.734588 0.322053
vt 0.689361 0.349588
vt 0.342411 0.543432
vt 0.381630 0.581497
vt 0.894774 0.462319
vt 0.884555 0.489143
vt 0.904994 0.435496
vt 0.887389 0.392400
vt 0.871057 0.349665
vt 0.693815 0.545272
vt 0.619957 0.536514
vt 0.349336 0.690771
vt 0.381630 0.748766
vt 0.810772 0.327161
vt 0.818357 0.314418
vt 0.825941 0.301674
vt 0.438432 0.182969
vt 0.438432 0.001034
vt 0.830212 0.917859
vt 0.793904 0.894532
vt 0.898067 0.507569
vt 0.911579 0.525994
vt 0.852180 0.546202
vt 0.847643 0.505518
vt 0.812860 0.159902
vt 0.663606 0.352605
vt 0.615630 0.325585
vt 0.132879 0.733555
vt 0.106695 0.750239
vt 0.066266 0.691956
vt 0.110002 0.683014
vt 0.087125 0.632474
vt 0.579556 0.377635
vt 0.579556 0.313562
vt 0.579556 0.441708
vt 0.151967 0.621364
vt 0.175934 0.581102
vt 0.200382 0.541151
vt 0.256744 0.502518
vt 0.322559 0.325938
vt 0.050741 0.697830
vt 0.091292 0.761681
vt 0.639302 0.894684
vt 0.631265 0.914563
vt 0.579949 0.842787
vt 0.578579 0.863521
vt 0.281397 0.659796
vt 0.241232 0.642551
vt 0.207195 0.673012
vt 0.885070 0.086233
vt 0.940676 0.001105
vt 0.957525 0.072427
vt 0.937873 0.290929
vt 0.000977 0.916221
vt 0.016077 0.807869
vt 0.049482 0.895253
vt 0.037785 0.987636
vt 0.001223 0.316241
vt 0.027363 0.188338
vt 0.050885 0.150257
vt 0.050019 0.319226
vt 0.969401 0.064806
vt 0.969401 0.297405
vt 0.810363 0.109934
vt 0.290253 0.803371
vt 0.306988 0.835625
vt 0.323722 0.867879
vt 0.691856 0.999023
vt 0.438943 0.975815
vt 0.442114 0.970317
vt 0.445285 0.964818
vt 0.698651 0.987436
vt 0.736327 0.107849
vt 0.635795 0.081571
vt 0.575095 0.001327
vt 0.714009 0.052771
vt 0.001223 0.005230
vt 0.021652 0.001211
vt 0.732062 0.114801
vt 0.634931 0.087919
vt 0.302603 0.794042
vt 0.089216 0.788442
vt 0.079352 0.781340
vt 0.292739 0.786940
vt 0.498228 0.331134
vt 0.476306 0.295118
vt 0.454385 0.259102
vt 0.739391 0.804278
vt 0.491215 0.805376
vt 0.481352 0.798274
vt 0.471488 0.791172
vt 0.719875 0.773963
vt 0.046624 0.784022
vt 0.099080 0.795544
vt 0.052995 0.790393
vt 0.257325 0.981488
vt 0.037953 0.993525
vt 0.041124 0.988026
vt 0.260496 0.975989
vt 0.476499 0.899423
vt 0.680366 0.970313
vt 0.714576 0.987636
vt 0.501971 0.924212
vt 0.469830 0.482034
vt 0.456431 0.704454
vt 0.454385 0.657794
vt 0.457846 0.440695
vt 0.481814 0.523372
vt 0.458477 0.751114
vt 0.451026 0.874634
vt 0.646156 0.952989
vt 0.254154 0.986986
vt 0.034782 0.999023
vt 0.040252 0.777652
vt 0.001152 0.773963
vt 0.004031 0.779603
vt 0.006911 0.785242
vt 0.312467 0.801144
s 1
usemtl Material.003
f 1/1/1 2/2/2 3/3/3 4/4/4
f 5/5/5 6/6/6 7/7/7
f 8/8/8 9/9/9 10/10/10 11/11/11
f 12/12/12 13/13/13 14/14/14 15/15/15
f 16/16/16 17/17/17 18/18/18 19/19/19
f 20/20/20 21/21/21 22/22/22
f 23/23/23 24/24/24 25/25/25 26/26/26
f 27/27/27 28/28/28 29/29/29 30/30/30
f 31/31/31 32/32/32 33/33/33 34/34/34
f 35/35/35 36/36/36 25/37/25 24/38/24
f 39/39/39 40/40/40 41/41/41 42/42/42
f 43/43/43 44/44/44 18/18/18 17/17/17
f 4/4/4 3/3/3 44/45/44 43/46/43
f 28/28/28 39/47/39 42/48/42 29/29/29
f 46/49/46 47/50/47 39/47/39 28/28/28
f 47/51/47 48/52/48 40/40/40 39/39/39
f 44/53/44 35/35/35 24/38/24 18/54/18
f 3/55/3 11/11/11 35/56/35 44/57/44
f 11/11/11 10/10/10 36/58/36 35/56/35
f 40/40/40 31/59/31 34/60/34 41/41/41
f 48/52/48 50/61/50 31/59/31 40/40/40
f 50/62/50 45/63/45 32/32/32 31/31/31
f 37/64/37 27/27/27 30/30/30 38/65/38
f 49/66/49 51/67/51 27/27/27 37/64/37
f 51/67/51 46/49/46 28/28/28 27/27/27
f 30/68/30 53/69/53 52/70/52 38/71/38
f 29/72/29 21/21/21 53/69/53 30/68/30
f 19/19/19 18/18/18 24/24/24 23/23/23
f 22/22/22 42/42/42 41/41/41
f 22/22/22 21/21/21 42/42/42
f 21/21/21 29/72/29 42/42/42
f 22/22/22 16/16/16 19/19/19 20/20/20
f 41/41/41 34/60/34 16/16/16 22/22/22
f 34/60/34 33/73/33 17/17/17 16/16/16
f 7/74/7 5/75/5 13/13/13 12/12/12
f 46/76/46 51/77/51 12/78/12 7/79/7
f 51/77/51 49/80/49 15/81/15 12/78/12
f 2/82/2 8/8/8 11/11/11 3/55/3
f 5/75/5 2/83/2 8/84/8 13/13/13
f 13/13/13 8/84/8 9/85/9 14/14/14
f 7/7/7 47/86/47 46/87/46
f 7/7/7 6/6/6 47/86/47
f 6/6/6 48/88/48 47/86/47
f 50/89/50 1/1/1 4/4/4 45/90/45
f 48/88/48 6/6/6 1/1/1 50/89/50
f 6/6/6 5/5/5 2/2/2 1/1/1
f 53/91/53 12/92/12 15/93/15 52/94/52
f 21/95/21 7/96/7 12/92/12 53/91/53
f 8/97/8 23/98/23 26/99/26 9/100/9
f 2/101/2 19/102/19 23/98/23 8/97/8
f 19/103/19 2/2/2 5/5/5 20/104/20
f 7/96/7 21/95/21 20/105/20 5/106/5
f 45/107/45 4/108/4 54/109/54 55/110/55
f 55/111/55 54/112/54 58/113/58 59/114/59
f 32/115/32 45/116/45 55/117/55 56/118/56
f 4/108/4 43/119/43 57/120/57 54/109/54
f 33/73/33 32/121/32 43/43/43 17/17/17
f 59/114/59 58/113/58 62/122/62 70/123/70 63/124/63
f 58/125/58 61/126/61 65/127/65 72/128/72 62/129/62
f 57/130/57 56/131/56 60/132/60 61/133/61
f 56/118/56 55/117/55 59/134/59 60/135/60
f 54/136/54 57/130/57 61/133/61 58/137/58
f 86/138/86 78/139/78 67/140/67 75/141/75
f 61/133/61 60/132/60 64/142/64 73/143/73 65/144/65
f 60/145/60 59/146/59 63/147/63 71/148/71 64/149/64
f 85/150/85 77/151/77 68/152/68 75/141/75
f 84/153/84 80/154/80 69/155/69 76/156/76
f 83/157/83 81/158/81 66/159/66 74/160/74
f 82/161/82 79/162/79 68/163/68 77/164/77
f 80/165/80 82/161/82 77/164/77 69/166/69
f 65/144/65 73/143/73 82/161/82 80/165/80
f 73/143/73 64/142/64 79/162/79 82/161/82
f 78/167/78 83/157/83 74/160/74 67/168/67
f 63/124/63 70/123/70 83/157/83 78/167/78
f 70/123/70 62/122/62 81/158/81 83/157/83
f 81/169/81 84/153/84 76/156/76 66/170/66
f 62/129/62 72/128/72 84/153/84 81/169/81
f 72/128/72 65/127/65 80/154/80 84/153/84
f 74/171/74 85/150/85 75/141/75 67/140/67
f 66/172/66 76/173/76 85/150/85 74/171/74
f 76/173/76 69/174/69 77/151/77 85/150/85
f 79/175/79 86/138/86 75/141/75 68/152/68
f 64/149/64 71/148/71 86/138/86 79/175/79
f 71/148/71 63/147/63 78/139/78 86/138/86
f 43/43/43 32/121/32 57/130/57
f 56/131/56 57/130/57 32/121/32
f 87/176/87 90/177/90 89/178/89 88/179/88
f 91/180/91 93/181/93 92/182/92
f 94/183/94 95/184/95 10/185/10 9/186/9
f 96/187/96 15/188/15 14/189/14 97/190/97
f 98/191/98 101/192/101 100/193/100 99/194/99
f 102/195/102 104/196/104 103/197/103
f 105/198/105 26/199/26 25/200/25 106/201/106
f 107/202/107 110/203/110 109/204/109 108/205/108
f 111/206/111 114/207/114 113/208/113 112/209/112
f 115/210/115 106/211/106 25/37/25 36/36/36
f 116/212/116 119/213/119 118/214/118 117/215/117
f 120/216/120 99/194/99 100/193/100 121/217/121
f 90/177/90 120/218/120 121/219/121 89/178/89
f 108/220/108 109/221/109 119/213/119 116/212/116
f 123/222/123 108/220/108 116/212/116 124/223/124
f 124/223/124 116/212/116 117/215/117 125/224/125
f 121/225/121 100/226/100 106/211/106 115/210/115
f 89/178/89 121/219/121 115/227/115 95/184/95
f 95/184/95 115/227/115 36/228/36 10/185/10
f 117/215/117 118/214/118 114/229/114 111/230/111
f 125/224/125 117/215/117 111/230/111 126/231/126
f 126/232/126 111/206/111 112/209/112 122/233/122
f 37/64/37 38/65/38 110/203/110 107/202/107
f 49/66/49 37/64/37 107/202/107 127/234/127
f 127/234/127 107/202/107 108/205/108 123/235/123
f 110/236/110 38/237/38 52/238/52 128/239/128
f 109/221/109 110/236/110 128/239/128 103/197/103
f 101/192/101 105/198/105 106/201/106 100/193/100
f 104/196/104 118/214/118 119/213/119
f 104/196/104 119/213/119 103/197/103
f 103/197/103 119/213/119 109/221/109
f 104/196/104 102/195/102 101/192/101 98/191/98
f 118/214/118 104/196/104 98/191/98 114/229/114
f 114/229/114 98/191/98 99/194/99 113/240/113
f 93/241/93 96/187/96 97/190/97 91/242/91
f 123/243/123 93/244/93 96/245/96 127/246/127
f 127/246/127 96/245/96 15/93/15 49/247/49
f 88/179/88 89/178/89 95/184/95 94/183/94
f 91/242/91 97/190/97 94/248/94 88/249/88
f 97/190/97 14/189/14 9/250/9 94/248/94
f 93/181/93 123/251/123 124/252/124
f 93/181/93 124/252/124 92/182/92
f 92/182/92 124/252/124 125/253/125
f 126/254/126 122/255/122 90/177/90 87/176/87
f 125/253/125 126/254/126 87/176/87 92/182/92
f 92/182/92 87/176/87 88/179/88 91/180/91
f 128/256/128 52/94/52 15/93/15 96/245/96
f 103/257/103 128/256/128 96/245/96 93/244/93
f 94/258/94 9/100/9 26/99/26 105/259/105
f 88/260/88 94/258/94 105/259/105 101/261/101
f 101/262/101 102/263/102 91/180/91 88/179/88
f 93/181/93 91/180/91 102/263/102 103/264/103
f 122/265/122 130/266/130 129/267/129 90/268/90
f 130/269/130 134/270/134 133/271/133 129/272/129
f 112/273/112 131/274/131 130/275/130 122/276/122
f 90/268/90 129/267/129 132/277/132 120/278/120
f 113/240/113 99/194/99 120/216/120 112/279/112
f 134/270/134 138/280/138 145/281/145 137/282/137 133/271/133
f 133/283/133 137/284/137 147/285/147 140/286/140 136/287/136
f 132/288/132 136/289/136 135/290/135 131/291/131
f 131/274/131 135/292/135 134/293/134 130/275/130
f 129/294/129 133/295/133 136/289/136 132/288/132
f 161/296/161 150/297/150 142/298/142 153/299/153
f 136/289/136 140/300/140 148/301/148 139/302/139 135/290/135
f 135/303/135 139/304/139 146/305/146 138/306/138 134/307/134
f 160/308/160 150/297/150 143/309/143 152/310/152
f 159/311/159 151/312/151 144/313/144 155/314/155
f 158/315/158 149/316/149 141/317/141 156/318/156
f 157/319/157 152/320/152 143/321/143 154/322/154
f 155/323/155 144/324/144 152/320/152 157/319/157
f 140/300/140 155/323/155 157/319/157 148/301/148
f 148/301/148 157/319/157 154/322/154 139/302/139
f 153/325/153 142/326/142 149/316/149 158/315/158
f 138/280/138 153/325/153 158/315/158 145/281/145
f 145/281/145 158/315/158 156/318/156 137/282/137
f 156/327/156 141/328/141 151/312/151 159/311/159
f 137/284/137 156/327/156 159/311/159 147/285/147
f 147/285/147 159/311/159 155/314/155 140/286/140
f 149/329/149 142/298/142 150/297/150 160/308/160
f 141/330/141 149/329/149 160/308/160 151/331/151
f 151/331/151 160/308/160 152/310/152 144/332/144
f 154/333/154 143/309/143 150/297/150 161/296/161
f 139/304/139 154/333/154 161/296/161 146/305/146
f 146/305/146 161/296/161 153/299/153 138/306/138
f 120/216/120 132/288/132 112/279/112
f 131/291/131 112/279/112 132/288/132
