# Blender 4.2.0
# www.blender.org
mtllib watermask.mtl
o Cube.005
v 0.741836 0.028653 0.696363
v 0.707881 -0.008450 1.135809
v 0.788748 0.309089 1.052278
v 0.747855 0.335116 0.646006
v 0.627013 -0.188332 1.127568
v 0.657098 -0.277811 0.625214
v 0.551523 -0.449736 1.166625
v 0.353940 -0.093054 1.431529
v -0.000000 -0.177657 1.727250
v -0.000000 0.137682 1.729234
v 0.394374 0.223385 1.390756
v 0.275762 -0.537544 1.328071
v 0.313507 -0.282373 1.380531
v -0.000000 -0.411763 1.633494
v -0.000000 -0.625352 1.489516
v -0.639247 -0.187755 1.127568
v -0.557640 -0.449447 1.166625
v -0.669332 -0.277234 0.625214
v -0.360057 -0.092766 1.431529
v -0.400491 0.223674 1.390756
v -0.278820 -0.537400 1.328071
v -0.319623 -0.282085 1.380531
v 0.834370 0.044983 0.913400
v 0.874804 0.376066 0.752963
v 0.892754 0.346685 1.260281
v 0.720114 0.003611 1.265710
v 0.685133 -0.197922 1.133874
v 0.603526 -0.412428 1.264310
v 0.748050 -0.286100 1.073836
v 0.405943 -0.078689 1.556794
v 0.446377 0.260694 1.589486
v -0.000000 0.174701 1.918692
v -0.000000 -0.230850 1.893764
v -0.834370 0.044983 0.913400
v -0.720114 0.003611 1.265710
v -0.892754 0.346686 1.260281
v -0.874804 0.376066 0.752963
v -0.685133 -0.197922 1.133874
v -0.748050 -0.286100 1.073836
v -0.603526 -0.412427 1.264310
v -0.405943 -0.078689 1.556794
v -0.446377 0.260694 1.589486
v 0.238017 -0.761800 1.163852
v 0.476033 -0.669687 1.093924
v 0.476033 -0.674120 1.257482
v 0.238017 -0.766233 1.327410
v 0.816322 0.028873 0.477832
v 0.598364 0.566839 -0.078513
v 0.673310 0.497219 0.062101
v 0.856854 0.037877 0.561090
v 0.420376 0.333812 1.490121
v -0.000000 0.247963 1.823963
v -0.238017 -0.761800 1.163852
v -0.000000 -0.853913 1.233780
v -0.000000 -0.858346 1.397338
v -0.238017 -0.766233 1.327410
v -0.423434 0.333956 1.490121
v -0.846868 0.419948 1.156280
v 0.663385 -0.497617 0.903450
v 0.804851 -0.325549 0.712976
v 0.765082 -0.329694 0.876533
v 0.666444 -0.501906 1.067007
v 0.811330 0.447363 0.699485
v 0.840751 0.419660 1.156280
v -0.666444 -0.497473 0.903450
v -0.476033 -0.669686 1.093924
v -0.476033 -0.674120 1.257482
v -0.666444 -0.501906 1.067007
v -0.817447 0.447652 0.699484
v -0.558594 0.567128 -0.078513
v -0.627424 0.497220 0.062101
v -0.822440 0.029162 0.477833
v -0.856854 0.037877 0.561090
v -0.754070 0.029229 0.696363
v -0.765082 -0.320827 0.549418
v -0.788025 0.020446 0.394575
v -0.760089 0.335693 0.646006
v -0.489765 0.453491 0.056188
v -0.800982 0.309666 1.052278
v -0.720114 -0.007874 1.135809
v -0.810968 -0.325260 0.712975
v -0.765082 -0.329693 0.876533
v -0.666444 -0.493040 0.739892
v -0.476033 -0.665253 0.930366
v 0.523418 0.452915 0.056188
v 0.476033 -0.665253 0.930366
v 0.660327 -0.493328 0.739892
v 0.752848 -0.321404 0.549418
v -0.238017 -0.757367 1.000294
v -0.000000 -0.849480 1.070223
v 0.775791 0.019870 0.394575
v 0.238017 -0.757367 1.000294
v -0.301763 -0.500380 1.425756
v -0.000000 -0.588332 1.633088
v 0.301763 -0.500380 1.425756
v 0.877573 0.335287 0.985641
v 0.577573 1.030480 1.285641
v 0.778270 0.556070 -0.063874
v 1.078270 1.383316 -0.217899
v 1.005901 0.769379 -0.173420
v 0.807053 0.435287 0.742612
v 0.807053 1.030480 0.742612
v 0.712293 0.648595 1.383197
v -0.000000 0.223794 1.834584
v -0.000000 0.918988 1.734585
v 0.356644 0.987833 1.457368
v 0.556644 0.292639 1.457368
v -0.000000 0.537103 1.847156
v 1.034684 0.648595 0.742612
v 1.005901 0.952196 -0.173420
v 0.712293 0.831412 1.383197
v -0.000000 0.719920 1.847156
v 1.034684 0.831412 0.742612
v 0.941501 0.860787 -0.173420
v 0.644396 0.740004 1.383197
v -0.000000 0.628511 1.678019
v 0.845086 0.740004 0.742612
v 1.122282 1.051730 -0.063874
v 0.663515 0.930946 1.346033
v -0.000000 0.819454 1.797544
v 0.951064 0.930946 0.742612
v 0.922282 0.662725 -0.063874
v 0.663515 0.541941 1.346033
v -0.000000 0.394509 1.797544
v 0.951064 0.541941 0.742612
v 0.439832 0.505948 1.560668
v 0.439832 0.888765 1.560668
v 0.397906 0.697356 1.495970
v 0.409712 0.988299 1.518741
v 0.409712 0.399294 1.518741
v -0.877573 0.335287 0.985641
v -0.577573 1.030480 1.285641
v -0.778270 0.556070 -0.063874
v -1.078270 1.383316 -0.217899
v -1.005901 0.769379 -0.173420
v -0.807053 0.435287 0.742612
v -0.807053 1.030480 0.742612
v -0.712293 0.648595 1.383197
v -0.356644 0.987833 1.457368
v -0.556644 0.292639 1.457368
v -1.034684 0.648595 0.742612
v -1.005901 0.952196 -0.173420
v -0.712293 0.831412 1.383197
v -1.034684 0.831412 0.742612
v -0.941502 0.860787 -0.173420
v -0.644396 0.740004 1.383197
v -0.845086 0.740004 0.742612
v -1.122282 1.051730 -0.063874
v -0.663515 0.930946 1.346033
v -0.951065 0.930946 0.742612
v -0.922282 0.662725 -0.063874
v -0.663515 0.541941 1.346033
v -0.951064 0.541941 0.742612
v -0.439832 0.505948 1.560668
v -0.439832 0.888765 1.560668
v -0.397906 0.697356 1.495970
v -0.409712 0.988299 1.518741
v -0.409712 0.399294 1.518741
v 0.805885 0.679666 0.209020
v 0.688811 0.592961 0.209020
v 0.674801 0.494770 0.864655
v 0.674801 0.978634 0.864655
v 0.469540 0.978634 1.306112
v 0.539407 0.581475 1.355207
v 0.469540 0.494770 1.306112
v 0.289935 0.360100 1.445717
v 0.821510 0.840682 0.119964
v 0.873864 0.766371 0.119964
v 0.988811 1.265473 0.083804
v 0.523863 0.742491 1.385420
v 0.579061 0.668180 1.385420
v 0.289935 0.943964 1.445717
v -0.000000 0.887996 1.671081
v 0.539407 0.897718 1.355207
v 0.333077 0.944343 1.495611
v 0.323479 0.707820 1.477099
v 0.579061 0.816801 1.385420
v 0.357563 0.863427 1.529695
v 0.357563 0.552214 1.529695
v -0.000000 0.304132 1.671081
v -0.000000 0.577541 1.467260
v -0.000000 0.490837 1.722264
v -0.000000 0.651852 1.625096
v 0.859854 0.668180 0.864655
v 0.791875 0.581475 0.864655
v 0.705720 0.742491 0.864655
v 0.805885 0.995909 0.209020
v 0.873864 0.914993 0.119964
v -0.000000 0.807080 1.722264
v -0.000000 0.726163 1.762597
v 0.791875 0.897718 0.864655
v 0.859854 0.816801 0.864655
v 0.333077 0.465509 1.495611
v -0.805885 0.679666 0.209020
v -0.688811 0.592961 0.209020
v -0.674801 0.494770 0.864655
v -0.674801 0.978634 0.864655
v -0.469540 0.978634 1.306112
v -0.539407 0.581475 1.355207
v -0.469540 0.494770 1.306112
v -0.289935 0.360100 1.445717
v -0.821510 0.840682 0.119964
v -0.873864 0.766371 0.119964
v -0.988811 1.265473 0.083804
v -0.523863 0.742491 1.385420
v -0.579061 0.668180 1.385420
v -0.289935 0.943964 1.445717
v -0.539407 0.897718 1.355207
v -0.333077 0.944343 1.495611
v -0.323479 0.707820 1.477099
v -0.579061 0.816801 1.385420
v -0.357563 0.863427 1.529695
v -0.357563 0.552214 1.529695
v -0.859854 0.668180 0.864655
v -0.791875 0.581475 0.864655
v -0.705720 0.742491 0.864655
v -0.805885 0.995909 0.209020
v -0.873864 0.914993 0.119964
v -0.791875 0.897718 0.864655
v -0.859854 0.816801 0.864655
v -0.333077 0.465509 1.495611
vn -0.9930 0.1067 -0.0506
vn -0.9941 -0.1041 -0.0298
vn -0.9072 0.3585 -0.2203
vn -0.9547 0.2284 0.1909
vn -0.6839 0.2021 0.7011
vn -0.9345 0.0143 -0.3557
vn -0.6320 0.7464 0.2086
vn 0.1810 -0.9790 -0.0939
vn -0.0000 -0.9896 -0.1442
vn -0.0034 0.4027 -0.9153
vn -0.6472 0.3207 -0.6916
vn -0.1794 0.9823 0.0541
vn 0.6362 -0.2730 0.7216
vn 0.0038 -0.4200 0.9075
vn 0.0017 0.9979 0.0650
vn 0.7289 0.2259 0.6463
vn 0.6407 0.7431 0.1933
vn 0.9328 0.0231 -0.3596
vn -0.1863 -0.9789 -0.0846
vn 0.6427 0.3157 -0.6981
vn 0.1838 0.9816 0.0509
vn -0.6300 -0.2765 0.7257
vn 0.9791 -0.1817 0.0916
vn 0.9577 0.2807 -0.0633
vn 0.8217 0.3141 0.4756
vn 0.6525 -0.5798 0.4879
vn 0.2297 0.1352 0.9638
vn 0.3408 0.3024 0.8902
vn 0.9178 -0.1921 0.3473
vn 0.5508 -0.7056 0.4457
vn 0.5281 0.3744 0.7622
vn -0.0004 0.3133 0.9497
vn -0.0003 -0.7250 0.6888
vn -0.9804 -0.1781 0.0846
vn -0.6548 -0.5875 0.4755
vn -0.8221 0.3071 0.4795
vn -0.9643 0.2490 -0.0899
vn -0.1990 0.1884 0.9617
vn -0.9178 -0.1921 0.3473
vn -0.3264 0.3283 0.8864
vn -0.5518 -0.7036 0.4477
vn -0.5289 0.3713 0.7632
vn 0.3543 -0.9348 -0.0253
vn 0.5157 -0.8564 -0.0262
vn 0.5814 -0.6897 0.4316
vn 0.4839 -0.7759 0.4047
vn 0.8741 -0.2554 -0.4131
vn 0.1992 0.4830 -0.8527
vn 0.9204 0.2212 -0.3224
vn 0.9893 -0.0842 -0.1192
vn -0.2277 0.9737 -0.0095
vn -0.0009 0.9810 0.1939
vn -0.3543 -0.9348 -0.0253
vn -0.0000 -0.9996 -0.0271
vn -0.0000 -0.8898 0.4564
vn -0.4839 -0.7759 0.4047
vn 0.2268 0.9739 -0.0122
vn -0.1590 0.9868 -0.0295
vn 0.7541 -0.6567 -0.0021
vn 0.9119 -0.3979 -0.1005
vn 0.9377 -0.3365 0.0865
vn 0.8168 -0.5435 0.1934
vn -0.0098 0.9962 0.0863
vn 0.1341 0.9909 -0.0142
vn -0.7567 -0.6536 0.0130
vn -0.5151 -0.8568 -0.0232
vn -0.5812 -0.6893 0.4325
vn -0.8169 -0.5416 0.1984
vn -0.0538 0.9979 0.0359
vn -0.1633 0.4881 -0.8574
vn -0.9201 0.2284 -0.3183
vn -0.9141 -0.1689 -0.3687
vn -0.9936 -0.0389 -0.1059
vn 0.9942 0.0998 -0.0411
vn -0.1544 -0.5318 -0.8327
vn 0.3918 -0.6256 -0.6747
vn 0.9540 0.2044 0.2194
vn 0.8963 -0.1141 -0.4285
vn 0.9141 0.3387 -0.2231
vn 0.9946 -0.0628 -0.0830
vn -0.9221 -0.3814 -0.0659
vn -0.9399 -0.3258 0.1026
vn 0.1993 -0.8377 -0.5085
vn 0.0680 -0.4412 -0.8948
vn -0.8795 -0.0941 -0.4665
vn -0.0725 -0.4529 -0.8886
vn -0.1928 -0.8393 -0.5084
vn 0.1275 -0.5361 -0.8345
vn 0.2163 -0.3367 -0.9164
vn -0.0021 -0.5199 -0.8542
vn -0.4023 -0.6069 -0.6854
vn -0.2196 -0.3400 -0.9144
vn -0.1086 0.6721 0.7325
vn 0.0003 0.3456 0.9384
vn 0.1103 0.6685 0.7355
vn 0.5157 -0.8541 0.0674
vn 0.8341 0.1773 0.5224
vn -0.3168 -0.3587 -0.8780
vn 0.0728 0.8101 -0.5817
vn -0.0444 0.4494 -0.8922
vn 0.1270 -0.9879 -0.0885
vn 0.9677 -0.2237 0.1165
vn 0.7545 0.1509 0.6388
vn -0.0000 -0.6616 0.7499
vn -0.0000 0.4444 0.8958
vn 0.6211 0.0370 0.7829
vn 0.4334 -0.8654 0.2514
vn -0.0000 0.1224 0.9925
vn 0.9767 0.0909 0.1942
vn 0.0023 0.1474 -0.9891
vn 0.7655 -0.1055 0.6347
vn -0.0000 -0.1743 0.9847
vn 0.9019 -0.4037 0.1536
vn -0.6296 -0.0693 -0.7738
vn 0.6157 -0.0278 0.7875
vn -0.0000 0.0646 0.9979
vn 0.9714 0.0221 0.2364
vn 0.5925 0.6719 -0.4445
vn 0.5863 0.6707 0.4543
vn -0.0000 0.5962 0.8028
vn 0.8599 0.4251 0.2825
vn -0.0839 -0.5044 -0.8594
vn 0.7665 -0.3187 0.5576
vn -0.0000 -0.0900 0.9959
vn 0.8099 -0.5779 0.1007
vn 0.5624 -0.0216 0.8266
vn 0.5355 0.0687 0.8418
vn 0.4936 -0.0091 0.8696
vn 0.3582 0.6976 0.6205
vn 0.6171 -0.0984 0.7807
vn -0.5157 -0.8541 0.0674
vn -0.8341 0.1773 0.5224
vn 0.3168 -0.3587 -0.8780
vn -0.0728 0.8101 -0.5817
vn 0.0444 0.4494 -0.8922
vn -0.1270 -0.9879 -0.0885
vn -0.9677 -0.2237 0.1165
vn -0.7545 0.1509 0.6388
vn -0.6211 0.0370 0.7829
vn -0.4334 -0.8654 0.2514
vn -0.9767 0.0909 0.1942
vn -0.0023 0.1474 -0.9891
vn -0.7655 -0.1055 0.6347
vn -0.9019 -0.4037 0.1536
vn 0.6296 -0.0693 -0.7738
vn -0.6157 -0.0278 0.7875
vn -0.9714 0.0221 0.2364
vn -0.5925 0.6719 -0.4445
vn -0.5863 0.6707 0.4543
vn -0.8599 0.4251 0.2825
vn 0.0839 -0.5044 -0.8594
vn -0.7665 -0.3187 0.5576
vn -0.8099 -0.5779 0.1007
vn -0.5624 -0.0216 0.8266
vn -0.5355 0.0687 0.8418
vn -0.4936 -0.0091 0.8696
vn -0.3582 0.6976 0.6205
vn -0.6171 -0.0984 0.7807
vn -0.7107 0.6989 -0.0807
vn -0.9855 0.0517 -0.1617
vn -0.9585 -0.0863 -0.2716
vn -0.2822 -0.9550 -0.0910
vn 0.0352 -0.9991 0.0217
vn -0.6815 0.5785 -0.4483
vn -0.8027 0.1240 -0.5833
vn -0.5865 -0.3187 -0.7446
vn -0.9697 0.0350 -0.2418
vn -0.9237 -0.2017 -0.3257
vn -0.4789 -0.6814 -0.5535
vn -0.6085 0.0277 -0.7931
vn -0.7459 -0.1495 -0.6490
vn 0.1377 -0.9891 -0.0516
vn -0.0000 -0.9942 -0.1075
vn -0.5805 -0.6690 -0.4642
vn -0.3582 -0.6976 -0.6205
vn -0.4052 0.2722 -0.8728
vn -0.7570 0.1044 -0.6450
vn -0.5355 -0.0687 -0.8418
vn -0.4578 -0.0006 -0.8891
vn -0.0000 -0.5391 -0.8423
vn -0.0000 -0.2155 -0.9765
vn -0.0000 -0.1879 -0.9822
vn -0.0000 0.5703 -0.8214
vn -0.9684 -0.0936 -0.2311
vn -0.7072 0.6940 -0.1347
vn -0.9604 -0.0202 -0.2778
vn -0.9534 -0.1280 -0.2732
vn -0.7991 0.5400 -0.2641
vn -0.0000 -0.5962 -0.8028
vn -0.0000 0.1743 -0.9847
vn -0.8363 -0.4814 -0.2622
vn -0.9629 0.1617 -0.2158
vn -0.6584 0.2255 -0.7181
vn 0.7107 0.6989 -0.0807
vn 0.9855 0.0517 -0.1617
vn 0.9585 -0.0863 -0.2716
vn 0.2822 -0.9550 -0.0910
vn -0.0352 -0.9991 0.0217
vn 0.6815 0.5785 -0.4483
vn 0.8027 0.1240 -0.5833
vn 0.5865 -0.3187 -0.7446
vn 0.9697 0.0350 -0.2418
vn 0.9237 -0.2017 -0.3257
vn 0.4789 -0.6814 -0.5535
vn 0.6085 0.0277 -0.7931
vn 0.7459 -0.1495 -0.6490
vn -0.1377 -0.9891 -0.0516
vn 0.5805 -0.6690 -0.4642
vn 0.3582 -0.6976 -0.6205
vn 0.4052 0.2722 -0.8728
vn 0.7570 0.1044 -0.6450
vn 0.5355 -0.0687 -0.8418
vn 0.4578 -0.0006 -0.8891
vn 0.9684 -0.0936 -0.2311
vn 0.7072 0.6940 -0.1347
vn 0.9604 -0.0202 -0.2778
vn 0.9534 -0.1280 -0.2732
vn 0.7991 0.5400 -0.2641
vn 0.8363 -0.4814 -0.2622
vn 0.9629 0.1617 -0.2158
vn 0.6584 0.2255 -0.7181
vt 0.833129 0.814395
vt 0.879817 0.749180
vt 0.921307 0.798447
vt 0.868837 0.861481
vt 0.853346 0.726855
vt 0.783341 0.783794
vt 0.821420 0.692868
vt 0.899796 0.670536
vt 0.908571 0.594917
vt 0.969874 0.597760
vt 0.946930 0.701478
vt 0.253568 0.894346
vt 0.267511 0.940932
vt 0.192774 0.940169
vt 0.192809 0.895042
vt 0.865509 0.457204
vt 0.830778 0.488685
vt 0.800618 0.394442
vt 0.906667 0.518090
vt 0.956344 0.491619
vt 0.131588 0.894308
vt 0.117214 0.940879
vt 0.574795 0.614273
vt 0.522565 0.677333
vt 0.494193 0.587066
vt 0.547947 0.536222
vt 0.603371 0.532986
vt 0.653764 0.495218
vt 0.629720 0.548798
vt 0.497298 0.477096
vt 0.450277 0.507769
vt 0.443030 0.427347
vt 0.473350 0.426107
vt 0.553773 0.236351
vt 0.537874 0.309554
vt 0.481633 0.267818
vt 0.500242 0.183347
vt 0.589914 0.314783
vt 0.612463 0.293169
vt 0.644968 0.333875
vt 0.492135 0.374446
vt 0.444791 0.348064
vt 0.740185 0.453928
vt 0.719674 0.500724
vt 0.700770 0.478529
vt 0.714872 0.441931
vt 0.618371 0.702002
vt 0.559658 0.868783
vt 0.560911 0.828528
vt 0.607873 0.684288
vt 0.432161 0.523597
vt 0.426556 0.427912
vt 0.731604 0.359995
vt 0.737737 0.406367
vt 0.714480 0.408299
vt 0.709522 0.375687
vt 0.426556 0.333572
vt 0.469894 0.249520
vt 0.695033 0.563934
vt 0.668520 0.624073
vt 0.656516 0.588380
vt 0.678849 0.532417
vt 0.510166 0.696466
vt 0.482517 0.607668
vt 0.670177 0.266700
vt 0.703997 0.319812
vt 0.690357 0.343310
vt 0.661113 0.297770
vt 0.487957 0.167487
vt 0.511369 0.001398
vt 0.516786 0.036485
vt 0.582592 0.151686
vt 0.575441 0.168681
vt 0.853140 0.368297
vt 0.780599 0.383037
vt 0.816703 0.326154
vt 0.893269 0.324429
vt 0.835053 0.213591
vt 0.939300 0.392305
vt 0.893765 0.437390
vt 0.589548 0.134687
vt 0.547660 0.014382
vt 0.649160 0.183949
vt 0.637461 0.216021
vt 0.631624 0.250788
vt 0.918665 0.320651
vt 0.969568 0.392736
vt 0.849366 0.180997
vt 0.680094 0.232940
vt 0.719267 0.290450
vt 0.802143 0.962668
vt 0.894077 0.868098
vt 0.812454 0.997023
vt 0.951878 0.801390
vt 0.741945 0.528707
vt 0.712455 0.598435
vt 0.686944 0.657429
vt 0.983408 0.492594
vt 0.999023 0.599035
vt 0.759093 0.337799
vt 0.773758 0.402997
vt 0.974121 0.703274
vt 0.628513 0.719857
vt 0.597167 0.849370
vt 0.772645 0.471057
vt 0.671526 0.378057
vt 0.686571 0.410392
vt 0.675377 0.445577
vt 0.765947 0.538994
vt 0.833735 0.541846
vt 0.837584 0.591676
vt 0.761533 0.588308
vt 0.773615 0.491229
vt 0.069974 0.894212
vt 0.040642 0.935799
vt 0.192759 0.985109
vt 0.107226 0.975977
vt 0.020819 0.966145
vt 0.779475 0.432405
vt 0.314704 0.894212
vt 0.343224 0.935920
vt 0.764907 0.686038
vt 0.761533 0.637830
vt 0.829234 0.640582
vt 0.363005 0.966295
vt 0.277451 0.976046
vt 0.765341 0.744419
vt 0.762395 0.793233
vt 0.793117 0.853063
vt 0.659780 0.382276
vt 0.634541 0.348714
vt 0.675470 0.411066
vt 0.662484 0.442451
vt 0.640007 0.480044
vt 0.588880 0.326331
vt 0.556800 0.321098
vt 0.508537 0.377492
vt 0.486240 0.425520
vt 0.514124 0.471773
vt 0.566020 0.522007
vt 0.601180 0.517752
vt 0.370040 0.195316
vt 0.401802 0.204512
vt 0.385008 0.317317
vt 0.357863 0.314716
vt 0.337213 0.313417
vt 0.369870 0.369895
vt 0.349202 0.370873
vt 0.318317 0.321389
vt 0.313659 0.374578
vt 0.298305 0.314853
vt 0.278146 0.375889
vt 0.230050 0.253408
vt 0.277437 0.317585
vt 0.257754 0.377533
vt 0.231743 0.350877
vt 0.277933 0.456376
vt 0.257905 0.456376
vt 0.384775 0.372122
vt 0.368061 0.456376
vt 0.348945 0.456376
vt 0.251632 0.202126
vt 0.275241 0.195815
vt 0.262145 0.047728
vt 0.291121 0.025142
vt 0.370148 0.039486
vt 0.430431 0.001151
vt 0.311693 0.024350
vt 0.334915 0.020477
vt 0.347209 0.190717
vt 0.311412 0.199820
vt 0.333949 0.456376
vt 0.304920 0.456376
vt 0.228536 0.046910
vt 0.215870 0.206955
vt 0.235715 0.456376
vt 0.370040 0.717436
vt 0.357863 0.598036
vt 0.385008 0.595435
vt 0.401802 0.708240
vt 0.337213 0.599335
vt 0.349202 0.541879
vt 0.369870 0.542857
vt 0.318317 0.591363
vt 0.313659 0.538174
vt 0.298305 0.597899
vt 0.278146 0.536863
vt 0.230050 0.659344
vt 0.231743 0.561875
vt 0.257754 0.535219
vt 0.277437 0.595167
vt 0.384775 0.540630
vt 0.251632 0.710626
vt 0.275241 0.716937
vt 0.262145 0.865024
vt 0.291121 0.887610
vt 0.370148 0.873266
vt 0.430431 0.911601
vt 0.311693 0.888402
vt 0.311412 0.712932
vt 0.347210 0.722035
vt 0.334915 0.892275
vt 0.228536 0.865842
vt 0.215871 0.705797
vt 0.037365 0.243974
vt 0.027746 0.345611
vt 0.003622 0.344732
vt 0.011353 0.245363
vt 0.045801 0.346608
vt 0.030928 0.394749
vt 0.014077 0.391748
vt 0.061028 0.355401
vt 0.063060 0.401771
vt 0.079009 0.350984
vt 0.093636 0.400343
vt 0.117885 0.360050
vt 0.134984 0.405347
vt 0.111267 0.404657
vt 0.097175 0.354925
vt 0.122560 0.468885
vt 0.085175 0.468885
vt 0.019450 0.468885
vt 0.000977 0.468885
vt 0.003899 0.392168
vt 0.124199 0.261752
vt 0.107236 0.254824
vt 0.131426 0.148055
vt 0.114267 0.123217
vt 0.054290 0.128951
vt 0.010217 0.069882
vt 0.096846 0.121258
vt 0.080789 0.255715
vt 0.055398 0.244209
vt 0.079178 0.113401
vt 0.056312 0.468885
vt 0.033032 0.468885
vt 0.155966 0.157632
vt 0.148296 0.272802
vt 0.150956 0.468885
vt 0.037365 0.693797
vt 0.011353 0.692408
vt 0.003622 0.593038
vt 0.027746 0.592159
vt 0.045801 0.591163
vt 0.014077 0.546023
vt 0.030928 0.543022
vt 0.061028 0.582370
vt 0.063060 0.535999
vt 0.079009 0.586787
vt 0.093636 0.537427
vt 0.117885 0.577720
vt 0.097175 0.582845
vt 0.111267 0.533114
vt 0.134984 0.532423
vt 0.003899 0.545602
vt 0.124199 0.676018
vt 0.107236 0.682947
vt 0.131426 0.789716
vt 0.114267 0.814553
vt 0.054290 0.808819
vt 0.010217 0.867889
vt 0.096846 0.816513
vt 0.079178 0.824370
vt 0.055397 0.693561
vt 0.080789 0.682055
vt 0.155966 0.780138
vt 0.148296 0.664968
vt 0.066142 0.046112
vt 0.014406 0.001115
vt 0.182667 0.679106
vt 0.177422 0.576627
vt 0.014406 0.936656
vt 0.066142 0.891659
vt 0.417067 0.678944
vt 0.433450 0.876597
vt 0.429529 0.812234
vt 0.430593 0.647992
vt 0.096726 0.887657
vt 0.408976 0.438786
vt 0.413301 0.519368
vt 0.423615 0.510589
vt 0.420881 0.438786
vt 0.175879 0.108202
vt 0.144631 0.090013
vt 0.407849 0.303882
vt 0.413301 0.358204
vt 0.423615 0.366983
vt 0.423357 0.322585
vt 0.178697 0.252644
vt 0.213547 0.456376
vt 0.193745 0.393709
vt 0.417067 0.198628
vt 0.430592 0.229580
vt 0.132193 0.875808
vt 0.144631 0.847758
vt 0.112543 0.060752
vt 0.096726 0.050114
vt 0.132193 0.061962
vt 0.177422 0.336125
vt 0.175879 0.829569
vt 0.112543 0.877018
vt 0.407849 0.573690
vt 0.423357 0.554987
vt 0.178697 0.685126
vt 0.193745 0.519043
vt 0.182667 0.233646
vt 0.433450 0.000977
vt 0.429529 0.065339
s 1
usemtl Material.004
f 1/1/1 2/2/2 3/3/3 4/4/4
f 5/5/5 6/6/6 7/7/7
f 8/8/8 9/9/9 10/10/10 11/11/11
f 12/12/12 13/13/13 14/14/14 15/15/15
f 16/16/16 17/17/17 18/18/18
f 19/19/19 20/20/20 10/10/10 9/9/9
f 21/21/21 15/15/15 14/14/14 22/22/22
f 23/23/23 24/24/24 25/25/25 26/26/26
f 27/27/27 28/28/28 29/29/29
f 30/30/30 31/31/31 32/32/32 33/33/33
f 34/34/34 35/35/35 36/36/36 37/37/37
f 38/38/38 39/39/39 40/40/40
f 41/41/41 33/33/33 32/32/32 42/42/42
f 43/43/43 44/44/44 45/45/45 46/46/46
f 47/47/47 48/48/48 49/49/49 50/50/50
f 51/51/51 52/52/52 32/32/32 31/31/31
f 53/53/53 54/54/54 55/55/55 56/56/56
f 57/57/57 58/58/58 36/36/36 42/42/42
f 59/59/59 60/60/60 61/61/61 62/62/62
f 63/63/63 64/64/64 25/25/25 24/24/24
f 65/65/65 66/66/66 67/67/67 68/68/68
f 69/69/69 70/70/70 71/71/71 37/37/37
f 72/72/72 73/73/73 71/71/71 70/70/70
f 74/74/74 18/18/18 75/75/75 76/76/76
f 77/77/77 74/74/74 76/76/76 78/78/78
f 79/79/79 80/80/80 74/74/74 77/77/77
f 80/80/80 16/16/16 18/18/18 74/74/74
f 76/81/76 72/72/72 70/70/70 78/82/78
f 75/83/75 81/84/81 72/72/72 76/81/76
f 81/84/81 82/85/82 73/73/73 72/72/72
f 58/58/58 69/69/69 37/37/37 36/36/36
f 79/79/79 77/77/77 69/86/69 58/87/58
f 77/77/77 78/78/78 70/88/70 69/86/69
f 81/84/81 65/65/65 68/68/68 82/85/82
f 75/83/75 83/89/83 65/65/65 81/84/81
f 83/89/83 84/90/84 66/66/66 65/65/65
f 48/48/48 63/63/63 24/24/24 49/49/49
f 85/91/85 4/4/4 63/92/63 48/93/48
f 4/4/4 3/3/3 64/94/64 63/92/63
f 44/44/44 59/59/59 62/62/62 45/45/45
f 86/95/86 87/96/87 59/59/59 44/44/44
f 87/96/87 88/97/88 60/60/60 59/59/59
f 52/52/52 57/57/57 42/42/42 32/32/32
f 10/10/10 20/20/20 57/98/57 52/99/52
f 20/20/20 79/79/79 58/87/58 57/98/57
f 66/66/66 53/53/53 56/56/56 67/67/67
f 84/90/84 89/100/89 53/53/53 66/66/66
f 89/100/89 90/101/90 54/54/54 53/53/53
f 64/64/64 51/51/51 31/31/31 25/25/25
f 3/3/3 11/11/11 51/102/51 64/94/64
f 11/11/11 10/10/10 52/99/52 51/102/51
f 60/60/60 47/47/47 50/50/50 61/61/61
f 88/97/88 91/103/91 47/47/47 60/60/60
f 91/103/91 85/104/85 48/48/48 47/47/47
f 54/54/54 43/43/43 46/46/46 55/55/55
f 90/101/90 92/105/92 43/43/43 54/54/54
f 92/105/92 86/95/86 44/44/44 43/43/43
f 67/67/67 56/56/56 93/106/93 40/40/40
f 56/56/56 55/55/55 94/107/94 93/106/93
f 35/35/35 41/41/41 42/42/42 36/36/36
f 40/40/40 68/68/68 67/67/67
f 40/40/40 39/39/39 68/68/68
f 39/39/39 82/85/82 68/68/68
f 73/73/73 34/34/34 37/37/37 71/71/71
f 82/85/82 39/39/39 34/34/34 73/73/73
f 39/39/39 38/38/38 35/35/35 34/34/34
f 46/46/46 95/108/95 94/107/94 55/55/55
f 45/45/45 28/28/28 95/108/95 46/46/46
f 26/26/26 25/25/25 31/31/31 30/30/30
f 29/29/29 62/62/62 61/61/61
f 29/29/29 28/28/28 62/62/62
f 28/28/28 45/45/45 62/62/62
f 29/29/29 23/23/23 26/26/26 27/27/27
f 61/61/61 50/50/50 23/23/23 29/29/29
f 50/50/50 49/49/49 24/24/24 23/23/23
f 89/109/89 21/110/21 15/111/15 90/112/90
f 84/113/84 17/17/17 21/110/21 89/109/89
f 17/114/17 21/21/21 22/22/22 16/115/16
f 22/22/22 14/14/14 9/116/9 19/117/19
f 16/115/16 22/22/22 19/117/19 80/118/80
f 80/80/80 79/79/79 20/20/20 19/19/19
f 18/18/18 83/119/83 75/75/75
f 18/18/18 17/17/17 83/119/83
f 17/17/17 84/113/84 83/119/83
f 7/120/7 5/121/5 13/13/13 12/12/12
f 86/122/86 92/123/92 12/124/12 7/7/7
f 92/123/92 90/112/90 15/111/15 12/124/12
f 2/2/2 8/8/8 11/11/11 3/3/3
f 5/121/5 2/125/2 8/126/8 13/13/13
f 13/13/13 8/126/8 9/116/9 14/14/14
f 7/7/7 87/127/87 86/122/86
f 7/7/7 6/6/6 87/127/87
f 6/6/6 88/128/88 87/127/87
f 91/129/91 1/1/1 4/4/4 85/91/85
f 88/128/88 6/6/6 1/1/1 91/129/91
f 6/6/6 5/5/5 2/2/2 1/1/1
f 40/40/40 93/106/93 21/130/21 17/131/17
f 94/107/94 15/132/15 21/130/21 93/106/93
f 95/108/95 12/133/12 15/132/15 94/107/94
f 28/28/28 7/134/7 12/133/12 95/108/95
f 40/40/40 17/131/17 16/135/16 38/38/38
f 80/136/80 35/35/35 38/38/38 16/135/16
f 19/137/19 41/41/41 35/35/35 80/136/80
f 9/138/9 33/33/33 41/41/41 19/137/19
f 8/139/8 30/30/30 33/33/33 9/138/9
f 2/140/2 26/26/26 30/30/30 8/139/8
f 26/26/26 2/140/2 5/141/5 27/27/27
f 7/134/7 28/28/28 27/27/27 5/141/5
f 121/142/121 102/143/102 97/144/97 119/145/119
f 111/146/111 119/145/119 129/147/129 127/148/127
f 115/149/115 111/146/111 127/148/127 128/150/128
f 103/151/103 115/149/115 128/150/128 126/152/126
f 96/153/96 123/154/123 130/155/130 107/156/107
f 130/155/130 126/152/126 108/157/108 124/158/124
f 129/147/129 106/159/106 105/160/105 120/161/120
f 125/162/125 109/163/109 103/151/103 123/154/123
f 122/164/122 100/165/100 109/163/109 125/162/125
f 118/166/118 99/167/99 102/143/102 121/142/121
f 114/168/114 110/169/110 113/170/113 117/171/117
f 128/150/128 127/148/127 112/172/112 116/173/116
f 117/171/117 113/170/113 111/146/111 115/149/115
f 109/163/109 117/171/117 115/149/115 103/151/103
f 126/152/126 128/150/128 116/173/116 108/157/108
f 100/165/100 114/168/114 117/171/117 109/163/109
f 110/169/110 118/166/118 121/142/121 113/170/113
f 127/148/127 129/147/129 120/161/120 112/172/112
f 113/170/113 121/142/121 119/145/119 111/146/111
f 98/174/98 122/164/122 125/162/125 101/175/101
f 101/175/101 125/162/125 123/154/123 96/153/96
f 107/156/107 130/155/130 124/158/124 104/176/104
f 119/145/119 97/144/97 106/159/106 129/147/129
f 123/154/123 103/151/103 126/152/126 130/155/130
f 150/177/150 149/178/149 132/179/132 137/180/137
f 143/181/143 155/182/155 157/183/157 149/178/149
f 146/184/146 156/185/156 155/182/155 143/181/143
f 138/186/138 154/187/154 156/185/156 146/184/146
f 131/188/131 140/189/140 158/190/158 152/191/152
f 158/190/158 124/158/124 108/157/108 154/187/154
f 157/183/157 120/161/120 105/160/105 139/192/139
f 153/193/153 152/191/152 138/186/138 141/194/141
f 151/195/151 153/193/153 141/194/141 135/196/135
f 148/197/148 150/177/150 137/180/137 134/198/134
f 145/199/145 147/200/147 144/201/144 142/202/142
f 156/185/156 116/173/116 112/172/112 155/182/155
f 147/200/147 146/184/146 143/181/143 144/201/144
f 141/194/141 138/186/138 146/184/146 147/200/147
f 154/187/154 108/157/108 116/173/116 156/185/156
f 135/196/135 141/194/141 147/200/147 145/199/145
f 142/202/142 144/201/144 150/177/150 148/197/148
f 155/182/155 112/172/112 120/161/120 157/183/157
f 144/201/144 143/181/143 149/178/149 150/177/150
f 133/203/133 136/204/136 153/193/153 151/195/151
f 136/204/136 131/188/131 152/191/152 153/193/153
f 140/189/140 104/176/104 124/158/124 158/190/158
f 149/178/149 157/183/157 139/192/139 132/179/132
f 152/191/152 158/190/158 154/187/154 138/186/138
f 191/205/191 174/206/174 163/207/163 162/208/162
f 177/209/177 178/210/178 175/211/175 174/206/174
f 170/212/170 176/213/176 178/210/178 177/209/177
f 171/214/171 179/215/179 176/213/176 170/212/170
f 165/216/165 166/217/166 193/218/193 164/219/164
f 193/218/193 182/220/182 181/221/181 179/215/179
f 175/211/175 189/222/189 173/223/173 172/224/172
f 185/225/185 164/219/164 171/214/171 184/226/184
f 159/227/159 185/225/185 184/226/184 168/228/168
f 187/229/187 191/205/191 162/208/162 169/230/169
f 167/231/167 186/232/186 192/233/192 188/234/188
f 176/213/176 183/235/183 190/236/190 178/210/178
f 186/232/186 170/212/170 177/209/177 192/233/192
f 184/226/184 171/214/171 170/212/170 186/232/186
f 179/215/179 181/221/181 183/235/183 176/213/176
f 168/228/168 184/226/184 186/232/186 167/231/167
f 188/234/188 192/233/192 191/205/191 187/229/187
f 178/210/178 190/236/190 189/222/189 175/211/175
f 192/233/192 177/209/177 174/206/174 191/205/191
f 160/237/160 161/238/161 185/225/185 159/227/159
f 161/238/161 165/216/165 164/219/164 185/225/185
f 166/217/166 180/239/180 182/220/182 193/218/193
f 174/206/174 175/211/175 172/224/172 163/207/163
f 164/219/164 193/218/193 179/215/179 171/214/171
f 219/240/219 197/241/197 198/242/198 208/243/208
f 211/244/211 208/243/208 209/245/209 212/246/212
f 205/247/205 211/244/211 212/246/212 210/248/210
f 206/249/206 205/247/205 210/248/210 213/250/213
f 200/251/200 199/252/199 221/253/221 201/254/201
f 221/253/221 213/250/213 181/221/181 182/220/182
f 209/245/209 207/255/207 173/223/173 189/222/189
f 215/256/215 214/257/214 206/249/206 199/252/199
f 194/258/194 203/259/203 214/257/214 215/256/215
f 217/260/217 204/261/204 197/241/197 219/240/219
f 202/262/202 218/263/218 220/264/220 216/265/216
f 210/248/210 212/246/212 190/236/190 183/235/183
f 216/265/216 220/264/220 211/244/211 205/247/205
f 214/257/214 216/265/216 205/247/205 206/249/206
f 213/250/213 210/248/210 183/235/183 181/221/181
f 203/259/203 202/262/202 216/265/216 214/257/214
f 218/263/218 217/260/217 219/240/219 220/264/220
f 212/246/212 209/245/209 189/222/189 190/236/190
f 220/264/220 219/240/219 208/243/208 211/244/211
f 195/266/195 194/258/194 215/256/215 196/267/196
f 196/267/196 215/256/215 199/252/199 200/251/200
f 201/254/201 221/253/221 182/220/182 180/239/180
f 208/243/208 198/242/198 207/255/207 209/245/209
f 199/252/199 206/249/206 213/250/213 221/253/221
f 118/268/118 187/229/187 169/230/169 99/269/99
f 136/204/136 196/270/196 200/271/200 131/188/131
f 134/272/134 204/261/204 217/260/217 148/273/148
f 137/274/137 134/275/134 204/276/204 197/277/197
f 148/273/148 217/260/217 218/263/218 142/278/142
f 105/279/105 139/280/139 207/281/207 173/282/173
f 98/283/98 160/237/160 159/227/159 122/284/122
f 97/285/97 106/286/106 172/287/172 163/288/163
f 101/289/101 161/238/161 160/237/160 98/283/98
f 104/176/104 180/290/180 166/291/166 107/156/107
f 102/292/102 97/285/97 163/288/163 162/293/162
f 135/294/135 203/259/203 194/258/194 151/295/151
f 114/296/114 167/231/167 188/234/188 110/297/110
f 122/284/122 159/227/159 168/228/168 100/298/100
f 107/156/107 166/291/166 165/299/165 96/153/96
f 151/295/151 194/258/194 195/266/195 133/300/133
f 142/278/142 218/263/218 202/262/202 145/301/145
f 139/280/139 132/302/132 198/303/198 207/281/207
f 100/298/100 168/228/168 167/231/167 114/296/114
f 133/300/133 195/266/195 196/267/196 136/304/136
f 140/189/140 201/305/201 180/290/180 104/176/104
f 96/153/96 165/299/165 161/306/161 101/175/101
f 132/302/132 137/274/137 197/277/197 198/303/198
f 99/307/99 102/292/102 162/293/162 169/308/169
f 131/188/131 200/271/200 201/305/201 140/189/140
f 106/286/106 105/279/105 173/282/173 172/287/172
f 145/301/145 202/262/202 203/259/203 135/294/135
f 110/297/110 188/234/188 187/229/187 118/268/118
