# Blender v3.6.2 OBJ File: ''
# www.blender.org
mtllib WaterShield.mtl
o Cube
v 0.400000 1.032721 -0.900000
v 0.400000 -1.110623 -0.900000
v -0.900000 2.799672 -1.000000
v -0.600000 -2.794098 -0.600000
v -0.600000 -2.994098 0.000000
v -0.300000 -2.500000 -1.400000
v 0.400000 -0.010623 -0.900000
v 0.000000 0.005902 -1.000000
v 0.600000 1.532721 0.000000
v -0.900000 2.999672 0.000000
v -0.475679 2.411475 -1.400000
v 0.600000 -1.610623 0.000000
v 0.000000 0.000000 -1.900000
v 1.000000 -0.010623 0.000000
v 0.000000 -2.500000 0.000000
v 0.200000 0.005902 0.000000
v 0.000000 2.411475 0.000000
v 0.400000 1.032721 0.900000
v 0.400000 -1.110623 0.900000
v -0.900000 2.799672 1.000000
v -0.600000 -2.794098 0.600000
v -0.300000 -2.500000 1.400000
v 0.400000 -0.010623 0.900000
v 0.000000 0.005902 1.000000
v -0.475679 2.411475 1.400000
v 0.000000 0.000000 1.900000
vt 0.000000 0.000000
vt 0.375000 0.375000
vt 0.500000 0.375000
vt 0.500000 0.500000
vt 0.000000 0.000000
vt 0.750000 0.500000
vt 0.000000 0.000000
vt 0.750000 0.625000
vt 0.000000 0.000000
vt 0.000000 0.000000
vt 0.375000 0.125000
vt 0.500000 0.125000
vt 0.500000 0.250000
vt 0.375000 0.250000
vt 0.000000 0.000000
vt 0.000000 0.000000
vt 0.000000 0.000000
vt 0.000000 0.000000
vt 0.500000 0.500000
vt 0.500000 0.375000
vt 0.375000 0.375000
vt 0.000000 0.000000
vt 0.750000 0.500000
vt 0.375000 0.250000
vt 0.500000 0.250000
vt 0.000000 0.000000
vn 0.8556 -0.1405 -0.4983
vn 0.8278 0.1904 -0.5277
vn 0.7396 0.5050 -0.4449
vn 0.8917 -0.1321 -0.4330
vn -0.9587 0.2418 0.1501
vn 0.8520 0.4362 -0.2895
vn 0.5489 0.8170 -0.1769
vn 0.8904 0.1377 -0.4340
vn -0.9376 -0.3240 0.1262
vn -0.9441 -0.2265 -0.2395
vn -0.9788 0.1409 -0.1488
vn 0.8590 -0.4286 -0.2799
vn 0.5625 -0.8101 -0.1654
vn 0.8556 -0.1405 0.4983
vn 0.8278 0.1904 0.5277
vn 0.7396 0.5050 0.4449
vn 0.8917 -0.1321 0.4330
vn -0.9587 0.2418 -0.1501
vn 0.8520 0.4362 0.2895
vn 0.5489 0.8170 0.1769
vn 0.8904 0.1377 0.4340
vn -0.9376 -0.3240 -0.1262
vn -0.9441 -0.2265 0.2395
vn -0.9788 0.1409 0.1488
vn 0.8590 -0.4286 0.2799
vn 0.5625 -0.8101 0.1654
usemtl Material
s off
f 2/1/1 6/2/1 13/3/1 7/4/1
f 1/5/2 7/4/2 13/3/2 11/6/2
f 9/7/3 1/5/3 17/8/3
f 7/4/4 14/9/4 12/10/4 2/1/4
f 5/11/5 16/12/5 8/13/5 4/14/5
f 1/5/6 11/6/6 17/8/6
f 3/15/7 10/16/7 17/8/7 11/6/7
f 14/9/8 7/4/8 1/5/8 9/7/8
f 3/15/9 8/13/9 16/12/9 10/16/9
f 3/15/10 11/6/10 13/3/10 8/13/10
f 4/14/11 8/13/11 13/3/11 6/2/11
f 2/1/12 12/10/12 15/17/12 6/2/12
f 4/14/13 6/2/13 15/17/13 5/11/13
f 19/18/14 23/19/14 26/20/14 22/21/14
f 18/22/15 25/23/15 26/20/15 23/19/15
f 9/7/16 17/8/16 18/22/16
f 23/19/17 19/18/17 12/10/17 14/9/17
f 5/11/18 21/24/18 24/25/18 16/12/18
f 18/22/19 17/8/19 25/23/19
f 20/26/20 25/23/20 17/8/20 10/16/20
f 14/9/21 9/7/21 18/22/21 23/19/21
f 20/26/22 10/16/22 16/12/22 24/25/22
f 20/26/23 24/25/23 26/20/23 25/23/23
f 21/24/24 22/21/24 26/20/24 24/25/24
f 19/18/25 22/21/25 15/17/25 12/10/25
f 21/24/26 5/11/26 15/17/26 22/21/26
