# Blender 4.2.0
# www.blender.org
mtllib earth_sword.mtl
o Cube.001
v 0.007817 1.794167 0.072711
v 0.010313 0.303045 -0.018726
v 0.007817 2.307127 0.206097
v 0.024672 0.293589 0.156628
v 0.003248 1.794167 0.072711
v 0.005645 0.303007 -0.018774
v 0.003248 2.307127 0.206097
v -0.004653 0.293539 0.156615
v -0.003069 0.464841 0.306441
v -0.003278 0.461403 -0.135725
v -0.021303 0.303439 0.026866
v -0.022003 0.308083 0.163106
v 0.057349 0.308251 0.162955
v 0.057260 0.303478 0.027132
v -0.024729 0.310059 0.243018
v 0.054458 0.310193 0.242993
v -0.023890 0.301092 -0.042874
v 0.055108 0.301105 -0.042255
v -0.013143 0.427520 0.302752
v 0.000585 0.425766 0.315412
v 0.015558 0.427570 0.302934
v 0.015715 0.418650 -0.132091
v 0.001153 0.410568 -0.141004
v -0.012977 0.418442 -0.132317
v -0.026245 0.193631 0.043430
v -0.014187 0.178955 0.045282
v -0.014811 0.182875 0.199448
v -0.026887 0.197879 0.192849
v 0.077806 0.259137 0.169694
v 0.059225 0.162113 0.217901
v 0.058860 0.158340 0.059652
v 0.077417 0.255347 0.028193
v -0.023156 0.291001 0.266963
v -0.003112 0.243995 0.286022
v 0.056084 0.291374 0.266612
v 0.049910 0.244132 0.285754
v -0.022422 0.281476 -0.061107
v -0.008952 0.273319 -0.068644
v 0.044141 0.273322 -0.068095
v 0.056826 0.281731 -0.060085
v 0.047971 -0.107384 0.197014
v 0.021064 -0.113064 0.166681
v -0.016344 -0.115541 0.168268
v -0.036584 -0.110968 0.198577
v -0.024217 -0.103173 0.230882
v 0.012206 -0.103230 0.243428
v 0.044413 -0.105502 0.229287
v 0.024740 0.090334 0.149801
v 0.044204 0.087017 0.188546
v -0.003384 0.090723 0.130481
v -0.035049 0.100940 0.157391
v -0.025721 0.099767 0.198319
v 0.009120 0.086200 0.215472
v 0.039183 0.086562 0.212260
v 0.026018 0.175139 0.062491
v 0.094883 0.189353 0.110074
v -0.008617 0.179244 0.065959
v -0.047935 0.207853 0.134936
v -0.020649 0.223003 0.182226
v 0.031382 0.217561 0.188557
v 0.089990 0.209322 0.158992
v 0.023447 0.520574 0.057059
v 0.067298 0.529959 0.067426
v 0.013463 0.512765 0.067848
v -0.001115 0.512913 0.094714
v 0.022164 0.519735 0.099973
v 0.035907 0.528086 0.094886
v 0.064536 0.532912 0.078284
v 0.015375 0.642149 0.092788
v 0.031385 0.654170 0.093180
v 0.003071 0.628575 0.103137
v 0.006434 0.623151 0.119367
v 0.023119 0.629334 0.130016
v 0.037341 0.643410 0.124030
v 0.040255 0.654691 0.106474
v -0.016752 0.557111 0.150572
v -0.010792 0.705919 0.200313
v -0.014707 0.712556 0.202107
v -0.009561 0.699372 0.192157
v -0.017145 0.712643 0.196016
v -0.012082 0.699456 0.185773
v -0.015769 0.706093 0.187936
v -0.019986 1.013314 0.164002
v -0.009864 1.013354 0.155714
v -0.025971 1.019642 0.173949
v -0.022596 1.030205 0.177661
v -0.013280 1.039813 0.169380
v -0.005233 1.032561 0.159237
v -0.003556 1.019825 0.154080
v -0.016389 1.268516 0.136029
v -0.006257 1.261339 0.124132
v -0.019625 1.270708 0.154428
v -0.016286 1.265648 0.164405
v -0.009442 1.256141 0.164465
v -0.001590 1.250976 0.151777
v 0.001576 1.253770 0.132980
v -0.021598 1.428379 0.130209
v -0.016700 1.422111 0.120578
v -0.021494 1.429010 0.141864
v -0.016593 1.423562 0.146253
v -0.010497 1.416158 0.141116
v -0.007702 1.412346 0.130096
v -0.010473 1.414963 0.121144
v -0.020181 1.669186 0.150610
v -0.017902 1.667344 0.138303
v -0.016584 1.667648 0.162214
v -0.009853 1.663908 0.164234
v -0.005131 1.660813 0.155259
v -0.005892 1.660666 0.142136
v -0.011513 1.663566 0.134596
v -0.006359 1.864453 0.165564
v -0.006002 1.871061 0.154304
v -0.004278 1.854259 0.169670
v -0.001207 1.848126 0.163490
v 0.000418 1.850819 0.151735
v -0.000617 1.860240 0.143238
v -0.003474 1.869223 0.144380
v 0.007367 1.936393 0.201382
v 0.007446 1.940028 0.188941
v 0.010013 1.929808 0.208537
v 0.013390 1.925223 0.205010
v 0.014956 1.926092 0.193458
v 0.013531 1.931769 0.182588
v 0.010189 1.937973 0.180580
v 0.009675 1.971649 0.217078
v 0.008758 1.980569 0.208034
v 0.013252 1.968105 0.221414
v 0.016798 1.972611 0.217783
v 0.017641 1.981771 0.208916
v 0.015147 1.988683 0.201486
v 0.011194 1.988147 0.201092
v 0.004372 2.072076 0.233536
v 0.004261 2.078921 0.222404
v 0.008058 2.066892 0.239287
v 0.012488 2.067305 0.235324
v 0.014422 2.072928 0.224639
v 0.012447 2.079526 0.215275
v 0.007895 2.082211 0.214278
v 0.019018 2.283701 0.227541
v 0.019086 2.287021 0.222078
v 0.021662 2.280576 0.230415
v 0.025028 2.280000 0.228536
v 0.026581 2.282407 0.223319
v 0.025151 2.285983 0.218693
v 0.021815 2.288037 0.218140
v 0.069343 -0.270012 -0.043696
v 0.068327 -0.302988 -0.060854
v 0.040322 -0.312584 -0.084299
v 0.006577 -0.291902 -0.093231
v -0.007960 -0.255997 -0.085502
v 0.007467 -0.231423 -0.068832
v 0.042103 -0.238129 -0.049277
v 0.028718 -0.035158 -0.028103
v 0.031460 -0.033607 -0.050392
v 0.022161 -0.037918 -0.062352
v 0.007745 -0.044114 -0.056908
v -0.000931 -0.047600 -0.036378
v 0.002651 -0.045968 -0.015286
v 0.015709 -0.039813 -0.011910
v 0.025060 0.107081 -0.000347
v 0.027605 0.111126 -0.026745
v 0.017620 0.109824 -0.041305
v 0.002587 0.104503 -0.034443
v -0.006137 0.098849 -0.010164
v -0.001911 0.096768 0.014544
v 0.011964 0.100533 0.018575
v 0.021329 0.284134 0.016450
v 0.016608 0.285124 0.000828
v 0.006848 0.285866 -0.005751
v 0.000561 0.285904 0.000776
v 0.003104 0.284963 0.016343
v 0.010798 0.283566 0.029891
v 0.018435 0.283297 0.029953
v 0.029624 0.873680 0.128479
v 0.027035 0.871709 0.140160
v 0.031746 0.865480 0.147627
v 0.040155 0.859624 0.145559
v 0.045947 0.858596 0.135936
v 0.037582 0.869928 0.121918
v 0.044861 0.863208 0.125479
v 0.001793 0.575571 0.051927
v -0.000257 0.576128 0.061993
v -0.007839 0.576252 0.065931
v -0.015527 0.575570 0.061458
v -0.017820 0.574667 0.051201
v -0.012587 0.574409 0.042376
v -0.003714 0.574864 0.042721
v 0.064870 -0.213503 -0.090183
v 0.030223 -0.139305 -0.052402
v 0.034435 -0.135440 -0.070986
v 0.066729 -0.217920 -0.107685
v 0.025348 -0.133522 -0.087216
v 0.052368 -0.220579 -0.120374
v 0.009762 -0.136412 -0.086718
v 0.030321 -0.220512 -0.120955
v -0.001444 -0.140734 -0.067546
v 0.014261 -0.216066 -0.108238
v 0.001681 -0.144327 -0.048199
v 0.018659 -0.209131 -0.088167
v 0.015163 -0.142809 -0.039478
v 0.044806 -0.208434 -0.080332
v -0.022576 1.157461 0.175515
v -0.029512 1.158523 0.181307
v -0.032671 1.153269 0.192096
v -0.028673 1.146295 0.199820
v -0.021228 1.142768 0.198450
v -0.016460 1.144667 0.189185
v -0.016935 1.151412 0.179142
v 0.007560 1.236809 0.181913
v 0.012004 1.245957 0.186385
v 0.019060 1.247041 0.183024
v 0.023257 1.239076 0.173592
v 0.021122 1.228365 0.164954
v 0.014297 1.223129 0.164294
v 0.008345 1.226793 0.172680
v 0.020009 1.363721 0.126390
v 0.026476 1.370905 0.135814
v 0.034680 1.375196 0.130651
v 0.038077 1.373308 0.114497
v 0.033874 1.366539 0.098930
v 0.025738 1.360100 0.096243
v 0.019704 1.358897 0.108866
v 0.008162 1.688972 0.172462
v 0.009855 1.690343 0.174778
v 0.011762 1.691433 0.173690
v 0.012446 1.691423 0.170013
v 0.011404 1.690299 0.166540
v 0.009420 1.688917 0.165887
v 0.007968 1.688334 0.168503
v 0.012661 0.785437 0.219811
v 0.013889 0.774659 0.215118
v 0.026214 0.771325 0.196892
v 0.027274 0.801787 0.207691
v 0.010937 0.790467 0.226598
v 0.013669 0.768910 0.217620
v 0.010863 0.784718 0.229313
v 0.012360 0.773940 0.225017
v 0.021885 0.830890 0.232810
v 0.022336 0.798901 0.228382
v 0.031552 0.837134 0.221245
v 0.031884 0.805675 0.216087
v 0.034643 0.824350 0.211134
v 0.034264 0.793271 0.203034
v -0.006676 0.556111 0.156047
v -0.010433 0.548297 0.131392
v -0.018814 0.553143 0.138091
v 0.001126 0.551337 0.149672
v -0.000581 0.547499 0.137504
v -0.011415 0.460781 0.117673
v -0.019160 0.463676 0.119870
v -0.005287 0.463407 0.129098
v -0.020333 0.469287 0.133844
v -0.013516 0.472057 0.144829
v -0.006204 0.469075 0.142281
v -0.004443 0.340588 0.112812
v -0.016427 0.338505 0.106766
v -0.002174 0.342837 0.126753
v -0.026159 0.338508 0.115377
v -0.023024 0.340717 0.130050
v -0.011025 0.342906 0.135502
v -0.001556 0.282954 0.096017
v -0.007092 0.276866 0.085315
v -0.002967 0.284100 0.109262
v -0.014404 0.271616 0.089790
v -0.015880 0.272688 0.103558
v -0.009920 0.279007 0.113241
v 0.029859 -0.211594 0.173793
v 0.035251 -0.257342 0.093345
v 0.018226 -0.287716 0.101567
v 0.006525 -0.242971 0.170772
v -0.013503 -0.297472 0.083347
v -0.026637 -0.252660 0.149077
v -0.035055 -0.278458 0.046116
v -0.045218 -0.234726 0.117150
v -0.030228 -0.245637 0.005027
v -0.033651 -0.205571 0.085501
v -0.004799 -0.222732 0.000085
v -0.000576 -0.181891 0.096251
v 0.025126 -0.229039 0.044194
v 0.026950 -0.188134 0.140162
v -0.011100 1.179597 0.194775
v 0.006372 1.225622 0.191598
v 0.009112 1.232852 0.199610
v -0.010150 1.188805 0.204230
v 0.014203 1.230004 0.206019
v -0.007097 1.188679 0.217518
v 0.016660 1.215819 0.211647
v -0.004263 1.178264 0.222739
v 0.016013 1.203351 0.206047
v -0.003077 1.166556 0.216609
v 0.012447 1.200260 0.196356
v -0.004356 1.161734 0.202969
v 0.007909 1.210105 0.190053
v -0.006211 1.168346 0.193457
v 0.008433 1.046273 -0.013044
v -0.001335 1.297385 0.145010
v 0.015613 1.297411 0.145010
v 0.003814 1.046250 -0.013044
vn -0.0000 0.2517 -0.9678
vn 0.0001 -0.0604 0.9982
vn -0.9995 0.0048 -0.0303
vn 0.0071 0.1039 -0.9946
vn 0.9988 0.0088 -0.0476
vn -0.0003 0.1139 -0.9935
vn -0.2756 -0.9610 0.0234
vn -0.9919 0.1214 0.0382
vn -0.9900 0.1279 -0.0595
vn -0.0008 0.6584 -0.7527
vn 0.3483 0.9370 0.0268
vn 0.9486 0.3166 -0.0017
vn 0.9437 0.3292 -0.0322
vn -0.0131 0.5935 0.8048
vn 0.3399 0.7351 0.5865
vn -0.9996 0.0267 0.0060
vn 0.9399 0.3350 0.0660
vn 0.9413 0.3264 -0.0861
vn 0.9231 0.3844 -0.0135
vn -0.0463 -0.7559 -0.6530
vn 0.0092 -0.4669 -0.8843
vn 0.7098 0.6048 -0.3611
vn -0.9997 0.0225 -0.0074
vn -0.2014 0.9792 0.0241
vn -0.0066 0.2232 0.9748
vn -0.5076 0.6454 0.5708
vn -0.8913 0.3599 -0.2759
vn -0.2114 -0.7152 0.6662
vn -0.9990 0.0433 -0.0060
vn -0.7543 -0.1004 0.6488
vn -0.7777 -0.6285 0.0137
vn 0.9823 -0.1871 0.0023
vn 0.9722 -0.0614 0.2257
vn -0.8779 -0.3005 0.3728
vn -0.6335 -0.5811 -0.5109
vn 0.8682 -0.3381 -0.3632
vn -0.6138 -0.3314 -0.7166
vn 0.7640 0.0831 0.6399
vn 0.6067 -0.2180 -0.7645
vn 0.0054 -0.1597 0.9871
vn 0.2538 0.9654 -0.0600
vn -0.5320 -0.8423 -0.0871
vn 0.9859 -0.1617 -0.0432
vn -0.7079 0.6667 -0.2330
vn 0.2058 -0.9664 0.1538
vn 0.7916 0.5994 0.1188
vn -0.9399 -0.2472 -0.2357
vn -0.7131 0.1059 0.6930
vn -0.1724 0.7053 -0.6876
vn 0.5848 -0.6228 -0.5197
vn -0.9884 -0.0221 -0.1504
vn 0.9758 0.0094 -0.2184
vn 0.7126 0.0812 0.6969
vn -0.1383 0.1424 0.9801
vn -0.3911 -0.1420 -0.9093
vn 0.6720 -0.0733 -0.7369
vn 0.9913 0.0959 0.0902
vn 0.3552 0.1869 0.9159
vn -0.9249 0.0320 0.3788
vn 0.1419 -0.6504 -0.7462
vn 0.9316 -0.2986 0.2074
vn -0.2185 0.1853 0.9581
vn -0.8213 -0.2938 -0.4890
vn 0.7518 -0.0857 0.6538
vn -0.0305 0.2803 0.9594
vn -0.8618 0.0628 -0.5034
vn 0.4637 -0.0416 -0.8850
vn 0.4606 0.2495 0.8519
vn -0.7477 0.2376 0.6201
vn -0.3046 0.0038 -0.9525
vn -0.3033 0.1906 0.9336
vn -0.2983 -0.2196 0.9289
vn -0.7475 0.1364 -0.6502
vn 0.9188 0.2848 -0.2733
vn 0.5088 -0.2241 0.8312
vn -0.9680 0.0529 -0.2454
vn 0.0817 0.2556 -0.9633
vn -0.8809 -0.0268 0.4725
vn -0.9344 -0.2104 -0.2876
vn -0.9654 -0.0754 0.2497
vn 0.7423 0.3155 0.5911
vn -0.5594 0.5481 -0.6218
vn 0.4441 -0.1542 -0.8826
vn 0.9824 0.1868 -0.0054
vn 0.9796 -0.0063 0.2007
vn 0.7389 -0.3249 0.5903
vn -0.9962 -0.0088 0.0864
vn -0.8749 0.3337 -0.3509
vn 0.9825 -0.0708 0.1725
vn 0.1842 -0.5301 0.8277
vn 0.0806 0.6167 -0.7830
vn 0.9199 0.0744 0.3849
vn 0.4531 0.0257 0.8911
vn -0.9518 -0.0101 -0.3066
vn 0.4454 -0.1053 -0.8891
vn 0.8212 0.0021 0.5707
vn -0.9047 0.0520 0.4229
vn -0.7167 -0.0718 -0.6937
vn -0.9876 -0.0003 0.1572
vn -0.8521 0.0448 0.5215
vn -0.8349 -0.0568 -0.5475
vn 0.9979 0.0589 0.0257
vn 0.4894 0.1149 0.8645
vn -0.9945 -0.0280 -0.1010
vn 0.5557 -0.0009 -0.8314
vn 0.6038 0.0016 -0.7972
vn -0.1911 0.0610 -0.9797
vn 0.9960 -0.0191 0.0871
vn -0.5154 -0.0559 0.8551
vn -0.9473 0.0255 -0.3193
vn 0.8940 0.0216 -0.4476
vn 0.7696 -0.0613 0.6356
vn -0.8812 0.3415 -0.3268
vn 0.9555 -0.0329 0.2932
vn -0.9292 0.0420 0.3672
vn -0.8199 0.0757 -0.5675
vn 0.9951 -0.0282 -0.0948
vn 0.3585 -0.0371 0.9328
vn -0.9928 0.0715 -0.0965
vn 0.9937 -0.0801 0.0779
vn 0.9779 -0.0856 -0.1909
vn 0.3776 -0.4864 0.7879
vn -0.9851 0.1637 0.0526
vn 0.6805 0.2383 -0.6930
vn 0.9667 -0.2373 0.0961
vn -0.9283 -0.0119 0.3718
vn -0.9986 -0.0509 0.0110
vn -0.9071 -0.0912 0.4109
vn -0.9520 0.1425 -0.2707
vn 0.9806 0.0220 -0.1948
vn 0.6936 -0.2554 0.6736
vn -0.9983 0.0235 0.0527
vn 0.4946 0.2895 -0.8195
vn -0.8921 0.0658 -0.4471
vn 0.1958 0.1478 -0.9695
vn 0.9885 0.0131 0.1503
vn -0.8549 -0.1315 0.5019
vn -0.9311 0.0145 -0.3646
vn 0.9761 0.0653 -0.2072
vn 0.7157 -0.0916 0.6923
vn 0.4011 0.7805 0.4794
vn 0.9600 -0.0560 -0.2744
vn 0.5995 -0.0074 0.8003
vn -0.9964 0.0707 0.0459
vn 0.1954 0.0047 -0.9807
vn 0.9807 -0.0538 0.1878
vn -0.7690 0.0733 0.6351
vn -0.8965 0.1318 -0.4230
vn -0.3487 -0.4339 0.8307
vn -0.8944 -0.2022 0.3990
vn 0.7792 0.2622 -0.5693
vn 0.3960 -0.4499 0.8005
vn -0.8827 0.3489 -0.3148
vn 0.5108 0.5807 0.6339
vn 0.7327 -0.1621 0.6609
vn -0.9858 -0.0463 0.1612
vn -0.2634 0.2628 -0.9282
vn 0.8219 0.1520 -0.5490
vn -0.3341 -0.2688 0.9034
vn -0.1866 -0.2100 0.9597
vn -0.8677 0.4953 0.0434
vn 0.0217 -0.3678 -0.9297
vn 0.9993 0.0344 -0.0128
vn -0.2306 0.7083 0.6672
vn -0.6314 -0.0885 -0.7704
vn 0.6646 -0.3486 -0.6609
vn -0.9539 0.0226 0.2993
vn -0.9337 0.0261 -0.3572
vn 0.7918 0.1144 -0.6000
vn 0.8133 -0.0969 0.5737
vn -0.9838 -0.0656 0.1671
vn -0.4219 0.1182 -0.8989
vn 0.9941 0.0066 0.1087
vn -0.5516 0.1430 -0.8218
vn 0.9978 0.0477 -0.0460
vn -0.1768 -0.0619 0.9823
vn -0.9883 0.0439 -0.1461
vn 0.7184 0.1665 -0.6754
vn 0.8998 -0.0409 0.4344
vn -0.9260 0.0332 0.3760
vn -0.2801 0.2936 -0.9140
vn 0.9872 -0.1585 0.0150
vn -0.2178 -0.2376 0.9466
vn -0.9154 0.2305 -0.3299
vn 0.7221 0.0757 -0.6876
vn 0.6672 -0.2965 0.6833
vn 0.7557 0.1453 -0.6386
vn -0.9729 -0.0217 -0.2302
vn -0.5372 -0.1367 0.8323
vn 0.9903 0.0802 -0.1135
vn -0.1363 0.1540 -0.9786
vn -0.8842 -0.1265 0.4497
vn 0.7168 -0.0305 0.6966
vn 0.9329 0.3264 0.1519
vn 0.6798 0.4699 -0.5632
vn -0.0250 0.3603 -0.9325
vn -0.7532 0.1316 -0.6445
vn -0.9209 -0.3322 0.2039
vn -0.2873 -0.5766 0.7648
vn 0.5235 -0.2219 0.8226
vn 0.9860 -0.0147 0.1658
vn 0.6581 0.2703 -0.7028
vn 0.8668 0.0973 0.4891
vn -0.9177 -0.2528 0.3065
vn -0.6363 0.0108 -0.7714
vn 0.9781 0.2043 0.0388
vn 0.1198 -0.1568 0.9803
vn -0.9463 -0.1451 -0.2888
vn 0.7612 -0.5734 -0.3029
vn 0.9213 0.2219 0.3193
vn -0.0466 0.7727 0.6331
vn -0.7408 -0.5074 -0.4402
vn 0.9870 -0.1514 0.0536
vn -0.9933 -0.0454 -0.1064
vn -0.7817 0.1446 0.6067
vn -0.3566 0.7040 -0.6142
vn 0.8872 -0.3249 -0.3276
vn -0.1559 -0.5060 0.8483
vn -0.8560 0.5053 0.1091
vn 0.6192 0.2789 -0.7340
vn 0.7094 -0.6774 0.1945
vn -0.9963 0.0664 -0.0547
vn 0.4949 -0.4154 -0.7632
vn 0.9595 0.0083 0.2816
vn -0.8838 0.2587 0.3899
vn -0.8654 -0.1595 -0.4751
vn 0.9770 -0.1625 -0.1384
vn 0.3782 0.3098 0.8723
vn -0.8987 0.0473 -0.4360
vn 0.9407 0.1306 -0.3132
vn 0.5523 -0.0728 0.8305
vn -0.9986 -0.0414 0.0337
vn 0.1544 0.2121 -0.9650
vn 0.9793 0.0443 0.1973
vn -0.7739 -0.1163 0.6226
vn -0.7745 0.2197 -0.5933
vn -0.7234 0.4635 -0.5117
vn 0.7857 -0.4279 0.4468
vn 0.2961 -0.1779 0.9384
vn 0.7973 -0.0805 0.5982
vn 0.9538 -0.0630 0.2938
vn -0.2615 0.2889 -0.9209
vn -0.4935 -0.2803 -0.8233
vn 0.9578 0.1458 -0.2477
vn 0.0036 0.3672 -0.9301
vn -0.9117 0.1847 0.3671
vn -0.0295 -0.3381 0.9407
vn 0.9180 -0.1779 -0.3544
vn -0.9995 0.0167 0.0275
vn -0.4147 0.1646 -0.8950
vn -0.7231 0.2270 -0.6524
vn -0.3838 -0.2789 0.8803
vn 0.7912 -0.1344 0.5965
vn 0.4196 0.3113 -0.8527
vn 0.9453 0.0492 -0.3224
vn -0.8920 0.0659 -0.4472
vn -0.6919 -0.0748 0.7181
vn 0.4505 -0.1371 0.8822
vn 0.9974 -0.0718 -0.0041
vn 0.7344 0.0628 -0.6758
vn 0.6538 -0.2318 0.7203
vn -0.5145 -0.3253 0.7934
vn -0.1513 -0.0741 0.9857
vn 0.9112 -0.0215 0.4114
vn -0.9329 0.0089 0.3601
vn 0.1940 0.0793 -0.9778
vn -0.9829 -0.1673 0.0767
vn 0.5814 0.3018 -0.7555
vn -0.6327 0.1725 -0.7550
vn 0.9990 0.0283 -0.0351
vn 0.7880 -0.4828 0.3820
vn -0.0817 -0.8373 0.5407
vn -0.8272 -0.5254 0.1993
vn -0.9854 0.0952 -0.1410
vn -0.5644 0.7515 -0.3416
vn 0.6398 0.6997 -0.3178
vn 0.9860 0.1569 -0.0571
vn 0.9109 -0.2995 0.2840
vn -0.9203 0.3626 -0.1468
vn -0.7972 0.4539 0.3981
vn -0.1882 0.3622 0.9129
vn 0.7836 -0.2570 0.5656
vn 0.8986 -0.4370 -0.0384
vn 0.6890 -0.3449 -0.6374
vn -0.2900 0.0327 -0.9565
vn -0.9423 0.2993 0.1496
vn 0.0051 0.0077 -1.0000
vn 0.9976 0.0060 -0.0688
vn -0.9989 0.0007 -0.0468
vn -0.0003 0.0116 0.9999
vt 0.089007 0.517659
vt 0.091422 0.517346
vt 0.165392 0.732063
vt 0.167570 0.744901
vt 0.191905 0.176706
vt 0.182383 0.176357
vt 0.092250 0.000977
vt 0.502009 0.887400
vt 0.525904 0.851347
vt 0.539042 0.860849
vt 0.535665 0.874041
vt 0.086066 0.001197
vt 0.086066 0.499181
vt 0.037101 0.846360
vt 0.000977 0.178153
vt 0.089007 0.000990
vt 0.809430 0.819040
vt 0.795153 0.859183
vt 0.722953 0.842710
vt 0.737712 0.804456
vt 0.639655 0.861923
vt 0.640811 0.884012
vt 0.944696 0.937302
vt 0.967114 0.954306
vt 0.859460 0.913166
vt 0.864761 0.895207
vt 0.791011 0.981430
vt 0.790250 0.958793
vt 0.649152 0.915557
vt 0.693681 0.910075
vt 0.802951 0.944278
vt 0.894989 0.467922
vt 0.866645 0.477955
vt 0.964033 0.392138
vt 0.978403 0.405630
vt 0.866645 0.118238
vt 0.892716 0.127646
vt 0.979771 0.179041
vt 0.964904 0.192749
vt 0.648600 0.919198
vt 0.934866 0.371717
vt 0.965194 0.341244
vt 0.720045 0.852529
vt 0.999023 0.251446
vt 0.966143 0.249646
vt 0.997459 0.343659
vt 0.632249 0.807117
vt 0.638342 0.848630
vt 0.943496 0.254954
vt 0.794650 0.869178
vt 0.952737 0.928011
vt 0.963731 0.920112
vt 0.869916 0.840586
vt 0.857935 0.867025
vt 0.701093 0.746464
vt 0.844991 0.746464
vt 0.899895 0.837324
vt 0.629303 0.793606
vt 0.649348 0.024083
vt 0.642785 0.083698
vt 0.607165 0.082974
vt 0.630803 0.034067
vt 0.249389 0.038876
vt 0.293213 0.131607
vt 0.268369 0.132179
vt 0.216059 0.037444
vt 0.793552 0.078692
vt 0.786283 0.144887
vt 0.763045 0.150530
vt 0.765857 0.074521
vt 0.578370 0.076044
vt 0.617564 0.026285
vt 0.249598 0.135417
vt 0.187975 0.047459
vt 0.670550 0.007027
vt 0.670550 0.087102
vt 0.553527 0.069966
vt 0.610906 0.001132
vt 0.732522 0.427518
vt 0.739717 0.546576
vt 0.717795 0.547150
vt 0.709422 0.417220
vt 0.847626 0.050715
vt 0.836466 0.132657
vt 0.810783 0.135065
vt 0.822404 0.068428
vt 0.807817 0.269777
vt 0.820252 0.444641
vt 0.796412 0.447022
vt 0.783729 0.267387
vt 0.859868 0.141490
vt 0.871418 0.266148
vt 0.845996 0.268299
vt 0.782335 0.429654
vt 0.775893 0.553421
vt 0.759598 0.549416
vt 0.757886 0.431105
vt 0.829509 0.269885
vt 0.485757 0.603507
vt 0.495993 0.703359
vt 0.484485 0.707254
vt 0.469740 0.611040
vt 0.753156 0.743521
vt 0.728712 0.741768
vt 0.874153 0.448424
vt 0.855989 0.447178
vt 0.838597 0.445322
vt 0.771625 0.742668
vt 0.705228 0.739059
vt 0.483488 0.790553
vt 0.470666 0.786281
vt 0.471516 0.706526
vt 0.448369 0.617033
vt 0.461176 0.702233
vt 0.425802 0.618420
vt 0.918732 0.488332
vt 0.899541 0.586249
vt 0.886670 0.580834
vt 0.903016 0.479231
vt 0.883624 0.478120
vt 0.875503 0.583584
vt 0.865604 0.589412
vt 0.857918 0.482628
vt 0.933494 0.500262
vt 0.907133 0.594543
vt 0.711934 0.028118
vt 0.694660 0.171844
vt 0.687002 0.164787
vt 0.701086 0.000983
vt 0.902985 0.667309
vt 0.891474 0.660585
vt 0.880894 0.659048
vt 0.868577 0.663556
vt 0.493854 0.788251
vt 0.459634 0.777501
vt 0.857918 0.670237
vt 0.683085 0.158175
vt 0.699683 0.004715
vt 0.675330 0.154533
vt 0.694814 0.001782
vt 0.515056 0.782757
vt 0.525244 0.667232
vt 0.532427 0.673780
vt 0.518583 0.784568
vt 0.564027 0.261635
vt 0.587313 0.397971
vt 0.578480 0.402432
vt 0.553784 0.258236
vt 0.892260 0.776901
vt 0.879434 0.769459
vt 0.579399 0.240101
vt 0.596029 0.385380
vt 0.591825 0.389795
vt 0.571738 0.253999
vt 0.589983 0.544795
vt 0.577838 0.541884
vt 0.436465 0.912314
vt 0.425802 0.909275
vt 0.898203 0.779600
vt 0.895663 0.774462
vt 0.443529 0.901774
vt 0.907793 0.794315
vt 0.457090 0.886992
vt 0.582782 0.649752
vt 0.575044 0.651725
vt 0.567772 0.544505
vt 0.695899 0.313522
vt 0.691494 0.319668
vt 0.685177 0.323452
vt 0.672532 0.323148
vt 0.597306 0.550433
vt 0.661802 0.319145
vt 0.666802 0.154476
vt 0.687541 0.429724
vt 0.700824 0.595126
vt 0.692491 0.596116
vt 0.679615 0.429680
vt 0.691826 0.425688
vt 0.672121 0.425746
vt 0.588868 0.652052
vt 0.697155 0.420402
vt 0.592451 0.657237
vt 0.235797 0.483890
vt 0.243531 0.608118
vt 0.241168 0.603224
vt 0.229661 0.482723
vt 0.573125 0.819974
vt 0.568657 0.816714
vt 0.562531 0.814265
vt 0.553784 0.813736
vt 0.705558 0.592395
vt 0.683840 0.594802
vt 0.711934 0.589490
vt 0.249040 0.610784
vt 0.241525 0.660216
vt 0.236995 0.656516
vt 0.425005 0.937717
vt 0.291198 0.937072
vt 0.291173 0.928734
vt 0.423077 0.930507
vt 0.420797 0.925549
vt 0.285631 0.924684
vt 0.278563 0.920032
vt 0.420450 0.917972
vt 0.240939 0.486097
vt 0.235153 0.598674
vt 0.221700 0.483608
vt 0.275919 0.911558
vt 0.422189 0.909093
vt 0.233246 0.937047
vt 0.197960 0.937717
vt 0.202176 0.931259
vt 0.231102 0.930113
vt 0.233328 0.653024
vt 0.225336 0.651877
vt 0.228124 0.927687
vt 0.226175 0.921780
vt 0.226841 0.913733
vt 0.202939 0.923886
vt 0.141347 0.921159
vt 0.137678 0.913854
vt 0.199047 0.917144
vt 0.204319 0.927693
vt 0.242521 0.689773
vt 0.236107 0.693625
vt 0.233373 0.693994
vt 0.226979 0.690325
vt 0.241305 0.761421
vt 0.230870 0.910078
vt 0.227469 0.910701
vt 0.234878 0.763103
vt 0.231578 0.761167
vt 0.140544 0.936247
vt 0.143869 0.929353
vt 0.144080 0.925663
vt 0.224573 0.756757
vt 0.006455 0.003890
vt 0.006455 0.008119
vt 0.004514 0.010798
vt 0.002093 0.009910
vt 0.001016 0.006124
vt 0.002093 0.002290
vt 0.004514 0.001295
vt 0.225053 0.909298
vt 0.221700 0.906779
vt 0.005518 0.924917
vt 0.005393 0.922381
vt 0.003427 0.919723
vt 0.001191 0.916188
vt 0.003668 0.928337
vt 0.612371 0.188128
vt 0.617469 0.245610
vt 0.604937 0.245359
vt 0.597986 0.187458
vt 0.755036 0.333601
vt 0.733492 0.323183
vt 0.708441 0.321368
vt 0.775176 0.349776
vt 0.874153 0.046106
vt 0.657855 0.115023
vt 0.639711 0.118458
vt 0.641702 0.188463
vt 0.648174 0.251831
vt 0.636772 0.252439
vt 0.631142 0.191111
vt 0.622587 0.189634
vt 0.628312 0.248992
vt 0.256748 0.247500
vt 0.245041 0.314688
vt 0.234060 0.315869
vt 0.245525 0.245191
vt 0.224056 0.319050
vt 0.231334 0.244739
vt 0.642341 0.340350
vt 0.633571 0.338112
vt 0.606197 0.113897
vt 0.580376 0.108617
vt 0.278627 0.179636
vt 0.265899 0.176714
vt 0.254224 0.176961
vt 0.242232 0.180750
vt 0.227282 0.141796
vt 0.563268 0.109286
vt 0.645817 0.447807
vt 0.636063 0.447700
vt 0.621977 0.336743
vt 0.609504 0.337583
vt 0.219572 0.416445
vt 0.208905 0.417923
vt 0.653987 0.340705
vt 0.230510 0.416089
vt 0.195019 0.417755
vt 0.210257 0.319704
vt 0.208625 0.537504
vt 0.202698 0.535311
vt 0.194599 0.534373
vt 0.183061 0.534539
vt 0.650438 0.447334
vt 0.626052 0.446906
vt 0.658952 0.445934
vt 0.115738 0.653942
vt 0.115738 0.856476
vt 0.108884 0.858506
vt 0.109312 0.651218
vt 0.102658 0.649864
vt 0.100894 0.857777
vt 0.094238 0.854875
vt 0.096872 0.650923
vt 0.137465 0.690378
vt 0.140648 0.888811
vt 0.133118 0.887822
vt 0.130929 0.692273
vt 0.125277 0.692283
vt 0.125865 0.889573
vt 0.119732 0.892768
vt 0.119732 0.690262
vt 0.144096 0.687806
vt 0.146973 0.891726
vt 0.177079 0.733052
vt 0.171069 0.732507
vt 0.190082 0.738333
vt 0.183499 0.735510
vt 0.652278 0.627031
vt 0.647219 0.628076
vt 0.664991 0.624347
vt 0.658363 0.625534
vt 0.641846 0.627623
vt 0.218478 0.245541
vt 0.095319 0.622670
vt 0.084703 0.831457
vt 0.080436 0.828476
vt 0.090508 0.617529
vt 0.083372 0.615342
vt 0.072582 0.825807
vt 0.064893 0.825660
vt 0.076377 0.617518
vt 0.021974 0.635391
vt 0.028307 0.828928
vt 0.022048 0.831755
vt 0.015984 0.639324
vt 0.007323 0.639125
vt 0.014592 0.833318
vt 0.008908 0.832763
vt 0.001255 0.635122
vt 0.059949 0.827254
vt 0.071742 0.622100
vt 0.076375 0.867203
vt 0.087903 0.888077
vt 0.085103 0.891401
vt 0.069722 0.868300
vt 0.026389 0.887081
vt 0.011792 0.911763
vt 0.006169 0.904566
vt 0.017596 0.890819
vt 0.004634 0.899593
vt 0.012476 0.890667
vt 0.083960 0.871729
vt 0.090659 0.884374
vt 0.078398 0.894819
vt 0.065126 0.874385
vt 0.092551 0.877517
vt 0.095319 0.882317
vt 0.037703 0.859155
vt 0.030238 0.863006
vt 0.021121 0.859826
vt 0.015437 0.852464
vt 0.075098 0.843439
vt 0.068856 0.841847
vt 0.063426 0.846047
vt 0.059057 0.851241
vt 0.080690 0.847668
vt 0.274224 0.334642
vt 0.273982 0.427033
vt 0.262650 0.425322
vt 0.265988 0.331102
vt 0.258848 0.331381
vt 0.254393 0.427346
vt 0.248768 0.430775
vt 0.253513 0.334748
vt 0.310418 0.957845
vt 0.217726 0.971625
vt 0.217709 0.960934
vt 0.307392 0.950254
vt 0.308649 0.945937
vt 0.221320 0.954741
vt 0.225579 0.946846
vt 0.312589 0.940186
vt 0.238512 0.434492
vt 0.244648 0.338623
vt 0.271589 0.651860
vt 0.269521 0.651980
vt 0.268072 0.653095
vt 0.265875 0.654483
vt 0.000979 0.943316
vt 0.001630 0.941823
vt 0.274224 0.652667
vt 0.001147 0.945794
vt 0.002673 0.940186
vt 0.892444 0.784774
vt 0.876897 0.790857
vt 0.506686 0.830010
vt 0.511831 0.777294
vt 0.510030 0.834304
vt 0.498053 0.823886
vt 0.501032 0.779552
vt 0.505238 0.774038
vt 0.501969 0.820335
vt 0.912093 0.814808
vt 0.898338 0.787183
vt 0.435747 0.932071
vt 0.426049 0.929360
vt 0.441252 0.923225
vt 0.447153 0.910300
vt 0.681122 0.011066
vt 0.503772 0.666591
vt 0.510970 0.661831
vt 0.509456 0.772689
vt 0.504326 0.823034
vt 0.513279 0.832015
vt 0.522004 0.780915
vt 0.517141 0.825781
vt 0.385861 0.900199
vt 0.387586 0.840449
vt 0.395774 0.845980
vt 0.393313 0.904640
vt 0.379297 0.895993
vt 0.382659 0.838138
vt 0.518709 0.661632
vt 0.540163 0.675338
vt 0.498053 0.671177
vt 0.374210 0.840285
vt 0.373694 0.761959
vt 0.382967 0.758391
vt 0.392497 0.756528
vt 0.401195 0.759069
vt 0.403630 0.849581
vt 0.400836 0.905375
vt 0.357403 0.901780
vt 0.360349 0.846376
vt 0.365481 0.844624
vt 0.364086 0.898916
vt 0.371774 0.895902
vt 0.365739 0.763034
vt 0.370069 0.717014
vt 0.375973 0.719665
vt 0.357403 0.760338
vt 0.364072 0.709236
vt 0.410488 0.763601
vt 0.397475 0.707821
vt 0.406316 0.712663
vt 0.384591 0.715632
vt 0.391513 0.709110
vt 0.782603 0.295854
vt 0.759372 0.284407
vt 0.734138 0.272945
vt 0.705228 0.266716
vt 0.866134 0.001013
vt 0.841527 0.001799
vt 0.824550 0.012034
vt 0.803221 0.025368
vt 0.776132 0.027150
vt 0.171069 0.065834
vt 0.007929 0.885499
vt 0.001255 0.892889
vt 0.410163 0.010771
vt 0.431121 0.500996
vt 0.428068 0.501135
vt 0.407079 0.010926
vt 0.410582 0.163820
vt 0.395606 0.654242
vt 0.289409 0.819396
vt 0.289409 0.155607
vt 0.531051 0.001124
vt 0.539239 0.664868
vt 0.550450 0.000984
vt 0.550450 0.664784
s 0
usemtl Material
f 1/1/1 5/2/1 7/3/1 3/4/1
f 297/5/2 3/4/2 7/3/2 296/6/2
f 296/6/3 7/3/3 5/2/3 298/7/3
f 10/8/4 22/9/4 23/10/4 24/11/4
f 295/12/5 1/13/5 3/14/5 297/15/5
f 298/7/6 5/2/6 1/1/6 295/16/6
f 30/17/7 27/18/7 26/19/7 31/20/7
f 10/8/8 24/11/8 37/21/8 17/22/8
f 19/23/9 9/24/9 15/25/9 33/26/9
f 4/27/10 8/28/10 9/24/10
f 8/28/11 6/29/11 11/30/11 12/31/11
f 22/32/12 10/33/12 18/34/12 40/35/12
f 9/36/13 21/37/13 35/38/13 16/39/13
f 6/29/14 2/40/14 10/8/14
f 10/33/15 2/41/15 14/42/15 18/34/15
f 25/43/16 11/30/16 17/22/16 37/21/16
f 29/44/17 13/45/17 16/39/17 35/38/17
f 14/42/18 32/46/18 40/35/18 18/34/18
f 14/42/19 13/45/19 29/44/19 32/46/19
f 39/47/20 31/20/20 26/19/20 38/48/20
f 23/10/21 39/47/21 38/48/21
f 4/49/22 9/36/22 16/39/22 13/45/22
f 12/31/23 28/50/23 33/26/23 15/25/23
f 2/41/24 4/49/24 13/45/24 14/42/24
f 9/24/25 19/23/25 20/51/25 21/52/25
f 6/29/26 10/8/26 17/22/26 11/30/26
f 9/24/27 8/28/27 12/31/27 15/25/27
f 30/17/28 36/53/28 34/54/28 27/18/28
f 12/31/29 11/30/29 25/43/29 28/50/29
f 34/54/30 20/51/30 19/23/30 33/26/30
f 26/19/31 27/18/31 28/50/31 25/43/31
f 30/17/32 31/20/32 32/55/32 29/56/32
f 36/53/33 30/17/33 29/56/33 35/57/33
f 33/26/34 28/50/34 27/18/34 34/54/34
f 25/43/35 37/21/35 38/48/35 26/19/35
f 40/58/36 32/55/36 31/20/36 39/47/36
f 23/10/37 38/48/37 37/21/37 24/11/37
f 20/51/38 36/53/38 35/57/38 21/52/38
f 39/47/39 23/10/39 22/9/39 40/58/39
f 34/54/40 36/53/40 20/51/40
f 279/59/41 152/60/41 151/61/41 277/62/41
f 273/63/42 149/64/42 148/65/42 271/66/42
f 280/67/43 41/68/43 47/69/43 267/70/43
f 277/62/44 151/61/44 150/71/44 275/72/44
f 271/66/45 148/65/45 147/73/45 269/74/45
f 268/75/46 146/76/46 152/60/46 279/59/46
f 275/72/47 150/71/47 149/77/47 273/78/47
f 45/79/48 53/80/48 52/81/48 44/82/48
f 276/83/49 43/84/49 42/85/49 278/86/49
f 48/87/50 55/88/50 56/89/50 49/90/50
f 44/91/51 52/92/51 51/93/51 43/84/51
f 41/68/52 48/87/52 49/90/52 47/69/52
f 47/94/53 49/95/53 54/96/53 46/97/53
f 46/97/54 54/96/54 53/80/54 45/79/54
f 43/84/55 51/93/55 50/98/55 42/85/55
f 42/85/56 50/98/56 48/87/56 41/68/56
f 56/99/57 63/100/57 68/101/57 61/102/57
f 54/96/58 61/103/58 60/104/58 53/80/58
f 52/92/59 59/105/59 58/106/59 51/93/59
f 50/98/60 57/107/60 55/88/60 48/87/60
f 49/95/61 56/108/61 61/103/61 54/96/61
f 53/80/62 60/104/62 59/109/62 52/81/62
f 51/93/63 58/106/63 57/107/63 50/98/63
f 68/101/64 75/110/64 74/111/64 67/112/64
f 60/113/65 67/112/65 66/114/65 59/115/65
f 58/116/66 65/117/66 64/118/66 57/119/66
f 55/120/67 62/121/67 63/122/67 56/123/67
f 61/102/68 68/101/68 67/112/68 60/113/68
f 59/124/69 66/125/69 65/117/69 58/116/69
f 57/119/70 64/118/70 62/121/70 55/120/70
f 238/126/71 87/127/71 86/128/71 236/129/71
f 66/125/72 73/130/72 72/131/72 65/117/72
f 64/118/73 71/132/73 69/133/73 62/121/73
f 63/100/74 70/134/74 75/110/74 68/101/74
f 67/112/75 74/111/75 73/135/75 66/114/75
f 65/117/76 72/131/76 71/132/76 64/118/76
f 62/121/77 69/133/77 70/136/77 63/122/77
f 236/129/78 86/128/78 85/137/78 234/138/78
f 234/138/79 85/137/79 83/139/79 230/140/79
f 80/141/80 246/142/80 76/143/80 78/144/80
f 240/145/81 88/146/81 87/147/81 238/148/81
f 69/133/82 231/149/82 232/150/82 70/136/82
f 233/151/83 84/152/83 89/153/83 242/154/83
f 242/154/84 89/153/84 88/146/84 240/145/84
f 89/153/85 96/155/85 95/156/85 88/146/85
f 74/111/86 241/157/86 239/158/86 73/135/86
f 72/131/87 237/159/87 235/160/87 71/132/87
f 71/132/88 235/160/88 231/149/88 69/133/88
f 75/110/89 243/161/89 241/157/89 74/111/89
f 73/130/90 239/162/90 237/159/90 72/131/90
f 70/134/91 232/163/91 243/161/91 75/110/91
f 95/156/92 102/164/92 101/165/92 94/166/92
f 87/127/93 94/167/93 93/168/93 86/128/93
f 85/137/94 92/169/94 90/170/94 83/139/94
f 84/152/95 91/171/95 96/155/95 89/153/95
f 88/146/96 95/156/96 94/166/96 87/147/96
f 86/128/97 93/168/97 92/169/97 85/137/97
f 83/139/98 90/170/98 91/172/98 84/173/98
f 99/174/99 106/175/99 104/176/99 97/177/99
f 93/168/100 100/178/100 99/174/100 92/169/100
f 90/170/101 97/177/101 98/179/101 91/172/101
f 96/155/102 103/180/102 102/164/102 95/156/102
f 94/167/103 101/181/103 100/178/103 93/168/103
f 92/169/104 99/174/104 97/177/104 90/170/104
f 91/171/105 98/182/105 103/180/105 96/155/105
f 110/183/106 117/184/106 116/185/106 109/186/106
f 98/182/107 105/187/107 110/188/107 103/180/107
f 102/164/108 109/189/108 108/190/108 101/165/108
f 100/178/109 107/191/109 106/175/109 99/174/109
f 97/177/110 104/176/110 105/192/110 98/179/110
f 103/180/111 110/188/111 109/189/111 102/164/111
f 101/181/112 108/193/112 107/191/112 100/178/112
f 112/194/113 119/195/113 124/196/113 117/184/113
f 108/197/114 115/198/114 114/199/114 107/200/114
f 106/201/115 113/202/115 111/203/115 104/204/115
f 105/205/116 112/194/116 117/184/116 110/183/116
f 109/186/117 116/185/117 115/206/117 108/207/117
f 107/200/118 114/199/118 113/202/118 106/201/118
f 104/204/119 111/203/119 112/208/119 105/209/119
f 122/210/120 129/211/120 128/212/120 121/213/120
f 116/185/121 123/214/121 122/215/121 115/206/121
f 114/199/122 121/213/122 120/216/122 113/202/122
f 111/203/123 118/217/123 119/218/123 112/208/123
f 117/184/124 124/196/124 123/214/124 116/185/124
f 115/198/125 122/210/125 121/213/125 114/199/125
f 113/202/126 120/216/126 118/217/126 111/203/126
f 125/219/127 132/220/127 133/221/127 126/222/127
f 120/216/128 127/223/128 125/219/128 118/217/128
f 119/195/129 126/224/129 131/225/129 124/196/129
f 123/214/130 130/226/130 129/227/130 122/215/130
f 121/213/131 128/212/131 127/223/131 120/216/131
f 118/217/132 125/219/132 126/222/132 119/218/132
f 124/196/133 131/225/133 130/226/133 123/214/133
f 133/228/134 140/229/134 145/230/134 138/231/134
f 131/225/135 138/231/135 137/232/135 130/226/135
f 129/211/136 136/233/136 135/234/136 128/212/136
f 127/223/137 134/235/137 132/220/137 125/219/137
f 126/224/138 133/228/138 138/231/138 131/225/138
f 130/226/139 137/232/139 136/236/139 129/227/139
f 128/212/140 135/234/140 134/235/140 127/223/140
f 140/237/141 139/238/141 141/239/141 142/240/141 143/241/141 144/242/141 145/243/141
f 137/232/142 144/244/142 143/245/142 136/236/142
f 135/234/143 142/246/143 141/247/143 134/235/143
f 132/220/144 139/248/144 140/249/144 133/221/144
f 138/231/145 145/230/145 144/244/145 137/232/145
f 136/233/146 143/250/146 142/246/146 135/234/146
f 134/235/147 141/247/147 139/248/147 132/220/147
f 196/251/148 157/252/148 156/253/148 194/254/148
f 270/255/149 46/97/149 45/79/149 272/256/149
f 272/256/150 45/79/150 44/82/150 274/257/150
f 278/86/151 42/85/151 41/68/151 280/67/151
f 267/258/152 47/94/152 46/97/152 270/255/152
f 274/259/153 44/91/153 43/84/153 276/83/153
f 146/76/154 188/260/154 201/261/154 152/60/154
f 189/262/155 153/263/155 159/264/155 200/265/155
f 198/266/156 158/267/156 157/252/156 196/251/156
f 194/268/157 156/269/157 155/270/157 192/271/157
f 192/271/158 155/270/158 154/272/158 190/273/158
f 200/265/159 159/264/159 158/267/159 198/266/159
f 159/264/160 166/274/160 165/275/160 158/267/160
f 151/61/161 199/276/161 197/277/161 150/71/161
f 149/64/162 195/278/162 193/279/162 148/65/162
f 147/73/163 191/280/163 188/281/163 146/282/163
f 152/60/164 201/261/164 199/276/164 151/61/164
f 150/71/165 197/277/165 195/283/165 149/77/165
f 148/65/166 193/279/166 191/280/166 147/73/166
f 165/275/167 172/284/167 171/285/167 164/286/167
f 157/252/168 164/286/168 163/287/168 156/253/168
f 155/270/169 162/288/169 161/289/169 154/272/169
f 153/263/170 160/290/170 166/274/170 159/264/170
f 158/267/171 165/275/171 164/286/171 157/252/171
f 156/269/172 163/291/172 162/288/172 155/270/172
f 154/272/173 161/289/173 160/292/173 153/293/173
f 163/291/174 170/294/174 169/295/174 162/288/174
f 161/289/175 168/296/175 167/297/175 160/292/175
f 166/274/176 173/298/176 172/284/176 165/275/176
f 164/286/177 171/285/177 170/299/177 163/287/177
f 162/288/178 169/295/178 168/296/178 161/289/178
f 160/290/179 167/300/179 173/298/179 166/274/179
f 184/301/180 176/302/180 175/303/180 185/304/180
f 186/305/181 174/306/181 179/307/181 187/308/181
f 181/309/182 180/310/182 178/311/182 182/312/182
f 183/313/183 177/314/183 176/315/183 184/316/183
f 185/304/184 175/303/184 174/306/184 186/305/184
f 187/317/185 179/318/185 180/310/185 181/309/185
f 182/312/186 178/311/186 177/314/186 183/313/186
f 168/296/187 186/319/187 187/320/187 167/297/187
f 170/294/188 184/321/188 185/322/188 169/295/188
f 172/284/189 182/323/189 183/324/189 171/285/189
f 167/300/190 187/325/190 181/326/190 173/298/190
f 169/295/191 185/322/191 186/319/191 168/296/191
f 171/285/192 183/324/192 184/327/192 170/299/192
f 173/298/193 181/326/193 182/323/193 172/284/193
f 189/328/194 188/281/194 191/280/194 190/273/194
f 190/273/195 191/280/195 193/279/195 192/271/195
f 192/271/196 193/279/196 195/278/196 194/268/196
f 194/254/197 195/283/197 197/277/197 196/251/197
f 196/251/198 197/277/198 199/276/198 198/266/198
f 198/266/199 199/276/199 201/261/199 200/265/199
f 200/265/200 201/261/200 188/260/200 189/262/200
f 190/273/201 154/272/201 153/293/201 189/328/201
f 179/329/202 202/330/202 208/331/202 180/332/202
f 178/333/203 207/334/203 206/335/203 177/336/203
f 176/337/204 205/338/204 204/339/204 175/340/204
f 174/341/205 203/342/205 202/343/205 179/344/205
f 180/332/206 208/331/206 207/334/206 178/333/206
f 177/336/207 206/335/207 205/345/207 176/346/207
f 175/340/208 204/339/208 203/342/208 174/341/208
f 291/347/209 214/348/209 213/349/209 289/350/209
f 287/351/210 212/352/210 211/353/210 285/354/210
f 285/354/211 211/353/211 210/355/211 283/356/211
f 293/357/212 215/358/212 214/348/212 291/347/212
f 289/350/213 213/349/213 212/359/213 287/360/213
f 282/361/214 209/362/214 215/358/214 293/357/214
f 205/338/215 288/363/215 286/364/215 204/339/215
f 203/342/216 284/365/216 281/366/216 202/343/216
f 208/331/217 294/367/217 292/368/217 207/334/217
f 206/335/218 290/369/218 288/370/218 205/345/218
f 204/339/219 286/364/219 284/365/219 203/342/219
f 202/330/220 281/371/220 294/367/220 208/331/220
f 207/334/221 292/368/221 290/369/221 206/335/221
f 209/372/222 216/373/222 222/374/222 215/375/222
f 214/376/223 221/377/223 220/378/223 213/379/223
f 212/380/224 219/381/224 218/382/224 211/383/224
f 210/384/225 217/385/225 216/386/225 209/387/225
f 215/375/226 222/374/226 221/377/226 214/376/226
f 213/379/227 220/378/227 219/388/227 212/389/227
f 211/383/228 218/382/228 217/385/228 210/384/228
f 222/374/229 229/390/229 228/391/229 221/377/229
f 220/378/230 227/392/230 226/393/230 219/388/230
f 218/382/231 225/394/231 224/395/231 217/385/231
f 216/373/232 223/396/232 229/390/232 222/374/232
f 221/377/233 228/391/233 227/392/233 220/378/233
f 219/381/234 226/397/234 225/394/234 218/382/234
f 217/385/235 224/395/235 223/398/235 216/386/235
f 231/149/236 230/399/236 233/400/236 232/150/236
f 230/401/237 82/402/237 80/141/237 234/403/237
f 237/404/238 77/405/238 79/406/238 235/407/238
f 239/162/239 238/408/239 236/409/239 237/159/239
f 241/157/240 240/410/240 238/411/240 239/158/240
f 243/161/241 242/412/241 240/410/241 241/157/241
f 232/163/242 233/413/242 242/412/242 243/161/242
f 230/140/243 83/139/243 84/173/243 233/414/243
f 79/406/244 247/415/244 248/416/244 81/417/244
f 231/418/245 81/417/245 82/402/245 230/401/245
f 234/403/246 80/141/246 78/144/246 236/419/246
f 236/419/247 78/144/247 77/420/247 237/421/247
f 235/407/248 79/406/248 81/417/248 231/418/248
f 246/422/249 250/423/249 252/424/249 76/425/249
f 245/426/250 249/427/250 250/423/250 246/422/250
f 82/402/251 245/428/251 246/142/251 80/141/251
f 78/144/252 76/143/252 244/429/252 77/420/252
f 77/405/253 244/430/253 247/415/253 79/406/253
f 81/417/254 248/416/254 245/428/254 82/402/254
f 251/431/255 257/432/255 255/433/255 249/427/255
f 250/423/256 256/434/256 258/435/256 252/424/256
f 76/425/257 252/424/257 253/436/257 244/437/257
f 244/438/258 253/439/258 254/440/258 247/441/258
f 247/441/259 254/440/259 251/431/259 248/442/259
f 248/442/260 251/431/260 249/427/260 245/426/260
f 260/443/261 266/444/261 263/445/261 257/432/261
f 259/446/262 265/447/262 266/444/262 260/443/262
f 253/439/263 259/446/263 260/443/263 254/440/263
f 254/440/264 260/443/264 257/432/264 251/431/264
f 252/424/265 258/435/265 259/448/265 253/436/265
f 249/427/266 255/433/266 256/434/266 250/423/266
f 258/435/267 264/449/267 265/450/267 259/448/267
f 255/433/268 261/451/268 262/452/268 256/434/268
f 256/434/269 262/452/269 264/449/269 258/435/269
f 257/432/270 263/445/270 261/451/270 255/433/270
f 268/453/271 267/258/271 270/255/271 269/454/271
f 269/454/272 270/255/272 272/256/272 271/455/272
f 271/455/273 272/256/273 274/257/273 273/456/273
f 273/457/274 274/259/274 276/83/274 275/458/274
f 275/458/275 276/83/275 278/86/275 277/459/275
f 277/459/276 278/86/276 280/67/276 279/460/276
f 279/460/277 280/67/277 267/70/277 268/461/277
f 269/74/278 147/73/278 146/282/278 268/462/278
f 282/463/279 281/366/279 284/365/279 283/356/279
f 283/356/280 284/365/280 286/364/280 285/354/280
f 285/354/281 286/364/281 288/363/281 287/351/281
f 287/360/282 288/370/282 290/369/282 289/350/282
f 289/350/283 290/369/283 292/368/283 291/347/283
f 291/347/284 292/368/284 294/367/284 293/357/284
f 293/357/285 294/367/285 281/371/285 282/361/285
f 283/356/286 210/355/286 209/464/286 282/463/286
f 6/465/287 298/466/287 295/467/287 2/468/287
f 2/469/288 295/470/288 297/471/288 4/472/288
f 8/473/289 296/474/289 298/466/289 6/465/289
f 4/475/290 297/476/290 296/474/290 8/473/290
